%FSLAX45Y45*%
G04 Gerber Fmt 4.5, Leading zero omitted, Abs format (unit mm)*
G04 Created by KiCad (PCBNEW (6.0.1)) date 2022-02-26 16:04:42*
%MOMM*%
%LPD*%
G01*
G04 APERTURE LIST*
%TA.AperFunction,Profile*%
%ADD10C,0.001000*%
%TD*%
%ADD11C,0.200000*%
%ADD12C,0.350000*%
G04 APERTURE END LIST*
D10*
X23139400Y-8229600D02*
G75*
G03*
X22758400Y-7848600I-381000J0D01*
G01*
X23139400Y-14833600D02*
X23139400Y-8229600D01*
X22758400Y-7848600D02*
X10566400Y-7848600D01*
X10185483Y-8229600D02*
X10190164Y-14833683D01*
X22758400Y-15214600D02*
G75*
G03*
X23139400Y-14833600I0J381000D01*
G01*
X22758400Y-15214600D02*
X10571164Y-15214683D01*
X10190164Y-14833683D02*
G75*
G03*
X10571164Y-15214683I381000J0D01*
G01*
X10566400Y-7848600D02*
G75*
G03*
X10185483Y-8229600I0J-380917D01*
G01*
D11*
D12*
X19281400Y-14546600D02*
X19631400Y-14896600D01*
X19631400Y-14546600D02*
X19281400Y-14896600D01*
D11*
X10443052Y-15525209D02*
X10443052Y-15325209D01*
X10490671Y-15325209D01*
X10519242Y-15334733D01*
X10538290Y-15353780D01*
X10547814Y-15372828D01*
X10557337Y-15410923D01*
X10557337Y-15439495D01*
X10547814Y-15477590D01*
X10538290Y-15496637D01*
X10519242Y-15515685D01*
X10490671Y-15525209D01*
X10443052Y-15525209D01*
X10643052Y-15525209D02*
X10643052Y-15391875D01*
X10643052Y-15429971D02*
X10652576Y-15410923D01*
X10662099Y-15401399D01*
X10681147Y-15391875D01*
X10700195Y-15391875D01*
X10766861Y-15525209D02*
X10766861Y-15391875D01*
X10766861Y-15325209D02*
X10757337Y-15334733D01*
X10766861Y-15344256D01*
X10776385Y-15334733D01*
X10766861Y-15325209D01*
X10766861Y-15344256D01*
X10890671Y-15525209D02*
X10871623Y-15515685D01*
X10862099Y-15496637D01*
X10862099Y-15325209D01*
X10995433Y-15525209D02*
X10976385Y-15515685D01*
X10966861Y-15496637D01*
X10966861Y-15325209D01*
X11224004Y-15525209D02*
X11224004Y-15325209D01*
X11290671Y-15468066D01*
X11357337Y-15325209D01*
X11357337Y-15525209D01*
X11538290Y-15525209D02*
X11538290Y-15420447D01*
X11528766Y-15401399D01*
X11509718Y-15391875D01*
X11471623Y-15391875D01*
X11452575Y-15401399D01*
X11538290Y-15515685D02*
X11519242Y-15525209D01*
X11471623Y-15525209D01*
X11452575Y-15515685D01*
X11443052Y-15496637D01*
X11443052Y-15477590D01*
X11452575Y-15458542D01*
X11471623Y-15449018D01*
X11519242Y-15449018D01*
X11538290Y-15439495D01*
X11633528Y-15391875D02*
X11633528Y-15591875D01*
X11633528Y-15401399D02*
X11652575Y-15391875D01*
X11690671Y-15391875D01*
X11709718Y-15401399D01*
X11719242Y-15410923D01*
X11728766Y-15429971D01*
X11728766Y-15487114D01*
X11719242Y-15506161D01*
X11709718Y-15515685D01*
X11690671Y-15525209D01*
X11652575Y-15525209D01*
X11633528Y-15515685D01*
X11814480Y-15506161D02*
X11824004Y-15515685D01*
X11814480Y-15525209D01*
X11804956Y-15515685D01*
X11814480Y-15506161D01*
X11814480Y-15525209D01*
X11814480Y-15401399D02*
X11824004Y-15410923D01*
X11814480Y-15420447D01*
X11804956Y-15410923D01*
X11814480Y-15401399D01*
X11814480Y-15420447D01*
X9985433Y-15754733D02*
X10185433Y-15954733D01*
X10185433Y-15754733D02*
X9985433Y-15954733D01*
X10424004Y-15745209D02*
X10547814Y-15745209D01*
X10481147Y-15821399D01*
X10509718Y-15821399D01*
X10528766Y-15830923D01*
X10538290Y-15840447D01*
X10547814Y-15859495D01*
X10547814Y-15907114D01*
X10538290Y-15926161D01*
X10528766Y-15935685D01*
X10509718Y-15945209D01*
X10452576Y-15945209D01*
X10433528Y-15935685D01*
X10424004Y-15926161D01*
X10633528Y-15926161D02*
X10643052Y-15935685D01*
X10633528Y-15945209D01*
X10624004Y-15935685D01*
X10633528Y-15926161D01*
X10633528Y-15945209D01*
X10824004Y-15745209D02*
X10728766Y-15745209D01*
X10719242Y-15840447D01*
X10728766Y-15830923D01*
X10747814Y-15821399D01*
X10795433Y-15821399D01*
X10814480Y-15830923D01*
X10824004Y-15840447D01*
X10833528Y-15859495D01*
X10833528Y-15907114D01*
X10824004Y-15926161D01*
X10814480Y-15935685D01*
X10795433Y-15945209D01*
X10747814Y-15945209D01*
X10728766Y-15935685D01*
X10719242Y-15926161D01*
X10957337Y-15745209D02*
X10976385Y-15745209D01*
X10995433Y-15754733D01*
X11004957Y-15764256D01*
X11014480Y-15783304D01*
X11024004Y-15821399D01*
X11024004Y-15869018D01*
X11014480Y-15907114D01*
X11004957Y-15926161D01*
X10995433Y-15935685D01*
X10976385Y-15945209D01*
X10957337Y-15945209D01*
X10938290Y-15935685D01*
X10928766Y-15926161D01*
X10919242Y-15907114D01*
X10909718Y-15869018D01*
X10909718Y-15821399D01*
X10919242Y-15783304D01*
X10928766Y-15764256D01*
X10938290Y-15754733D01*
X10957337Y-15745209D01*
X11147814Y-15745209D02*
X11166861Y-15745209D01*
X11185909Y-15754733D01*
X11195433Y-15764256D01*
X11204956Y-15783304D01*
X11214480Y-15821399D01*
X11214480Y-15869018D01*
X11204956Y-15907114D01*
X11195433Y-15926161D01*
X11185909Y-15935685D01*
X11166861Y-15945209D01*
X11147814Y-15945209D01*
X11128766Y-15935685D01*
X11119242Y-15926161D01*
X11109718Y-15907114D01*
X11100195Y-15869018D01*
X11100195Y-15821399D01*
X11109718Y-15783304D01*
X11119242Y-15764256D01*
X11128766Y-15754733D01*
X11147814Y-15745209D01*
X11300195Y-15945209D02*
X11300195Y-15811875D01*
X11300195Y-15830923D02*
X11309718Y-15821399D01*
X11328766Y-15811875D01*
X11357337Y-15811875D01*
X11376385Y-15821399D01*
X11385909Y-15840447D01*
X11385909Y-15945209D01*
X11385909Y-15840447D02*
X11395433Y-15821399D01*
X11414480Y-15811875D01*
X11443052Y-15811875D01*
X11462099Y-15821399D01*
X11471623Y-15840447D01*
X11471623Y-15945209D01*
X11566861Y-15945209D02*
X11566861Y-15811875D01*
X11566861Y-15830923D02*
X11576385Y-15821399D01*
X11595433Y-15811875D01*
X11624004Y-15811875D01*
X11643052Y-15821399D01*
X11652575Y-15840447D01*
X11652575Y-15945209D01*
X11652575Y-15840447D02*
X11662099Y-15821399D01*
X11681147Y-15811875D01*
X11709718Y-15811875D01*
X11728766Y-15821399D01*
X11738290Y-15840447D01*
X11738290Y-15945209D01*
X12128766Y-15735685D02*
X11957337Y-15992828D01*
X12385909Y-15745209D02*
X12404956Y-15745209D01*
X12424004Y-15754733D01*
X12433528Y-15764256D01*
X12443052Y-15783304D01*
X12452575Y-15821399D01*
X12452575Y-15869018D01*
X12443052Y-15907114D01*
X12433528Y-15926161D01*
X12424004Y-15935685D01*
X12404956Y-15945209D01*
X12385909Y-15945209D01*
X12366861Y-15935685D01*
X12357337Y-15926161D01*
X12347814Y-15907114D01*
X12338290Y-15869018D01*
X12338290Y-15821399D01*
X12347814Y-15783304D01*
X12357337Y-15764256D01*
X12366861Y-15754733D01*
X12385909Y-15745209D01*
X12538290Y-15926161D02*
X12547814Y-15935685D01*
X12538290Y-15945209D01*
X12528766Y-15935685D01*
X12538290Y-15926161D01*
X12538290Y-15945209D01*
X12738290Y-15945209D02*
X12624004Y-15945209D01*
X12681147Y-15945209D02*
X12681147Y-15745209D01*
X12662099Y-15773780D01*
X12643052Y-15792828D01*
X12624004Y-15802352D01*
X12804956Y-15745209D02*
X12928766Y-15745209D01*
X12862099Y-15821399D01*
X12890671Y-15821399D01*
X12909718Y-15830923D01*
X12919242Y-15840447D01*
X12928766Y-15859495D01*
X12928766Y-15907114D01*
X12919242Y-15926161D01*
X12909718Y-15935685D01*
X12890671Y-15945209D01*
X12833528Y-15945209D01*
X12814480Y-15935685D01*
X12804956Y-15926161D01*
X12995433Y-15745209D02*
X13128766Y-15745209D01*
X13043052Y-15945209D01*
X13233528Y-15830923D02*
X13214480Y-15821399D01*
X13204956Y-15811875D01*
X13195433Y-15792828D01*
X13195433Y-15783304D01*
X13204956Y-15764256D01*
X13214480Y-15754733D01*
X13233528Y-15745209D01*
X13271623Y-15745209D01*
X13290671Y-15754733D01*
X13300195Y-15764256D01*
X13309718Y-15783304D01*
X13309718Y-15792828D01*
X13300195Y-15811875D01*
X13290671Y-15821399D01*
X13271623Y-15830923D01*
X13233528Y-15830923D01*
X13214480Y-15840447D01*
X13204956Y-15849971D01*
X13195433Y-15869018D01*
X13195433Y-15907114D01*
X13204956Y-15926161D01*
X13214480Y-15935685D01*
X13233528Y-15945209D01*
X13271623Y-15945209D01*
X13290671Y-15935685D01*
X13300195Y-15926161D01*
X13309718Y-15907114D01*
X13309718Y-15869018D01*
X13300195Y-15849971D01*
X13290671Y-15840447D01*
X13271623Y-15830923D01*
X13385909Y-15745209D02*
X13385909Y-15783304D01*
X13462099Y-15745209D02*
X13462099Y-15783304D01*
X13757337Y-16021399D02*
X13747814Y-16011875D01*
X13728766Y-15983304D01*
X13719242Y-15964256D01*
X13709718Y-15935685D01*
X13700195Y-15888066D01*
X13700195Y-15849971D01*
X13709718Y-15802352D01*
X13719242Y-15773780D01*
X13728766Y-15754733D01*
X13747814Y-15726161D01*
X13757337Y-15716637D01*
X13938290Y-15945209D02*
X13824004Y-15945209D01*
X13881147Y-15945209D02*
X13881147Y-15745209D01*
X13862099Y-15773780D01*
X13843052Y-15792828D01*
X13824004Y-15802352D01*
X14176385Y-15945209D02*
X14176385Y-15745209D01*
X14262099Y-15945209D02*
X14262099Y-15840447D01*
X14252575Y-15821399D01*
X14233528Y-15811875D01*
X14204956Y-15811875D01*
X14185909Y-15821399D01*
X14176385Y-15830923D01*
X14385909Y-15945209D02*
X14366861Y-15935685D01*
X14357337Y-15926161D01*
X14347814Y-15907114D01*
X14347814Y-15849971D01*
X14357337Y-15830923D01*
X14366861Y-15821399D01*
X14385909Y-15811875D01*
X14414480Y-15811875D01*
X14433528Y-15821399D01*
X14443052Y-15830923D01*
X14452575Y-15849971D01*
X14452575Y-15907114D01*
X14443052Y-15926161D01*
X14433528Y-15935685D01*
X14414480Y-15945209D01*
X14385909Y-15945209D01*
X14566861Y-15945209D02*
X14547814Y-15935685D01*
X14538290Y-15916637D01*
X14538290Y-15745209D01*
X14719242Y-15935685D02*
X14700195Y-15945209D01*
X14662099Y-15945209D01*
X14643052Y-15935685D01*
X14633528Y-15916637D01*
X14633528Y-15840447D01*
X14643052Y-15821399D01*
X14662099Y-15811875D01*
X14700195Y-15811875D01*
X14719242Y-15821399D01*
X14728766Y-15840447D01*
X14728766Y-15859495D01*
X14633528Y-15878542D01*
X14795433Y-16021399D02*
X14804956Y-16011875D01*
X14824004Y-15983304D01*
X14833528Y-15964256D01*
X14843052Y-15935685D01*
X14852575Y-15888066D01*
X14852575Y-15849971D01*
X14843052Y-15802352D01*
X14833528Y-15773780D01*
X14824004Y-15754733D01*
X14804956Y-15726161D01*
X14795433Y-15716637D01*
X15157337Y-16021399D02*
X15147814Y-16011875D01*
X15128766Y-15983304D01*
X15119242Y-15964256D01*
X15109718Y-15935685D01*
X15100195Y-15888066D01*
X15100195Y-15849971D01*
X15109718Y-15802352D01*
X15119242Y-15773780D01*
X15128766Y-15754733D01*
X15147814Y-15726161D01*
X15157337Y-15716637D01*
X15233528Y-15811875D02*
X15233528Y-15945209D01*
X15233528Y-15830923D02*
X15243052Y-15821399D01*
X15262099Y-15811875D01*
X15290671Y-15811875D01*
X15309718Y-15821399D01*
X15319242Y-15840447D01*
X15319242Y-15945209D01*
X15443052Y-15945209D02*
X15424004Y-15935685D01*
X15414480Y-15926161D01*
X15404956Y-15907114D01*
X15404956Y-15849971D01*
X15414480Y-15830923D01*
X15424004Y-15821399D01*
X15443052Y-15811875D01*
X15471623Y-15811875D01*
X15490671Y-15821399D01*
X15500195Y-15830923D01*
X15509718Y-15849971D01*
X15509718Y-15907114D01*
X15500195Y-15926161D01*
X15490671Y-15935685D01*
X15471623Y-15945209D01*
X15443052Y-15945209D01*
X15566861Y-15811875D02*
X15643052Y-15811875D01*
X15595433Y-15745209D02*
X15595433Y-15916637D01*
X15604956Y-15935685D01*
X15624004Y-15945209D01*
X15643052Y-15945209D01*
X15862099Y-15811875D02*
X15862099Y-16011875D01*
X15862099Y-15821399D02*
X15881147Y-15811875D01*
X15919242Y-15811875D01*
X15938290Y-15821399D01*
X15947814Y-15830923D01*
X15957337Y-15849971D01*
X15957337Y-15907114D01*
X15947814Y-15926161D01*
X15938290Y-15935685D01*
X15919242Y-15945209D01*
X15881147Y-15945209D01*
X15862099Y-15935685D01*
X16071623Y-15945209D02*
X16052575Y-15935685D01*
X16043052Y-15916637D01*
X16043052Y-15745209D01*
X16233528Y-15945209D02*
X16233528Y-15840447D01*
X16224004Y-15821399D01*
X16204956Y-15811875D01*
X16166861Y-15811875D01*
X16147814Y-15821399D01*
X16233528Y-15935685D02*
X16214480Y-15945209D01*
X16166861Y-15945209D01*
X16147814Y-15935685D01*
X16138290Y-15916637D01*
X16138290Y-15897590D01*
X16147814Y-15878542D01*
X16166861Y-15869018D01*
X16214480Y-15869018D01*
X16233528Y-15859495D01*
X16300195Y-15811875D02*
X16376385Y-15811875D01*
X16328766Y-15745209D02*
X16328766Y-15916637D01*
X16338290Y-15935685D01*
X16357337Y-15945209D01*
X16376385Y-15945209D01*
X16519242Y-15935685D02*
X16500195Y-15945209D01*
X16462099Y-15945209D01*
X16443052Y-15935685D01*
X16433528Y-15916637D01*
X16433528Y-15840447D01*
X16443052Y-15821399D01*
X16462099Y-15811875D01*
X16500195Y-15811875D01*
X16519242Y-15821399D01*
X16528766Y-15840447D01*
X16528766Y-15859495D01*
X16433528Y-15878542D01*
X16700195Y-15945209D02*
X16700195Y-15745209D01*
X16700195Y-15935685D02*
X16681147Y-15945209D01*
X16643052Y-15945209D01*
X16624004Y-15935685D01*
X16614480Y-15926161D01*
X16604956Y-15907114D01*
X16604956Y-15849971D01*
X16614480Y-15830923D01*
X16624004Y-15821399D01*
X16643052Y-15811875D01*
X16681147Y-15811875D01*
X16700195Y-15821399D01*
X16776385Y-16021399D02*
X16785909Y-16011875D01*
X16804957Y-15983304D01*
X16814480Y-15964256D01*
X16824004Y-15935685D01*
X16833528Y-15888066D01*
X16833528Y-15849971D01*
X16824004Y-15802352D01*
X16814480Y-15773780D01*
X16804957Y-15754733D01*
X16785909Y-15726161D01*
X16776385Y-15716637D01*
M02*
