%FSLAX45Y45*%
G04 Gerber Fmt 4.5, Leading zero omitted, Abs format (unit mm)*
G04 Created by KiCad (PCBNEW (6.0.1)) date 2022-02-26 16:04:42*
%MOMM*%
%LPD*%
G01*
G04 APERTURE LIST*
%TA.AperFunction,Profile*%
%ADD10C,0.001000*%
%TD*%
%ADD11C,0.200000*%
%ADD12C,0.050000*%
%ADD13C,0.075000*%
%ADD14C,0.080000*%
%ADD15C,0.100000*%
%ADD16C,0.110000*%
%ADD17C,0.320000*%
G04 APERTURE END LIST*
D10*
X23139400Y-8229600D02*
G75*
G03*
X22758400Y-7848600I-381000J0D01*
G01*
X23139400Y-14833600D02*
X23139400Y-8229600D01*
X22758400Y-7848600D02*
X10566400Y-7848600D01*
X10185483Y-8229600D02*
X10190164Y-14833683D01*
X22758400Y-15214600D02*
G75*
G03*
X23139400Y-14833600I0J381000D01*
G01*
X22758400Y-15214600D02*
X10571164Y-15214683D01*
X10190164Y-14833683D02*
G75*
G03*
X10571164Y-15214683I381000J0D01*
G01*
X10566400Y-7848600D02*
G75*
G03*
X10185483Y-8229600I0J-380917D01*
G01*
D11*
D12*
X10301400Y-8204600D02*
X10351400Y-8254600D01*
X10351400Y-8204600D02*
X10301400Y-8254600D01*
X10315400Y-14808600D02*
X10365400Y-14858600D01*
X10365400Y-14808600D02*
X10315400Y-14858600D01*
X10371694Y-8034894D02*
X10421694Y-8084894D01*
X10421694Y-8034894D02*
X10371694Y-8084894D01*
X10371694Y-8374306D02*
X10421694Y-8424306D01*
X10421694Y-8374306D02*
X10371694Y-8424306D01*
X10385694Y-14638894D02*
X10435694Y-14688894D01*
X10435694Y-14638894D02*
X10385694Y-14688894D01*
X10385694Y-14978306D02*
X10435694Y-15028306D01*
X10435694Y-14978306D02*
X10385694Y-15028306D01*
X10541400Y-7964600D02*
X10591400Y-8014600D01*
X10591400Y-7964600D02*
X10541400Y-8014600D01*
X10541400Y-8444600D02*
X10591400Y-8494600D01*
X10591400Y-8444600D02*
X10541400Y-8494600D01*
X10555400Y-14568600D02*
X10605400Y-14618600D01*
X10605400Y-14568600D02*
X10555400Y-14618600D01*
X10555400Y-15048600D02*
X10605400Y-15098600D01*
X10605400Y-15048600D02*
X10555400Y-15098600D01*
X10711106Y-8034894D02*
X10761106Y-8084894D01*
X10761106Y-8034894D02*
X10711106Y-8084894D01*
X10711106Y-8374306D02*
X10761106Y-8424306D01*
X10761106Y-8374306D02*
X10711106Y-8424306D01*
X10725106Y-14638894D02*
X10775106Y-14688894D01*
X10775106Y-14638894D02*
X10725106Y-14688894D01*
X10725106Y-14978306D02*
X10775106Y-15028306D01*
X10775106Y-14978306D02*
X10725106Y-15028306D01*
X10781400Y-8204600D02*
X10831400Y-8254600D01*
X10831400Y-8204600D02*
X10781400Y-8254600D01*
X10795400Y-14808600D02*
X10845400Y-14858600D01*
X10845400Y-14808600D02*
X10795400Y-14858600D01*
X22493400Y-8204600D02*
X22543400Y-8254600D01*
X22543400Y-8204600D02*
X22493400Y-8254600D01*
X22493400Y-14808600D02*
X22543400Y-14858600D01*
X22543400Y-14808600D02*
X22493400Y-14858600D01*
X22563694Y-8034894D02*
X22613694Y-8084894D01*
X22613694Y-8034894D02*
X22563694Y-8084894D01*
X22563694Y-8374306D02*
X22613694Y-8424306D01*
X22613694Y-8374306D02*
X22563694Y-8424306D01*
X22563694Y-14638894D02*
X22613694Y-14688894D01*
X22613694Y-14638894D02*
X22563694Y-14688894D01*
X22563694Y-14978306D02*
X22613694Y-15028306D01*
X22613694Y-14978306D02*
X22563694Y-15028306D01*
X22733400Y-7964600D02*
X22783400Y-8014600D01*
X22783400Y-7964600D02*
X22733400Y-8014600D01*
X22733400Y-8444600D02*
X22783400Y-8494600D01*
X22783400Y-8444600D02*
X22733400Y-8494600D01*
X22733400Y-14568600D02*
X22783400Y-14618600D01*
X22783400Y-14568600D02*
X22733400Y-14618600D01*
X22733400Y-15048600D02*
X22783400Y-15098600D01*
X22783400Y-15048600D02*
X22733400Y-15098600D01*
X22903106Y-8034894D02*
X22953106Y-8084894D01*
X22953106Y-8034894D02*
X22903106Y-8084894D01*
X22903106Y-8374306D02*
X22953106Y-8424306D01*
X22953106Y-8374306D02*
X22903106Y-8424306D01*
X22903106Y-14638894D02*
X22953106Y-14688894D01*
X22953106Y-14638894D02*
X22903106Y-14688894D01*
X22903106Y-14978306D02*
X22953106Y-15028306D01*
X22953106Y-14978306D02*
X22903106Y-15028306D01*
X22973400Y-8204600D02*
X23023400Y-8254600D01*
X23023400Y-8204600D02*
X22973400Y-8254600D01*
X22973400Y-14808600D02*
X23023400Y-14858600D01*
X23023400Y-14808600D02*
X22973400Y-14858600D01*
D13*
X20662300Y-13563600D02*
G75*
G03*
X20662300Y-13563600I-37500J0D01*
G01*
X20789300Y-13436600D02*
G75*
G03*
X20789300Y-13436600I-37500J0D01*
G01*
X20916300Y-13563600D02*
G75*
G03*
X20916300Y-13563600I-37500J0D01*
G01*
D14*
X10693400Y-11136000D02*
X10693400Y-11216000D01*
X10653400Y-11176000D02*
X10733400Y-11176000D01*
X10693400Y-11390000D02*
X10693400Y-11470000D01*
X10653400Y-11430000D02*
X10733400Y-11430000D01*
X10693400Y-11644000D02*
X10693400Y-11724000D01*
X10653400Y-11684000D02*
X10733400Y-11684000D01*
X10693400Y-11898000D02*
X10693400Y-11978000D01*
X10653400Y-11938000D02*
X10733400Y-11938000D01*
X10693400Y-12152000D02*
X10693400Y-12232000D01*
X10653400Y-12192000D02*
X10733400Y-12192000D01*
X10693400Y-12406000D02*
X10693400Y-12486000D01*
X10653400Y-12446000D02*
X10733400Y-12446000D01*
X10693400Y-12660000D02*
X10693400Y-12740000D01*
X10653400Y-12700000D02*
X10733400Y-12700000D01*
X10693400Y-12914000D02*
X10693400Y-12994000D01*
X10653400Y-12954000D02*
X10733400Y-12954000D01*
X10693400Y-13168000D02*
X10693400Y-13248000D01*
X10653400Y-13208000D02*
X10733400Y-13208000D01*
X10947400Y-10882000D02*
X10947400Y-10962000D01*
X10907400Y-10922000D02*
X10987400Y-10922000D01*
X10947400Y-11136000D02*
X10947400Y-11216000D01*
X10907400Y-11176000D02*
X10987400Y-11176000D01*
X10947400Y-11390000D02*
X10947400Y-11470000D01*
X10907400Y-11430000D02*
X10987400Y-11430000D01*
X10947400Y-11644000D02*
X10947400Y-11724000D01*
X10907400Y-11684000D02*
X10987400Y-11684000D01*
X10947400Y-11898000D02*
X10947400Y-11978000D01*
X10907400Y-11938000D02*
X10987400Y-11938000D01*
X10947400Y-12152000D02*
X10947400Y-12232000D01*
X10907400Y-12192000D02*
X10987400Y-12192000D01*
X10947400Y-12406000D02*
X10947400Y-12486000D01*
X10907400Y-12446000D02*
X10987400Y-12446000D01*
X10947400Y-12660000D02*
X10947400Y-12740000D01*
X10907400Y-12700000D02*
X10987400Y-12700000D01*
X10947400Y-12914000D02*
X10947400Y-12994000D01*
X10907400Y-12954000D02*
X10987400Y-12954000D01*
X10947400Y-13168000D02*
X10947400Y-13248000D01*
X10907400Y-13208000D02*
X10987400Y-13208000D01*
X10947400Y-13422000D02*
X10947400Y-13502000D01*
X10907400Y-13462000D02*
X10987400Y-13462000D01*
X11201400Y-8570600D02*
X11201400Y-8650600D01*
X11161400Y-8610600D02*
X11241400Y-8610600D01*
X11201400Y-8824600D02*
X11201400Y-8904600D01*
X11161400Y-8864600D02*
X11241400Y-8864600D01*
X11201400Y-9078600D02*
X11201400Y-9158600D01*
X11161400Y-9118600D02*
X11241400Y-9118600D01*
X11201400Y-9332600D02*
X11201400Y-9412600D01*
X11161400Y-9372600D02*
X11241400Y-9372600D01*
X11201400Y-9586600D02*
X11201400Y-9666600D01*
X11161400Y-9626600D02*
X11241400Y-9626600D01*
X11201400Y-9840600D02*
X11201400Y-9920600D01*
X11161400Y-9880600D02*
X11241400Y-9880600D01*
X11201400Y-10094600D02*
X11201400Y-10174600D01*
X11161400Y-10134600D02*
X11241400Y-10134600D01*
X11201400Y-10882000D02*
X11201400Y-10962000D01*
X11161400Y-10922000D02*
X11241400Y-10922000D01*
X11201400Y-11136000D02*
X11201400Y-11216000D01*
X11161400Y-11176000D02*
X11241400Y-11176000D01*
X11201400Y-13168000D02*
X11201400Y-13248000D01*
X11161400Y-13208000D02*
X11241400Y-13208000D01*
X11201400Y-13422000D02*
X11201400Y-13502000D01*
X11161400Y-13462000D02*
X11241400Y-13462000D01*
X11328400Y-8138800D02*
X11328400Y-8218800D01*
X11288400Y-8178800D02*
X11368400Y-8178800D01*
X11455400Y-10882000D02*
X11455400Y-10962000D01*
X11415400Y-10922000D02*
X11495400Y-10922000D01*
X11455400Y-11136000D02*
X11455400Y-11216000D01*
X11415400Y-11176000D02*
X11495400Y-11176000D01*
X11455400Y-13168000D02*
X11455400Y-13248000D01*
X11415400Y-13208000D02*
X11495400Y-13208000D01*
X11455400Y-13422000D02*
X11455400Y-13502000D01*
X11415400Y-13462000D02*
X11495400Y-13462000D01*
X11709400Y-10882000D02*
X11709400Y-10962000D01*
X11669400Y-10922000D02*
X11749400Y-10922000D01*
X11709400Y-11136000D02*
X11709400Y-11216000D01*
X11669400Y-11176000D02*
X11749400Y-11176000D01*
X11709400Y-13168000D02*
X11709400Y-13248000D01*
X11669400Y-13208000D02*
X11749400Y-13208000D01*
X11709400Y-13422000D02*
X11709400Y-13502000D01*
X11669400Y-13462000D02*
X11749400Y-13462000D01*
X11828400Y-8138800D02*
X11828400Y-8218800D01*
X11788400Y-8178800D02*
X11868400Y-8178800D01*
X11963400Y-8570600D02*
X11963400Y-8650600D01*
X11923400Y-8610600D02*
X12003400Y-8610600D01*
X11963400Y-8824600D02*
X11963400Y-8904600D01*
X11923400Y-8864600D02*
X12003400Y-8864600D01*
X11963400Y-9078600D02*
X11963400Y-9158600D01*
X11923400Y-9118600D02*
X12003400Y-9118600D01*
X11963400Y-9332600D02*
X11963400Y-9412600D01*
X11923400Y-9372600D02*
X12003400Y-9372600D01*
X11963400Y-9586600D02*
X11963400Y-9666600D01*
X11923400Y-9626600D02*
X12003400Y-9626600D01*
X11963400Y-9840600D02*
X11963400Y-9920600D01*
X11923400Y-9880600D02*
X12003400Y-9880600D01*
X11963400Y-10094600D02*
X11963400Y-10174600D01*
X11923400Y-10134600D02*
X12003400Y-10134600D01*
X11963400Y-10882000D02*
X11963400Y-10962000D01*
X11923400Y-10922000D02*
X12003400Y-10922000D01*
X11963400Y-11136000D02*
X11963400Y-11216000D01*
X11923400Y-11176000D02*
X12003400Y-11176000D01*
X11963400Y-13168000D02*
X11963400Y-13248000D01*
X11923400Y-13208000D02*
X12003400Y-13208000D01*
X11963400Y-13422000D02*
X11963400Y-13502000D01*
X11923400Y-13462000D02*
X12003400Y-13462000D01*
X12217400Y-10882000D02*
X12217400Y-10962000D01*
X12177400Y-10922000D02*
X12257400Y-10922000D01*
X12217400Y-11136000D02*
X12217400Y-11216000D01*
X12177400Y-11176000D02*
X12257400Y-11176000D01*
X12217400Y-13168000D02*
X12217400Y-13248000D01*
X12177400Y-13208000D02*
X12257400Y-13208000D01*
X12217400Y-13422000D02*
X12217400Y-13502000D01*
X12177400Y-13462000D02*
X12257400Y-13462000D01*
X12471400Y-10882000D02*
X12471400Y-10962000D01*
X12431400Y-10922000D02*
X12511400Y-10922000D01*
X12471400Y-11136000D02*
X12471400Y-11216000D01*
X12431400Y-11176000D02*
X12511400Y-11176000D01*
X12471400Y-13168000D02*
X12471400Y-13248000D01*
X12431400Y-13208000D02*
X12511400Y-13208000D01*
X12471400Y-13422000D02*
X12471400Y-13502000D01*
X12431400Y-13462000D02*
X12511400Y-13462000D01*
X12496800Y-8570600D02*
X12496800Y-8650600D01*
X12456800Y-8610600D02*
X12536800Y-8610600D01*
X12496800Y-8824600D02*
X12496800Y-8904600D01*
X12456800Y-8864600D02*
X12536800Y-8864600D01*
X12496800Y-9078600D02*
X12496800Y-9158600D01*
X12456800Y-9118600D02*
X12536800Y-9118600D01*
X12496800Y-9332600D02*
X12496800Y-9412600D01*
X12456800Y-9372600D02*
X12536800Y-9372600D01*
X12496800Y-9586600D02*
X12496800Y-9666600D01*
X12456800Y-9626600D02*
X12536800Y-9626600D01*
X12496800Y-9840600D02*
X12496800Y-9920600D01*
X12456800Y-9880600D02*
X12536800Y-9880600D01*
X12496800Y-10094600D02*
X12496800Y-10174600D01*
X12456800Y-10134600D02*
X12536800Y-10134600D01*
X12598400Y-8138800D02*
X12598400Y-8218800D01*
X12558400Y-8178800D02*
X12638400Y-8178800D01*
X12725400Y-10882000D02*
X12725400Y-10962000D01*
X12685400Y-10922000D02*
X12765400Y-10922000D01*
X12725400Y-11136000D02*
X12725400Y-11216000D01*
X12685400Y-11176000D02*
X12765400Y-11176000D01*
X12725400Y-13168000D02*
X12725400Y-13248000D01*
X12685400Y-13208000D02*
X12765400Y-13208000D01*
X12725400Y-13422000D02*
X12725400Y-13502000D01*
X12685400Y-13462000D02*
X12765400Y-13462000D01*
X12979400Y-10882000D02*
X12979400Y-10962000D01*
X12939400Y-10922000D02*
X13019400Y-10922000D01*
X12979400Y-11136000D02*
X12979400Y-11216000D01*
X12939400Y-11176000D02*
X13019400Y-11176000D01*
X12979400Y-11390000D02*
X12979400Y-11470000D01*
X12939400Y-11430000D02*
X13019400Y-11430000D01*
X12979400Y-11644000D02*
X12979400Y-11724000D01*
X12939400Y-11684000D02*
X13019400Y-11684000D01*
X12979400Y-11898000D02*
X12979400Y-11978000D01*
X12939400Y-11938000D02*
X13019400Y-11938000D01*
X12979400Y-12152000D02*
X12979400Y-12232000D01*
X12939400Y-12192000D02*
X13019400Y-12192000D01*
X12979400Y-12406000D02*
X12979400Y-12486000D01*
X12939400Y-12446000D02*
X13019400Y-12446000D01*
X12979400Y-12660000D02*
X12979400Y-12740000D01*
X12939400Y-12700000D02*
X13019400Y-12700000D01*
X12979400Y-12914000D02*
X12979400Y-12994000D01*
X12939400Y-12954000D02*
X13019400Y-12954000D01*
X12979400Y-13168000D02*
X12979400Y-13248000D01*
X12939400Y-13208000D02*
X13019400Y-13208000D01*
X12979400Y-13422000D02*
X12979400Y-13502000D01*
X12939400Y-13462000D02*
X13019400Y-13462000D01*
X13098400Y-8138800D02*
X13098400Y-8218800D01*
X13058400Y-8178800D02*
X13138400Y-8178800D01*
X13233400Y-11136000D02*
X13233400Y-11216000D01*
X13193400Y-11176000D02*
X13273400Y-11176000D01*
X13233400Y-11390000D02*
X13233400Y-11470000D01*
X13193400Y-11430000D02*
X13273400Y-11430000D01*
X13233400Y-11644000D02*
X13233400Y-11724000D01*
X13193400Y-11684000D02*
X13273400Y-11684000D01*
X13233400Y-11898000D02*
X13233400Y-11978000D01*
X13193400Y-11938000D02*
X13273400Y-11938000D01*
X13233400Y-12152000D02*
X13233400Y-12232000D01*
X13193400Y-12192000D02*
X13273400Y-12192000D01*
X13233400Y-12406000D02*
X13233400Y-12486000D01*
X13193400Y-12446000D02*
X13273400Y-12446000D01*
X13233400Y-12660000D02*
X13233400Y-12740000D01*
X13193400Y-12700000D02*
X13273400Y-12700000D01*
X13233400Y-12914000D02*
X13233400Y-12994000D01*
X13193400Y-12954000D02*
X13273400Y-12954000D01*
X13233400Y-13168000D02*
X13233400Y-13248000D01*
X13193400Y-13208000D02*
X13273400Y-13208000D01*
X13258800Y-8570600D02*
X13258800Y-8650600D01*
X13218800Y-8610600D02*
X13298800Y-8610600D01*
X13258800Y-8824600D02*
X13258800Y-8904600D01*
X13218800Y-8864600D02*
X13298800Y-8864600D01*
X13258800Y-9078600D02*
X13258800Y-9158600D01*
X13218800Y-9118600D02*
X13298800Y-9118600D01*
X13258800Y-9332600D02*
X13258800Y-9412600D01*
X13218800Y-9372600D02*
X13298800Y-9372600D01*
X13258800Y-9586600D02*
X13258800Y-9666600D01*
X13218800Y-9626600D02*
X13298800Y-9626600D01*
X13258800Y-9840600D02*
X13258800Y-9920600D01*
X13218800Y-9880600D02*
X13298800Y-9880600D01*
X13258800Y-10094600D02*
X13258800Y-10174600D01*
X13218800Y-10134600D02*
X13298800Y-10134600D01*
X13868400Y-8138800D02*
X13868400Y-8218800D01*
X13828400Y-8178800D02*
X13908400Y-8178800D01*
X13868400Y-9154800D02*
X13868400Y-9234800D01*
X13828400Y-9194800D02*
X13908400Y-9194800D01*
X13868400Y-13117200D02*
X13868400Y-13197200D01*
X13828400Y-13157200D02*
X13908400Y-13157200D01*
X13868400Y-13617200D02*
X13868400Y-13697200D01*
X13828400Y-13657200D02*
X13908400Y-13657200D01*
X14249400Y-10229600D02*
X14249400Y-10309600D01*
X14209400Y-10269600D02*
X14289400Y-10269600D01*
X14249400Y-10729600D02*
X14249400Y-10809600D01*
X14209400Y-10769600D02*
X14289400Y-10769600D01*
X14249400Y-12160000D02*
X14249400Y-12240000D01*
X14209400Y-12200000D02*
X14289400Y-12200000D01*
X14249400Y-12660000D02*
X14249400Y-12740000D01*
X14209400Y-12700000D02*
X14289400Y-12700000D01*
X14325600Y-8138800D02*
X14325600Y-8218800D01*
X14285600Y-8178800D02*
X14365600Y-8178800D01*
X14325600Y-9154800D02*
X14325600Y-9234800D01*
X14285600Y-9194800D02*
X14365600Y-9194800D01*
X14757400Y-9713600D02*
X14757400Y-9793600D01*
X14717400Y-9753600D02*
X14797400Y-9753600D01*
X14757400Y-11237600D02*
X14757400Y-11317600D01*
X14717400Y-11277600D02*
X14797400Y-11277600D01*
X14757400Y-12025000D02*
X14757400Y-12105000D01*
X14717400Y-12065000D02*
X14797400Y-12065000D01*
X14757400Y-12787000D02*
X14757400Y-12867000D01*
X14717400Y-12827000D02*
X14797400Y-12827000D01*
X14884400Y-8189600D02*
X14884400Y-8269600D01*
X14844400Y-8229600D02*
X14924400Y-8229600D01*
X14884400Y-8951600D02*
X14884400Y-9031600D01*
X14844400Y-8991600D02*
X14924400Y-8991600D01*
X15011400Y-9713600D02*
X15011400Y-9793600D01*
X14971400Y-9753600D02*
X15051400Y-9753600D01*
X15011400Y-11237600D02*
X15011400Y-11317600D01*
X14971400Y-11277600D02*
X15051400Y-11277600D01*
X15011400Y-12025000D02*
X15011400Y-12105000D01*
X14971400Y-12065000D02*
X15051400Y-12065000D01*
X15011400Y-12787000D02*
X15011400Y-12867000D01*
X14971400Y-12827000D02*
X15051400Y-12827000D01*
X15138400Y-8189600D02*
X15138400Y-8269600D01*
X15098400Y-8229600D02*
X15178400Y-8229600D01*
X15138400Y-8951600D02*
X15138400Y-9031600D01*
X15098400Y-8991600D02*
X15178400Y-8991600D01*
X15265400Y-9713600D02*
X15265400Y-9793600D01*
X15225400Y-9753600D02*
X15305400Y-9753600D01*
X15265400Y-11237600D02*
X15265400Y-11317600D01*
X15225400Y-11277600D02*
X15305400Y-11277600D01*
X15265400Y-12025000D02*
X15265400Y-12105000D01*
X15225400Y-12065000D02*
X15305400Y-12065000D01*
X15265400Y-12787000D02*
X15265400Y-12867000D01*
X15225400Y-12827000D02*
X15305400Y-12827000D01*
X15392400Y-8189600D02*
X15392400Y-8269600D01*
X15352400Y-8229600D02*
X15432400Y-8229600D01*
X15392400Y-8951600D02*
X15392400Y-9031600D01*
X15352400Y-8991600D02*
X15432400Y-8991600D01*
X15519400Y-9713600D02*
X15519400Y-9793600D01*
X15479400Y-9753600D02*
X15559400Y-9753600D01*
X15519400Y-11237600D02*
X15519400Y-11317600D01*
X15479400Y-11277600D02*
X15559400Y-11277600D01*
X15519400Y-12025000D02*
X15519400Y-12105000D01*
X15479400Y-12065000D02*
X15559400Y-12065000D01*
X15519400Y-12787000D02*
X15519400Y-12867000D01*
X15479400Y-12827000D02*
X15559400Y-12827000D01*
X15646400Y-8189600D02*
X15646400Y-8269600D01*
X15606400Y-8229600D02*
X15686400Y-8229600D01*
X15646400Y-8951600D02*
X15646400Y-9031600D01*
X15606400Y-8991600D02*
X15686400Y-8991600D01*
X15773400Y-9713600D02*
X15773400Y-9793600D01*
X15733400Y-9753600D02*
X15813400Y-9753600D01*
X15773400Y-11237600D02*
X15773400Y-11317600D01*
X15733400Y-11277600D02*
X15813400Y-11277600D01*
X15773400Y-12025000D02*
X15773400Y-12105000D01*
X15733400Y-12065000D02*
X15813400Y-12065000D01*
X15773400Y-12787000D02*
X15773400Y-12867000D01*
X15733400Y-12827000D02*
X15813400Y-12827000D01*
X16027400Y-9713600D02*
X16027400Y-9793600D01*
X15987400Y-9753600D02*
X16067400Y-9753600D01*
X16027400Y-11237600D02*
X16027400Y-11317600D01*
X15987400Y-11277600D02*
X16067400Y-11277600D01*
X16027400Y-12025000D02*
X16027400Y-12105000D01*
X15987400Y-12065000D02*
X16067400Y-12065000D01*
X16027400Y-12787000D02*
X16027400Y-12867000D01*
X15987400Y-12827000D02*
X16067400Y-12827000D01*
X16281400Y-9713600D02*
X16281400Y-9793600D01*
X16241400Y-9753600D02*
X16321400Y-9753600D01*
X16281400Y-11237600D02*
X16281400Y-11317600D01*
X16241400Y-11277600D02*
X16321400Y-11277600D01*
X16281400Y-12025000D02*
X16281400Y-12105000D01*
X16241400Y-12065000D02*
X16321400Y-12065000D01*
X16281400Y-12787000D02*
X16281400Y-12867000D01*
X16241400Y-12827000D02*
X16321400Y-12827000D01*
X16408400Y-8316600D02*
X16408400Y-8396600D01*
X16368400Y-8356600D02*
X16448400Y-8356600D01*
X16408400Y-8804600D02*
X16408400Y-8884600D01*
X16368400Y-8844600D02*
X16448400Y-8844600D01*
X16408400Y-13531600D02*
X16408400Y-13611600D01*
X16368400Y-13571600D02*
X16448400Y-13571600D01*
X16408400Y-14031600D02*
X16408400Y-14111600D01*
X16368400Y-14071600D02*
X16448400Y-14071600D01*
X16535400Y-9713600D02*
X16535400Y-9793600D01*
X16495400Y-9753600D02*
X16575400Y-9753600D01*
X16535400Y-11237600D02*
X16535400Y-11317600D01*
X16495400Y-11277600D02*
X16575400Y-11277600D01*
X16535400Y-12025000D02*
X16535400Y-12105000D01*
X16495400Y-12065000D02*
X16575400Y-12065000D01*
X16535400Y-12787000D02*
X16535400Y-12867000D01*
X16495400Y-12827000D02*
X16575400Y-12827000D01*
X16789400Y-9713600D02*
X16789400Y-9793600D01*
X16749400Y-9753600D02*
X16829400Y-9753600D01*
X16789400Y-11237600D02*
X16789400Y-11317600D01*
X16749400Y-11277600D02*
X16829400Y-11277600D01*
X16789400Y-12025000D02*
X16789400Y-12105000D01*
X16749400Y-12065000D02*
X16829400Y-12065000D01*
X16789400Y-12787000D02*
X16789400Y-12867000D01*
X16749400Y-12827000D02*
X16829400Y-12827000D01*
X16840200Y-13396600D02*
X16840200Y-13476600D01*
X16800200Y-13436600D02*
X16880200Y-13436600D01*
X16840200Y-14158600D02*
X16840200Y-14238600D01*
X16800200Y-14198600D02*
X16880200Y-14198600D01*
X17043400Y-9713600D02*
X17043400Y-9793600D01*
X17003400Y-9753600D02*
X17083400Y-9753600D01*
X17043400Y-11237600D02*
X17043400Y-11317600D01*
X17003400Y-11277600D02*
X17083400Y-11277600D01*
X17043400Y-12025000D02*
X17043400Y-12105000D01*
X17003400Y-12065000D02*
X17083400Y-12065000D01*
X17043400Y-12787000D02*
X17043400Y-12867000D01*
X17003400Y-12827000D02*
X17083400Y-12827000D01*
X17094200Y-13396600D02*
X17094200Y-13476600D01*
X17054200Y-13436600D02*
X17134200Y-13436600D01*
X17094200Y-14158600D02*
X17094200Y-14238600D01*
X17054200Y-14198600D02*
X17134200Y-14198600D01*
X17170400Y-8189600D02*
X17170400Y-8269600D01*
X17130400Y-8229600D02*
X17210400Y-8229600D01*
X17170400Y-8951600D02*
X17170400Y-9031600D01*
X17130400Y-8991600D02*
X17210400Y-8991600D01*
X17297400Y-9713600D02*
X17297400Y-9793600D01*
X17257400Y-9753600D02*
X17337400Y-9753600D01*
X17297400Y-11237600D02*
X17297400Y-11317600D01*
X17257400Y-11277600D02*
X17337400Y-11277600D01*
X17348200Y-13396600D02*
X17348200Y-13476600D01*
X17308200Y-13436600D02*
X17388200Y-13436600D01*
X17348200Y-14158600D02*
X17348200Y-14238600D01*
X17308200Y-14198600D02*
X17388200Y-14198600D01*
X17424400Y-8189600D02*
X17424400Y-8269600D01*
X17384400Y-8229600D02*
X17464400Y-8229600D01*
X17424400Y-8951600D02*
X17424400Y-9031600D01*
X17384400Y-8991600D02*
X17464400Y-8991600D01*
X17551400Y-9713600D02*
X17551400Y-9793600D01*
X17511400Y-9753600D02*
X17591400Y-9753600D01*
X17551400Y-11237600D02*
X17551400Y-11317600D01*
X17511400Y-11277600D02*
X17591400Y-11277600D01*
X17602200Y-13396600D02*
X17602200Y-13476600D01*
X17562200Y-13436600D02*
X17642200Y-13436600D01*
X17602200Y-14158600D02*
X17602200Y-14238600D01*
X17562200Y-14198600D02*
X17642200Y-14198600D01*
X17678400Y-8189600D02*
X17678400Y-8269600D01*
X17638400Y-8229600D02*
X17718400Y-8229600D01*
X17678400Y-8951600D02*
X17678400Y-9031600D01*
X17638400Y-8991600D02*
X17718400Y-8991600D01*
X17805400Y-9713600D02*
X17805400Y-9793600D01*
X17765400Y-9753600D02*
X17845400Y-9753600D01*
X17805400Y-11237600D02*
X17805400Y-11317600D01*
X17765400Y-11277600D02*
X17845400Y-11277600D01*
X17856200Y-13396600D02*
X17856200Y-13476600D01*
X17816200Y-13436600D02*
X17896200Y-13436600D01*
X17856200Y-14158600D02*
X17856200Y-14238600D01*
X17816200Y-14198600D02*
X17896200Y-14198600D01*
X17932400Y-8189600D02*
X17932400Y-8269600D01*
X17892400Y-8229600D02*
X17972400Y-8229600D01*
X17932400Y-8951600D02*
X17932400Y-9031600D01*
X17892400Y-8991600D02*
X17972400Y-8991600D01*
X18059400Y-9713600D02*
X18059400Y-9793600D01*
X18019400Y-9753600D02*
X18099400Y-9753600D01*
X18059400Y-11237600D02*
X18059400Y-11317600D01*
X18019400Y-11277600D02*
X18099400Y-11277600D01*
X18110200Y-13396600D02*
X18110200Y-13476600D01*
X18070200Y-13436600D02*
X18150200Y-13436600D01*
X18110200Y-14158600D02*
X18110200Y-14238600D01*
X18070200Y-14198600D02*
X18150200Y-14198600D01*
X18186400Y-8189600D02*
X18186400Y-8269600D01*
X18146400Y-8229600D02*
X18226400Y-8229600D01*
X18186400Y-8951600D02*
X18186400Y-9031600D01*
X18146400Y-8991600D02*
X18226400Y-8991600D01*
X18186400Y-12507600D02*
X18186400Y-12587600D01*
X18146400Y-12547600D02*
X18226400Y-12547600D01*
X18186400Y-12707600D02*
X18186400Y-12787600D01*
X18146400Y-12747600D02*
X18226400Y-12747600D01*
X18313400Y-9713600D02*
X18313400Y-9793600D01*
X18273400Y-9753600D02*
X18353400Y-9753600D01*
X18313400Y-11237600D02*
X18313400Y-11317600D01*
X18273400Y-11277600D02*
X18353400Y-11277600D01*
X18364200Y-13396600D02*
X18364200Y-13476600D01*
X18324200Y-13436600D02*
X18404200Y-13436600D01*
X18364200Y-14158600D02*
X18364200Y-14238600D01*
X18324200Y-14198600D02*
X18404200Y-14198600D01*
X18440400Y-8189600D02*
X18440400Y-8269600D01*
X18400400Y-8229600D02*
X18480400Y-8229600D01*
X18440400Y-8951600D02*
X18440400Y-9031600D01*
X18400400Y-8991600D02*
X18480400Y-8991600D01*
X18567400Y-9713600D02*
X18567400Y-9793600D01*
X18527400Y-9753600D02*
X18607400Y-9753600D01*
X18567400Y-11237600D02*
X18567400Y-11317600D01*
X18527400Y-11277600D02*
X18607400Y-11277600D01*
X18694400Y-8189600D02*
X18694400Y-8269600D01*
X18654400Y-8229600D02*
X18734400Y-8229600D01*
X18694400Y-8951600D02*
X18694400Y-9031600D01*
X18654400Y-8991600D02*
X18734400Y-8991600D01*
X18821400Y-9713600D02*
X18821400Y-9793600D01*
X18781400Y-9753600D02*
X18861400Y-9753600D01*
X18821400Y-11237600D02*
X18821400Y-11317600D01*
X18781400Y-11277600D02*
X18861400Y-11277600D01*
X18948400Y-8189600D02*
X18948400Y-8269600D01*
X18908400Y-8229600D02*
X18988400Y-8229600D01*
X18948400Y-8951600D02*
X18948400Y-9031600D01*
X18908400Y-8991600D02*
X18988400Y-8991600D01*
X19075400Y-9713600D02*
X19075400Y-9793600D01*
X19035400Y-9753600D02*
X19115400Y-9753600D01*
X19075400Y-11237600D02*
X19075400Y-11317600D01*
X19035400Y-11277600D02*
X19115400Y-11277600D01*
X19202400Y-8189600D02*
X19202400Y-8269600D01*
X19162400Y-8229600D02*
X19242400Y-8229600D01*
X19202400Y-8951600D02*
X19202400Y-9031600D01*
X19162400Y-8991600D02*
X19242400Y-8991600D01*
X19210400Y-12406000D02*
X19210400Y-12486000D01*
X19170400Y-12446000D02*
X19250400Y-12446000D01*
X19329400Y-9713600D02*
X19329400Y-9793600D01*
X19289400Y-9753600D02*
X19369400Y-9753600D01*
X19329400Y-11237600D02*
X19329400Y-11317600D01*
X19289400Y-11277600D02*
X19369400Y-11277600D01*
X19456400Y-8189600D02*
X19456400Y-8269600D01*
X19416400Y-8229600D02*
X19496400Y-8229600D01*
X19456400Y-8951600D02*
X19456400Y-9031600D01*
X19416400Y-8991600D02*
X19496400Y-8991600D01*
X19583400Y-9713600D02*
X19583400Y-9793600D01*
X19543400Y-9753600D02*
X19623400Y-9753600D01*
X19583400Y-11237600D02*
X19583400Y-11317600D01*
X19543400Y-11277600D02*
X19623400Y-11277600D01*
X19710400Y-12406000D02*
X19710400Y-12486000D01*
X19670400Y-12446000D02*
X19750400Y-12446000D01*
X19845400Y-8443600D02*
X19845400Y-8523600D01*
X19805400Y-8483600D02*
X19885400Y-8483600D01*
X20218400Y-8951600D02*
X20218400Y-9031600D01*
X20178400Y-8991600D02*
X20258400Y-8991600D01*
X20218400Y-9332600D02*
X20218400Y-9412600D01*
X20178400Y-9372600D02*
X20258400Y-9372600D01*
X20218400Y-9713600D02*
X20218400Y-9793600D01*
X20178400Y-9753600D02*
X20258400Y-9753600D01*
X20218400Y-10094600D02*
X20218400Y-10174600D01*
X20178400Y-10134600D02*
X20258400Y-10134600D01*
X20218400Y-10475600D02*
X20218400Y-10555600D01*
X20178400Y-10515600D02*
X20258400Y-10515600D01*
X20218400Y-10856600D02*
X20218400Y-10936600D01*
X20178400Y-10896600D02*
X20258400Y-10896600D01*
X20218400Y-11237600D02*
X20218400Y-11317600D01*
X20178400Y-11277600D02*
X20258400Y-11277600D01*
X20218400Y-11618600D02*
X20218400Y-11698600D01*
X20178400Y-11658600D02*
X20258400Y-11658600D01*
X20218400Y-11999600D02*
X20218400Y-12079600D01*
X20178400Y-12039600D02*
X20258400Y-12039600D01*
X20345400Y-8443600D02*
X20345400Y-8523600D01*
X20305400Y-8483600D02*
X20385400Y-8483600D01*
X20726400Y-12507600D02*
X20726400Y-12587600D01*
X20686400Y-12547600D02*
X20766400Y-12547600D01*
X20726400Y-12914000D02*
X20726400Y-12994000D01*
X20686400Y-12954000D02*
X20766400Y-12954000D01*
X21234400Y-8951600D02*
X21234400Y-9031600D01*
X21194400Y-8991600D02*
X21274400Y-8991600D01*
X21234400Y-9332600D02*
X21234400Y-9412600D01*
X21194400Y-9372600D02*
X21274400Y-9372600D01*
X21234400Y-9713600D02*
X21234400Y-9793600D01*
X21194400Y-9753600D02*
X21274400Y-9753600D01*
X21234400Y-10094600D02*
X21234400Y-10174600D01*
X21194400Y-10134600D02*
X21274400Y-10134600D01*
X21234400Y-10475600D02*
X21234400Y-10555600D01*
X21194400Y-10515600D02*
X21274400Y-10515600D01*
X21234400Y-10856600D02*
X21234400Y-10936600D01*
X21194400Y-10896600D02*
X21274400Y-10896600D01*
X21234400Y-11237600D02*
X21234400Y-11317600D01*
X21194400Y-11277600D02*
X21274400Y-11277600D01*
X21234400Y-11618600D02*
X21234400Y-11698600D01*
X21194400Y-11658600D02*
X21274400Y-11658600D01*
X21234400Y-11999600D02*
X21234400Y-12079600D01*
X21194400Y-12039600D02*
X21274400Y-12039600D01*
X21234400Y-13523600D02*
X21234400Y-13603600D01*
X21194400Y-13563600D02*
X21274400Y-13563600D01*
X21734400Y-13523600D02*
X21734400Y-13603600D01*
X21694400Y-13563600D02*
X21774400Y-13563600D01*
X21742400Y-12507600D02*
X21742400Y-12587600D01*
X21702400Y-12547600D02*
X21782400Y-12547600D01*
X21742400Y-12914000D02*
X21742400Y-12994000D01*
X21702400Y-12954000D02*
X21782400Y-12954000D01*
D15*
X11770156Y-14564156D02*
X11770156Y-14493444D01*
X11699444Y-14493444D01*
X11699444Y-14564156D01*
X11770156Y-14564156D01*
X11770156Y-14818156D02*
X11770156Y-14747444D01*
X11699444Y-14747444D01*
X11699444Y-14818156D01*
X11770156Y-14818156D01*
X12024156Y-14564156D02*
X12024156Y-14493444D01*
X11953444Y-14493444D01*
X11953444Y-14564156D01*
X12024156Y-14564156D01*
X12024156Y-14818156D02*
X12024156Y-14747444D01*
X11953444Y-14747444D01*
X11953444Y-14818156D01*
X12024156Y-14818156D01*
X12278156Y-14564156D02*
X12278156Y-14493444D01*
X12207444Y-14493444D01*
X12207444Y-14564156D01*
X12278156Y-14564156D01*
X12278156Y-14818156D02*
X12278156Y-14747444D01*
X12207444Y-14747444D01*
X12207444Y-14818156D01*
X12278156Y-14818156D01*
X12532156Y-14564156D02*
X12532156Y-14493444D01*
X12461444Y-14493444D01*
X12461444Y-14564156D01*
X12532156Y-14564156D01*
X12532156Y-14818156D02*
X12532156Y-14747444D01*
X12461444Y-14747444D01*
X12461444Y-14818156D01*
X12532156Y-14818156D01*
X12786156Y-14564156D02*
X12786156Y-14493444D01*
X12715444Y-14493444D01*
X12715444Y-14564156D01*
X12786156Y-14564156D01*
X12786156Y-14818156D02*
X12786156Y-14747444D01*
X12715444Y-14747444D01*
X12715444Y-14818156D01*
X12786156Y-14818156D01*
X13040156Y-14564156D02*
X13040156Y-14493444D01*
X12969444Y-14493444D01*
X12969444Y-14564156D01*
X13040156Y-14564156D01*
X13040156Y-14818156D02*
X13040156Y-14747444D01*
X12969444Y-14747444D01*
X12969444Y-14818156D01*
X13040156Y-14818156D01*
X13294156Y-14564156D02*
X13294156Y-14493444D01*
X13223444Y-14493444D01*
X13223444Y-14564156D01*
X13294156Y-14564156D01*
X13294156Y-14818156D02*
X13294156Y-14747444D01*
X13223444Y-14747444D01*
X13223444Y-14818156D01*
X13294156Y-14818156D01*
X13548156Y-14564156D02*
X13548156Y-14493444D01*
X13477444Y-14493444D01*
X13477444Y-14564156D01*
X13548156Y-14564156D01*
X13548156Y-14818156D02*
X13548156Y-14747444D01*
X13477444Y-14747444D01*
X13477444Y-14818156D01*
X13548156Y-14818156D01*
X13802156Y-14564156D02*
X13802156Y-14493444D01*
X13731444Y-14493444D01*
X13731444Y-14564156D01*
X13802156Y-14564156D01*
X13802156Y-14818156D02*
X13802156Y-14747444D01*
X13731444Y-14747444D01*
X13731444Y-14818156D01*
X13802156Y-14818156D01*
X14056156Y-14564156D02*
X14056156Y-14493444D01*
X13985444Y-14493444D01*
X13985444Y-14564156D01*
X14056156Y-14564156D01*
X14056156Y-14818156D02*
X14056156Y-14747444D01*
X13985444Y-14747444D01*
X13985444Y-14818156D01*
X14056156Y-14818156D01*
X14310156Y-14564156D02*
X14310156Y-14493444D01*
X14239444Y-14493444D01*
X14239444Y-14564156D01*
X14310156Y-14564156D01*
X14310156Y-14818156D02*
X14310156Y-14747444D01*
X14239444Y-14747444D01*
X14239444Y-14818156D01*
X14310156Y-14818156D01*
X14564156Y-14564156D02*
X14564156Y-14493444D01*
X14493444Y-14493444D01*
X14493444Y-14564156D01*
X14564156Y-14564156D01*
X14564156Y-14818156D02*
X14564156Y-14747444D01*
X14493444Y-14747444D01*
X14493444Y-14818156D01*
X14564156Y-14818156D01*
X14818156Y-14564156D02*
X14818156Y-14493444D01*
X14747444Y-14493444D01*
X14747444Y-14564156D01*
X14818156Y-14564156D01*
X14818156Y-14818156D02*
X14818156Y-14747444D01*
X14747444Y-14747444D01*
X14747444Y-14818156D01*
X14818156Y-14818156D01*
X15072156Y-14564156D02*
X15072156Y-14493444D01*
X15001444Y-14493444D01*
X15001444Y-14564156D01*
X15072156Y-14564156D01*
X15072156Y-14818156D02*
X15072156Y-14747444D01*
X15001444Y-14747444D01*
X15001444Y-14818156D01*
X15072156Y-14818156D01*
X15326156Y-14564156D02*
X15326156Y-14493444D01*
X15255444Y-14493444D01*
X15255444Y-14564156D01*
X15326156Y-14564156D01*
X15326156Y-14818156D02*
X15326156Y-14747444D01*
X15255444Y-14747444D01*
X15255444Y-14818156D01*
X15326156Y-14818156D01*
X15580156Y-14564156D02*
X15580156Y-14493444D01*
X15509444Y-14493444D01*
X15509444Y-14564156D01*
X15580156Y-14564156D01*
X15580156Y-14818156D02*
X15580156Y-14747444D01*
X15509444Y-14747444D01*
X15509444Y-14818156D01*
X15580156Y-14818156D01*
X21904756Y-10195356D02*
X21904756Y-10124644D01*
X21834044Y-10124644D01*
X21834044Y-10195356D01*
X21904756Y-10195356D01*
X21904756Y-10424356D02*
X21904756Y-10353644D01*
X21834044Y-10353644D01*
X21834044Y-10424356D01*
X21904756Y-10424356D01*
X21904756Y-10653356D02*
X21904756Y-10582644D01*
X21834044Y-10582644D01*
X21834044Y-10653356D01*
X21904756Y-10653356D01*
X21904756Y-10882356D02*
X21904756Y-10811644D01*
X21834044Y-10811644D01*
X21834044Y-10882356D01*
X21904756Y-10882356D01*
X21904756Y-11111356D02*
X21904756Y-11040644D01*
X21834044Y-11040644D01*
X21834044Y-11111356D01*
X21904756Y-11111356D01*
X22102756Y-10080856D02*
X22102756Y-10010144D01*
X22032044Y-10010144D01*
X22032044Y-10080856D01*
X22102756Y-10080856D01*
X22102756Y-10309856D02*
X22102756Y-10239144D01*
X22032044Y-10239144D01*
X22032044Y-10309856D01*
X22102756Y-10309856D01*
X22102756Y-10538856D02*
X22102756Y-10468144D01*
X22032044Y-10468144D01*
X22032044Y-10538856D01*
X22102756Y-10538856D01*
X22102756Y-10767856D02*
X22102756Y-10697144D01*
X22032044Y-10697144D01*
X22032044Y-10767856D01*
X22102756Y-10767856D01*
X22102756Y-10996856D02*
X22102756Y-10926144D01*
X22032044Y-10926144D01*
X22032044Y-10996856D01*
X22102756Y-10996856D01*
X22300756Y-10195356D02*
X22300756Y-10124644D01*
X22230044Y-10124644D01*
X22230044Y-10195356D01*
X22300756Y-10195356D01*
X22300756Y-10424356D02*
X22300756Y-10353644D01*
X22230044Y-10353644D01*
X22230044Y-10424356D01*
X22300756Y-10424356D01*
X22300756Y-10653356D02*
X22300756Y-10582644D01*
X22230044Y-10582644D01*
X22230044Y-10653356D01*
X22300756Y-10653356D01*
X22300756Y-10882356D02*
X22300756Y-10811644D01*
X22230044Y-10811644D01*
X22230044Y-10882356D01*
X22300756Y-10882356D01*
X22300756Y-11111356D02*
X22300756Y-11040644D01*
X22230044Y-11040644D01*
X22230044Y-11111356D01*
X22300756Y-11111356D01*
X22539756Y-12913156D02*
X22539756Y-12842444D01*
X22469044Y-12842444D01*
X22469044Y-12913156D01*
X22539756Y-12913156D01*
X22539756Y-13167156D02*
X22539756Y-13096444D01*
X22469044Y-13096444D01*
X22469044Y-13167156D01*
X22539756Y-13167156D01*
X22539756Y-13421156D02*
X22539756Y-13350444D01*
X22469044Y-13350444D01*
X22469044Y-13421156D01*
X22539756Y-13421156D01*
X22539756Y-13675156D02*
X22539756Y-13604444D01*
X22469044Y-13604444D01*
X22469044Y-13675156D01*
X22539756Y-13675156D01*
D16*
X19202400Y-13110600D02*
X19257400Y-13055600D01*
X19202400Y-13000600D01*
X19147400Y-13055600D01*
X19202400Y-13110600D01*
X19456400Y-13110600D02*
X19511400Y-13055600D01*
X19456400Y-13000600D01*
X19401400Y-13055600D01*
X19456400Y-13110600D01*
X19710400Y-13110600D02*
X19765400Y-13055600D01*
X19710400Y-13000600D01*
X19655400Y-13055600D01*
X19710400Y-13110600D01*
X20612100Y-14406000D02*
X20667100Y-14351000D01*
X20612100Y-14296000D01*
X20557100Y-14351000D01*
X20612100Y-14406000D01*
X20612100Y-14856000D02*
X20667100Y-14801000D01*
X20612100Y-14746000D01*
X20557100Y-14801000D01*
X20612100Y-14856000D01*
X21262100Y-14406000D02*
X21317100Y-14351000D01*
X21262100Y-14296000D01*
X21207100Y-14351000D01*
X21262100Y-14406000D01*
X21262100Y-14856000D02*
X21317100Y-14801000D01*
X21262100Y-14746000D01*
X21207100Y-14801000D01*
X21262100Y-14856000D01*
D17*
X10406400Y-8069600D02*
X10726400Y-8389600D01*
X10726400Y-8069600D02*
X10406400Y-8389600D01*
X10726400Y-8229600D02*
G75*
G03*
X10726400Y-8229600I-160000J0D01*
G01*
X10420400Y-14673600D02*
X10740400Y-14993600D01*
X10740400Y-14673600D02*
X10420400Y-14993600D01*
X10740400Y-14833600D02*
G75*
G03*
X10740400Y-14833600I-160000J0D01*
G01*
X21851400Y-9181500D02*
X22171400Y-9501500D01*
X22171400Y-9181500D02*
X21851400Y-9501500D01*
X22171400Y-9341500D02*
G75*
G03*
X22171400Y-9341500I-160000J0D01*
G01*
X21851400Y-11681500D02*
X22171400Y-12001500D01*
X22171400Y-11681500D02*
X21851400Y-12001500D01*
X22171400Y-11841500D02*
G75*
G03*
X22171400Y-11841500I-160000J0D01*
G01*
X22598400Y-8069600D02*
X22918400Y-8389600D01*
X22918400Y-8069600D02*
X22598400Y-8389600D01*
X22918400Y-8229600D02*
G75*
G03*
X22918400Y-8229600I-160000J0D01*
G01*
X22598400Y-14673600D02*
X22918400Y-14993600D01*
X22918400Y-14673600D02*
X22598400Y-14993600D01*
X22918400Y-14833600D02*
G75*
G03*
X22918400Y-14833600I-160000J0D01*
G01*
D11*
X10443052Y-15525209D02*
X10443052Y-15325209D01*
X10490671Y-15325209D01*
X10519242Y-15334733D01*
X10538290Y-15353780D01*
X10547814Y-15372828D01*
X10557337Y-15410923D01*
X10557337Y-15439495D01*
X10547814Y-15477590D01*
X10538290Y-15496637D01*
X10519242Y-15515685D01*
X10490671Y-15525209D01*
X10443052Y-15525209D01*
X10643052Y-15525209D02*
X10643052Y-15391875D01*
X10643052Y-15429971D02*
X10652576Y-15410923D01*
X10662099Y-15401399D01*
X10681147Y-15391875D01*
X10700195Y-15391875D01*
X10766861Y-15525209D02*
X10766861Y-15391875D01*
X10766861Y-15325209D02*
X10757337Y-15334733D01*
X10766861Y-15344256D01*
X10776385Y-15334733D01*
X10766861Y-15325209D01*
X10766861Y-15344256D01*
X10890671Y-15525209D02*
X10871623Y-15515685D01*
X10862099Y-15496637D01*
X10862099Y-15325209D01*
X10995433Y-15525209D02*
X10976385Y-15515685D01*
X10966861Y-15496637D01*
X10966861Y-15325209D01*
X11224004Y-15525209D02*
X11224004Y-15325209D01*
X11290671Y-15468066D01*
X11357337Y-15325209D01*
X11357337Y-15525209D01*
X11538290Y-15525209D02*
X11538290Y-15420447D01*
X11528766Y-15401399D01*
X11509718Y-15391875D01*
X11471623Y-15391875D01*
X11452575Y-15401399D01*
X11538290Y-15515685D02*
X11519242Y-15525209D01*
X11471623Y-15525209D01*
X11452575Y-15515685D01*
X11443052Y-15496637D01*
X11443052Y-15477590D01*
X11452575Y-15458542D01*
X11471623Y-15449018D01*
X11519242Y-15449018D01*
X11538290Y-15439495D01*
X11633528Y-15391875D02*
X11633528Y-15591875D01*
X11633528Y-15401399D02*
X11652575Y-15391875D01*
X11690671Y-15391875D01*
X11709718Y-15401399D01*
X11719242Y-15410923D01*
X11728766Y-15429971D01*
X11728766Y-15487114D01*
X11719242Y-15506161D01*
X11709718Y-15515685D01*
X11690671Y-15525209D01*
X11652575Y-15525209D01*
X11633528Y-15515685D01*
X11814480Y-15506161D02*
X11824004Y-15515685D01*
X11814480Y-15525209D01*
X11804956Y-15515685D01*
X11814480Y-15506161D01*
X11814480Y-15525209D01*
X11814480Y-15401399D02*
X11824004Y-15410923D01*
X11814480Y-15420447D01*
X11804956Y-15410923D01*
X11814480Y-15401399D01*
X11814480Y-15420447D01*
D12*
X10135433Y-15829733D02*
X10185433Y-15879733D01*
X10185433Y-15829733D02*
X10135433Y-15879733D01*
D11*
X10481147Y-15745209D02*
X10500195Y-15745209D01*
X10519242Y-15754733D01*
X10528766Y-15764256D01*
X10538290Y-15783304D01*
X10547814Y-15821399D01*
X10547814Y-15869018D01*
X10538290Y-15907114D01*
X10528766Y-15926161D01*
X10519242Y-15935685D01*
X10500195Y-15945209D01*
X10481147Y-15945209D01*
X10462099Y-15935685D01*
X10452576Y-15926161D01*
X10443052Y-15907114D01*
X10433528Y-15869018D01*
X10433528Y-15821399D01*
X10443052Y-15783304D01*
X10452576Y-15764256D01*
X10462099Y-15754733D01*
X10481147Y-15745209D01*
X10633528Y-15926161D02*
X10643052Y-15935685D01*
X10633528Y-15945209D01*
X10624004Y-15935685D01*
X10633528Y-15926161D01*
X10633528Y-15945209D01*
X10824004Y-15745209D02*
X10728766Y-15745209D01*
X10719242Y-15840447D01*
X10728766Y-15830923D01*
X10747814Y-15821399D01*
X10795433Y-15821399D01*
X10814480Y-15830923D01*
X10824004Y-15840447D01*
X10833528Y-15859495D01*
X10833528Y-15907114D01*
X10824004Y-15926161D01*
X10814480Y-15935685D01*
X10795433Y-15945209D01*
X10747814Y-15945209D01*
X10728766Y-15935685D01*
X10719242Y-15926161D01*
X10957337Y-15745209D02*
X10976385Y-15745209D01*
X10995433Y-15754733D01*
X11004957Y-15764256D01*
X11014480Y-15783304D01*
X11024004Y-15821399D01*
X11024004Y-15869018D01*
X11014480Y-15907114D01*
X11004957Y-15926161D01*
X10995433Y-15935685D01*
X10976385Y-15945209D01*
X10957337Y-15945209D01*
X10938290Y-15935685D01*
X10928766Y-15926161D01*
X10919242Y-15907114D01*
X10909718Y-15869018D01*
X10909718Y-15821399D01*
X10919242Y-15783304D01*
X10928766Y-15764256D01*
X10938290Y-15754733D01*
X10957337Y-15745209D01*
X11147814Y-15745209D02*
X11166861Y-15745209D01*
X11185909Y-15754733D01*
X11195433Y-15764256D01*
X11204956Y-15783304D01*
X11214480Y-15821399D01*
X11214480Y-15869018D01*
X11204956Y-15907114D01*
X11195433Y-15926161D01*
X11185909Y-15935685D01*
X11166861Y-15945209D01*
X11147814Y-15945209D01*
X11128766Y-15935685D01*
X11119242Y-15926161D01*
X11109718Y-15907114D01*
X11100195Y-15869018D01*
X11100195Y-15821399D01*
X11109718Y-15783304D01*
X11119242Y-15764256D01*
X11128766Y-15754733D01*
X11147814Y-15745209D01*
X11300195Y-15945209D02*
X11300195Y-15811875D01*
X11300195Y-15830923D02*
X11309718Y-15821399D01*
X11328766Y-15811875D01*
X11357337Y-15811875D01*
X11376385Y-15821399D01*
X11385909Y-15840447D01*
X11385909Y-15945209D01*
X11385909Y-15840447D02*
X11395433Y-15821399D01*
X11414480Y-15811875D01*
X11443052Y-15811875D01*
X11462099Y-15821399D01*
X11471623Y-15840447D01*
X11471623Y-15945209D01*
X11566861Y-15945209D02*
X11566861Y-15811875D01*
X11566861Y-15830923D02*
X11576385Y-15821399D01*
X11595433Y-15811875D01*
X11624004Y-15811875D01*
X11643052Y-15821399D01*
X11652575Y-15840447D01*
X11652575Y-15945209D01*
X11652575Y-15840447D02*
X11662099Y-15821399D01*
X11681147Y-15811875D01*
X11709718Y-15811875D01*
X11728766Y-15821399D01*
X11738290Y-15840447D01*
X11738290Y-15945209D01*
X12128766Y-15735685D02*
X11957337Y-15992828D01*
X12385909Y-15745209D02*
X12404956Y-15745209D01*
X12424004Y-15754733D01*
X12433528Y-15764256D01*
X12443052Y-15783304D01*
X12452575Y-15821399D01*
X12452575Y-15869018D01*
X12443052Y-15907114D01*
X12433528Y-15926161D01*
X12424004Y-15935685D01*
X12404956Y-15945209D01*
X12385909Y-15945209D01*
X12366861Y-15935685D01*
X12357337Y-15926161D01*
X12347814Y-15907114D01*
X12338290Y-15869018D01*
X12338290Y-15821399D01*
X12347814Y-15783304D01*
X12357337Y-15764256D01*
X12366861Y-15754733D01*
X12385909Y-15745209D01*
X12538290Y-15926161D02*
X12547814Y-15935685D01*
X12538290Y-15945209D01*
X12528766Y-15935685D01*
X12538290Y-15926161D01*
X12538290Y-15945209D01*
X12671623Y-15745209D02*
X12690671Y-15745209D01*
X12709718Y-15754733D01*
X12719242Y-15764256D01*
X12728766Y-15783304D01*
X12738290Y-15821399D01*
X12738290Y-15869018D01*
X12728766Y-15907114D01*
X12719242Y-15926161D01*
X12709718Y-15935685D01*
X12690671Y-15945209D01*
X12671623Y-15945209D01*
X12652575Y-15935685D01*
X12643052Y-15926161D01*
X12633528Y-15907114D01*
X12624004Y-15869018D01*
X12624004Y-15821399D01*
X12633528Y-15783304D01*
X12643052Y-15764256D01*
X12652575Y-15754733D01*
X12671623Y-15745209D01*
X12928766Y-15945209D02*
X12814480Y-15945209D01*
X12871623Y-15945209D02*
X12871623Y-15745209D01*
X12852575Y-15773780D01*
X12833528Y-15792828D01*
X12814480Y-15802352D01*
X13024004Y-15945209D02*
X13062099Y-15945209D01*
X13081147Y-15935685D01*
X13090671Y-15926161D01*
X13109718Y-15897590D01*
X13119242Y-15859495D01*
X13119242Y-15783304D01*
X13109718Y-15764256D01*
X13100195Y-15754733D01*
X13081147Y-15745209D01*
X13043052Y-15745209D01*
X13024004Y-15754733D01*
X13014480Y-15764256D01*
X13004956Y-15783304D01*
X13004956Y-15830923D01*
X13014480Y-15849971D01*
X13024004Y-15859495D01*
X13043052Y-15869018D01*
X13081147Y-15869018D01*
X13100195Y-15859495D01*
X13109718Y-15849971D01*
X13119242Y-15830923D01*
X13185909Y-15745209D02*
X13319242Y-15745209D01*
X13233528Y-15945209D01*
X13385909Y-15745209D02*
X13385909Y-15783304D01*
X13462099Y-15745209D02*
X13462099Y-15783304D01*
X13757337Y-16021399D02*
X13747814Y-16011875D01*
X13728766Y-15983304D01*
X13719242Y-15964256D01*
X13709718Y-15935685D01*
X13700195Y-15888066D01*
X13700195Y-15849971D01*
X13709718Y-15802352D01*
X13719242Y-15773780D01*
X13728766Y-15754733D01*
X13747814Y-15726161D01*
X13757337Y-15716637D01*
X13814480Y-15745209D02*
X13938290Y-15745209D01*
X13871623Y-15821399D01*
X13900195Y-15821399D01*
X13919242Y-15830923D01*
X13928766Y-15840447D01*
X13938290Y-15859495D01*
X13938290Y-15907114D01*
X13928766Y-15926161D01*
X13919242Y-15935685D01*
X13900195Y-15945209D01*
X13843052Y-15945209D01*
X13824004Y-15935685D01*
X13814480Y-15926161D01*
X14014480Y-15764256D02*
X14024004Y-15754733D01*
X14043052Y-15745209D01*
X14090671Y-15745209D01*
X14109718Y-15754733D01*
X14119242Y-15764256D01*
X14128766Y-15783304D01*
X14128766Y-15802352D01*
X14119242Y-15830923D01*
X14004956Y-15945209D01*
X14128766Y-15945209D01*
X14366861Y-15945209D02*
X14366861Y-15745209D01*
X14452575Y-15945209D02*
X14452575Y-15840447D01*
X14443052Y-15821399D01*
X14424004Y-15811875D01*
X14395433Y-15811875D01*
X14376385Y-15821399D01*
X14366861Y-15830923D01*
X14576385Y-15945209D02*
X14557337Y-15935685D01*
X14547814Y-15926161D01*
X14538290Y-15907114D01*
X14538290Y-15849971D01*
X14547814Y-15830923D01*
X14557337Y-15821399D01*
X14576385Y-15811875D01*
X14604956Y-15811875D01*
X14624004Y-15821399D01*
X14633528Y-15830923D01*
X14643052Y-15849971D01*
X14643052Y-15907114D01*
X14633528Y-15926161D01*
X14624004Y-15935685D01*
X14604956Y-15945209D01*
X14576385Y-15945209D01*
X14757337Y-15945209D02*
X14738290Y-15935685D01*
X14728766Y-15916637D01*
X14728766Y-15745209D01*
X14909718Y-15935685D02*
X14890671Y-15945209D01*
X14852575Y-15945209D01*
X14833528Y-15935685D01*
X14824004Y-15916637D01*
X14824004Y-15840447D01*
X14833528Y-15821399D01*
X14852575Y-15811875D01*
X14890671Y-15811875D01*
X14909718Y-15821399D01*
X14919242Y-15840447D01*
X14919242Y-15859495D01*
X14824004Y-15878542D01*
X14995433Y-15935685D02*
X15014480Y-15945209D01*
X15052575Y-15945209D01*
X15071623Y-15935685D01*
X15081147Y-15916637D01*
X15081147Y-15907114D01*
X15071623Y-15888066D01*
X15052575Y-15878542D01*
X15024004Y-15878542D01*
X15004956Y-15869018D01*
X14995433Y-15849971D01*
X14995433Y-15840447D01*
X15004956Y-15821399D01*
X15024004Y-15811875D01*
X15052575Y-15811875D01*
X15071623Y-15821399D01*
X15147814Y-16021399D02*
X15157337Y-16011875D01*
X15176385Y-15983304D01*
X15185909Y-15964256D01*
X15195433Y-15935685D01*
X15204956Y-15888066D01*
X15204956Y-15849971D01*
X15195433Y-15802352D01*
X15185909Y-15773780D01*
X15176385Y-15754733D01*
X15157337Y-15726161D01*
X15147814Y-15716637D01*
D13*
X10185433Y-16118733D02*
G75*
G03*
X10185433Y-16118733I-37500J0D01*
G01*
D11*
X10481147Y-16009209D02*
X10500195Y-16009209D01*
X10519242Y-16018733D01*
X10528766Y-16028256D01*
X10538290Y-16047304D01*
X10547814Y-16085399D01*
X10547814Y-16133018D01*
X10538290Y-16171114D01*
X10528766Y-16190161D01*
X10519242Y-16199685D01*
X10500195Y-16209209D01*
X10481147Y-16209209D01*
X10462099Y-16199685D01*
X10452576Y-16190161D01*
X10443052Y-16171114D01*
X10433528Y-16133018D01*
X10433528Y-16085399D01*
X10443052Y-16047304D01*
X10452576Y-16028256D01*
X10462099Y-16018733D01*
X10481147Y-16009209D01*
X10633528Y-16190161D02*
X10643052Y-16199685D01*
X10633528Y-16209209D01*
X10624004Y-16199685D01*
X10633528Y-16190161D01*
X10633528Y-16209209D01*
X10709718Y-16009209D02*
X10843052Y-16009209D01*
X10757337Y-16209209D01*
X11014480Y-16009209D02*
X10919242Y-16009209D01*
X10909718Y-16104447D01*
X10919242Y-16094923D01*
X10938290Y-16085399D01*
X10985909Y-16085399D01*
X11004957Y-16094923D01*
X11014480Y-16104447D01*
X11024004Y-16123495D01*
X11024004Y-16171114D01*
X11014480Y-16190161D01*
X11004957Y-16199685D01*
X10985909Y-16209209D01*
X10938290Y-16209209D01*
X10919242Y-16199685D01*
X10909718Y-16190161D01*
X11147814Y-16009209D02*
X11166861Y-16009209D01*
X11185909Y-16018733D01*
X11195433Y-16028256D01*
X11204956Y-16047304D01*
X11214480Y-16085399D01*
X11214480Y-16133018D01*
X11204956Y-16171114D01*
X11195433Y-16190161D01*
X11185909Y-16199685D01*
X11166861Y-16209209D01*
X11147814Y-16209209D01*
X11128766Y-16199685D01*
X11119242Y-16190161D01*
X11109718Y-16171114D01*
X11100195Y-16133018D01*
X11100195Y-16085399D01*
X11109718Y-16047304D01*
X11119242Y-16028256D01*
X11128766Y-16018733D01*
X11147814Y-16009209D01*
X11300195Y-16209209D02*
X11300195Y-16075875D01*
X11300195Y-16094923D02*
X11309718Y-16085399D01*
X11328766Y-16075875D01*
X11357337Y-16075875D01*
X11376385Y-16085399D01*
X11385909Y-16104447D01*
X11385909Y-16209209D01*
X11385909Y-16104447D02*
X11395433Y-16085399D01*
X11414480Y-16075875D01*
X11443052Y-16075875D01*
X11462099Y-16085399D01*
X11471623Y-16104447D01*
X11471623Y-16209209D01*
X11566861Y-16209209D02*
X11566861Y-16075875D01*
X11566861Y-16094923D02*
X11576385Y-16085399D01*
X11595433Y-16075875D01*
X11624004Y-16075875D01*
X11643052Y-16085399D01*
X11652575Y-16104447D01*
X11652575Y-16209209D01*
X11652575Y-16104447D02*
X11662099Y-16085399D01*
X11681147Y-16075875D01*
X11709718Y-16075875D01*
X11728766Y-16085399D01*
X11738290Y-16104447D01*
X11738290Y-16209209D01*
X12128766Y-15999685D02*
X11957337Y-16256828D01*
X12385909Y-16009209D02*
X12404956Y-16009209D01*
X12424004Y-16018733D01*
X12433528Y-16028256D01*
X12443052Y-16047304D01*
X12452575Y-16085399D01*
X12452575Y-16133018D01*
X12443052Y-16171114D01*
X12433528Y-16190161D01*
X12424004Y-16199685D01*
X12404956Y-16209209D01*
X12385909Y-16209209D01*
X12366861Y-16199685D01*
X12357337Y-16190161D01*
X12347814Y-16171114D01*
X12338290Y-16133018D01*
X12338290Y-16085399D01*
X12347814Y-16047304D01*
X12357337Y-16028256D01*
X12366861Y-16018733D01*
X12385909Y-16009209D01*
X12538290Y-16190161D02*
X12547814Y-16199685D01*
X12538290Y-16209209D01*
X12528766Y-16199685D01*
X12538290Y-16190161D01*
X12538290Y-16209209D01*
X12671623Y-16009209D02*
X12690671Y-16009209D01*
X12709718Y-16018733D01*
X12719242Y-16028256D01*
X12728766Y-16047304D01*
X12738290Y-16085399D01*
X12738290Y-16133018D01*
X12728766Y-16171114D01*
X12719242Y-16190161D01*
X12709718Y-16199685D01*
X12690671Y-16209209D01*
X12671623Y-16209209D01*
X12652575Y-16199685D01*
X12643052Y-16190161D01*
X12633528Y-16171114D01*
X12624004Y-16133018D01*
X12624004Y-16085399D01*
X12633528Y-16047304D01*
X12643052Y-16028256D01*
X12652575Y-16018733D01*
X12671623Y-16009209D01*
X12814480Y-16028256D02*
X12824004Y-16018733D01*
X12843052Y-16009209D01*
X12890671Y-16009209D01*
X12909718Y-16018733D01*
X12919242Y-16028256D01*
X12928766Y-16047304D01*
X12928766Y-16066352D01*
X12919242Y-16094923D01*
X12804956Y-16209209D01*
X12928766Y-16209209D01*
X13024004Y-16209209D02*
X13062099Y-16209209D01*
X13081147Y-16199685D01*
X13090671Y-16190161D01*
X13109718Y-16161590D01*
X13119242Y-16123495D01*
X13119242Y-16047304D01*
X13109718Y-16028256D01*
X13100195Y-16018733D01*
X13081147Y-16009209D01*
X13043052Y-16009209D01*
X13024004Y-16018733D01*
X13014480Y-16028256D01*
X13004956Y-16047304D01*
X13004956Y-16094923D01*
X13014480Y-16113971D01*
X13024004Y-16123495D01*
X13043052Y-16133018D01*
X13081147Y-16133018D01*
X13100195Y-16123495D01*
X13109718Y-16113971D01*
X13119242Y-16094923D01*
X13300195Y-16009209D02*
X13204956Y-16009209D01*
X13195433Y-16104447D01*
X13204956Y-16094923D01*
X13224004Y-16085399D01*
X13271623Y-16085399D01*
X13290671Y-16094923D01*
X13300195Y-16104447D01*
X13309718Y-16123495D01*
X13309718Y-16171114D01*
X13300195Y-16190161D01*
X13290671Y-16199685D01*
X13271623Y-16209209D01*
X13224004Y-16209209D01*
X13204956Y-16199685D01*
X13195433Y-16190161D01*
X13385909Y-16009209D02*
X13385909Y-16047304D01*
X13462099Y-16009209D02*
X13462099Y-16047304D01*
X13757337Y-16285399D02*
X13747814Y-16275875D01*
X13728766Y-16247304D01*
X13719242Y-16228256D01*
X13709718Y-16199685D01*
X13700195Y-16152066D01*
X13700195Y-16113971D01*
X13709718Y-16066352D01*
X13719242Y-16037780D01*
X13728766Y-16018733D01*
X13747814Y-15990161D01*
X13757337Y-15980637D01*
X13814480Y-16009209D02*
X13938290Y-16009209D01*
X13871623Y-16085399D01*
X13900195Y-16085399D01*
X13919242Y-16094923D01*
X13928766Y-16104447D01*
X13938290Y-16123495D01*
X13938290Y-16171114D01*
X13928766Y-16190161D01*
X13919242Y-16199685D01*
X13900195Y-16209209D01*
X13843052Y-16209209D01*
X13824004Y-16199685D01*
X13814480Y-16190161D01*
X14176385Y-16209209D02*
X14176385Y-16009209D01*
X14262099Y-16209209D02*
X14262099Y-16104447D01*
X14252575Y-16085399D01*
X14233528Y-16075875D01*
X14204956Y-16075875D01*
X14185909Y-16085399D01*
X14176385Y-16094923D01*
X14385909Y-16209209D02*
X14366861Y-16199685D01*
X14357337Y-16190161D01*
X14347814Y-16171114D01*
X14347814Y-16113971D01*
X14357337Y-16094923D01*
X14366861Y-16085399D01*
X14385909Y-16075875D01*
X14414480Y-16075875D01*
X14433528Y-16085399D01*
X14443052Y-16094923D01*
X14452575Y-16113971D01*
X14452575Y-16171114D01*
X14443052Y-16190161D01*
X14433528Y-16199685D01*
X14414480Y-16209209D01*
X14385909Y-16209209D01*
X14566861Y-16209209D02*
X14547814Y-16199685D01*
X14538290Y-16180637D01*
X14538290Y-16009209D01*
X14719242Y-16199685D02*
X14700195Y-16209209D01*
X14662099Y-16209209D01*
X14643052Y-16199685D01*
X14633528Y-16180637D01*
X14633528Y-16104447D01*
X14643052Y-16085399D01*
X14662099Y-16075875D01*
X14700195Y-16075875D01*
X14719242Y-16085399D01*
X14728766Y-16104447D01*
X14728766Y-16123495D01*
X14633528Y-16142542D01*
X14804956Y-16199685D02*
X14824004Y-16209209D01*
X14862099Y-16209209D01*
X14881147Y-16199685D01*
X14890671Y-16180637D01*
X14890671Y-16171114D01*
X14881147Y-16152066D01*
X14862099Y-16142542D01*
X14833528Y-16142542D01*
X14814480Y-16133018D01*
X14804956Y-16113971D01*
X14804956Y-16104447D01*
X14814480Y-16085399D01*
X14833528Y-16075875D01*
X14862099Y-16075875D01*
X14881147Y-16085399D01*
X14957337Y-16285399D02*
X14966861Y-16275875D01*
X14985909Y-16247304D01*
X14995433Y-16228256D01*
X15004956Y-16199685D01*
X15014480Y-16152066D01*
X15014480Y-16113971D01*
X15004956Y-16066352D01*
X14995433Y-16037780D01*
X14985909Y-16018733D01*
X14966861Y-15990161D01*
X14957337Y-15980637D01*
D14*
X10145433Y-16342733D02*
X10145433Y-16422733D01*
X10105433Y-16382733D02*
X10185433Y-16382733D01*
D11*
X10481147Y-16273209D02*
X10500195Y-16273209D01*
X10519242Y-16282733D01*
X10528766Y-16292256D01*
X10538290Y-16311304D01*
X10547814Y-16349399D01*
X10547814Y-16397018D01*
X10538290Y-16435114D01*
X10528766Y-16454161D01*
X10519242Y-16463685D01*
X10500195Y-16473209D01*
X10481147Y-16473209D01*
X10462099Y-16463685D01*
X10452576Y-16454161D01*
X10443052Y-16435114D01*
X10433528Y-16397018D01*
X10433528Y-16349399D01*
X10443052Y-16311304D01*
X10452576Y-16292256D01*
X10462099Y-16282733D01*
X10481147Y-16273209D01*
X10633528Y-16454161D02*
X10643052Y-16463685D01*
X10633528Y-16473209D01*
X10624004Y-16463685D01*
X10633528Y-16454161D01*
X10633528Y-16473209D01*
X10757337Y-16358923D02*
X10738290Y-16349399D01*
X10728766Y-16339875D01*
X10719242Y-16320828D01*
X10719242Y-16311304D01*
X10728766Y-16292256D01*
X10738290Y-16282733D01*
X10757337Y-16273209D01*
X10795433Y-16273209D01*
X10814480Y-16282733D01*
X10824004Y-16292256D01*
X10833528Y-16311304D01*
X10833528Y-16320828D01*
X10824004Y-16339875D01*
X10814480Y-16349399D01*
X10795433Y-16358923D01*
X10757337Y-16358923D01*
X10738290Y-16368447D01*
X10728766Y-16377971D01*
X10719242Y-16397018D01*
X10719242Y-16435114D01*
X10728766Y-16454161D01*
X10738290Y-16463685D01*
X10757337Y-16473209D01*
X10795433Y-16473209D01*
X10814480Y-16463685D01*
X10824004Y-16454161D01*
X10833528Y-16435114D01*
X10833528Y-16397018D01*
X10824004Y-16377971D01*
X10814480Y-16368447D01*
X10795433Y-16358923D01*
X10957337Y-16273209D02*
X10976385Y-16273209D01*
X10995433Y-16282733D01*
X11004957Y-16292256D01*
X11014480Y-16311304D01*
X11024004Y-16349399D01*
X11024004Y-16397018D01*
X11014480Y-16435114D01*
X11004957Y-16454161D01*
X10995433Y-16463685D01*
X10976385Y-16473209D01*
X10957337Y-16473209D01*
X10938290Y-16463685D01*
X10928766Y-16454161D01*
X10919242Y-16435114D01*
X10909718Y-16397018D01*
X10909718Y-16349399D01*
X10919242Y-16311304D01*
X10928766Y-16292256D01*
X10938290Y-16282733D01*
X10957337Y-16273209D01*
X11147814Y-16273209D02*
X11166861Y-16273209D01*
X11185909Y-16282733D01*
X11195433Y-16292256D01*
X11204956Y-16311304D01*
X11214480Y-16349399D01*
X11214480Y-16397018D01*
X11204956Y-16435114D01*
X11195433Y-16454161D01*
X11185909Y-16463685D01*
X11166861Y-16473209D01*
X11147814Y-16473209D01*
X11128766Y-16463685D01*
X11119242Y-16454161D01*
X11109718Y-16435114D01*
X11100195Y-16397018D01*
X11100195Y-16349399D01*
X11109718Y-16311304D01*
X11119242Y-16292256D01*
X11128766Y-16282733D01*
X11147814Y-16273209D01*
X11300195Y-16473209D02*
X11300195Y-16339875D01*
X11300195Y-16358923D02*
X11309718Y-16349399D01*
X11328766Y-16339875D01*
X11357337Y-16339875D01*
X11376385Y-16349399D01*
X11385909Y-16368447D01*
X11385909Y-16473209D01*
X11385909Y-16368447D02*
X11395433Y-16349399D01*
X11414480Y-16339875D01*
X11443052Y-16339875D01*
X11462099Y-16349399D01*
X11471623Y-16368447D01*
X11471623Y-16473209D01*
X11566861Y-16473209D02*
X11566861Y-16339875D01*
X11566861Y-16358923D02*
X11576385Y-16349399D01*
X11595433Y-16339875D01*
X11624004Y-16339875D01*
X11643052Y-16349399D01*
X11652575Y-16368447D01*
X11652575Y-16473209D01*
X11652575Y-16368447D02*
X11662099Y-16349399D01*
X11681147Y-16339875D01*
X11709718Y-16339875D01*
X11728766Y-16349399D01*
X11738290Y-16368447D01*
X11738290Y-16473209D01*
X12128766Y-16263685D02*
X11957337Y-16520828D01*
X12385909Y-16273209D02*
X12404956Y-16273209D01*
X12424004Y-16282733D01*
X12433528Y-16292256D01*
X12443052Y-16311304D01*
X12452575Y-16349399D01*
X12452575Y-16397018D01*
X12443052Y-16435114D01*
X12433528Y-16454161D01*
X12424004Y-16463685D01*
X12404956Y-16473209D01*
X12385909Y-16473209D01*
X12366861Y-16463685D01*
X12357337Y-16454161D01*
X12347814Y-16435114D01*
X12338290Y-16397018D01*
X12338290Y-16349399D01*
X12347814Y-16311304D01*
X12357337Y-16292256D01*
X12366861Y-16282733D01*
X12385909Y-16273209D01*
X12538290Y-16454161D02*
X12547814Y-16463685D01*
X12538290Y-16473209D01*
X12528766Y-16463685D01*
X12538290Y-16454161D01*
X12538290Y-16473209D01*
X12671623Y-16273209D02*
X12690671Y-16273209D01*
X12709718Y-16282733D01*
X12719242Y-16292256D01*
X12728766Y-16311304D01*
X12738290Y-16349399D01*
X12738290Y-16397018D01*
X12728766Y-16435114D01*
X12719242Y-16454161D01*
X12709718Y-16463685D01*
X12690671Y-16473209D01*
X12671623Y-16473209D01*
X12652575Y-16463685D01*
X12643052Y-16454161D01*
X12633528Y-16435114D01*
X12624004Y-16397018D01*
X12624004Y-16349399D01*
X12633528Y-16311304D01*
X12643052Y-16292256D01*
X12652575Y-16282733D01*
X12671623Y-16273209D01*
X12804956Y-16273209D02*
X12928766Y-16273209D01*
X12862099Y-16349399D01*
X12890671Y-16349399D01*
X12909718Y-16358923D01*
X12919242Y-16368447D01*
X12928766Y-16387495D01*
X12928766Y-16435114D01*
X12919242Y-16454161D01*
X12909718Y-16463685D01*
X12890671Y-16473209D01*
X12833528Y-16473209D01*
X12814480Y-16463685D01*
X12804956Y-16454161D01*
X13119242Y-16473209D02*
X13004956Y-16473209D01*
X13062099Y-16473209D02*
X13062099Y-16273209D01*
X13043052Y-16301780D01*
X13024004Y-16320828D01*
X13004956Y-16330352D01*
X13300195Y-16273209D02*
X13204956Y-16273209D01*
X13195433Y-16368447D01*
X13204956Y-16358923D01*
X13224004Y-16349399D01*
X13271623Y-16349399D01*
X13290671Y-16358923D01*
X13300195Y-16368447D01*
X13309718Y-16387495D01*
X13309718Y-16435114D01*
X13300195Y-16454161D01*
X13290671Y-16463685D01*
X13271623Y-16473209D01*
X13224004Y-16473209D01*
X13204956Y-16463685D01*
X13195433Y-16454161D01*
X13385909Y-16273209D02*
X13385909Y-16311304D01*
X13462099Y-16273209D02*
X13462099Y-16311304D01*
X13757337Y-16549399D02*
X13747814Y-16539875D01*
X13728766Y-16511304D01*
X13719242Y-16492256D01*
X13709718Y-16463685D01*
X13700195Y-16416066D01*
X13700195Y-16377971D01*
X13709718Y-16330352D01*
X13719242Y-16301780D01*
X13728766Y-16282733D01*
X13747814Y-16254161D01*
X13757337Y-16244637D01*
X13824004Y-16292256D02*
X13833528Y-16282733D01*
X13852575Y-16273209D01*
X13900195Y-16273209D01*
X13919242Y-16282733D01*
X13928766Y-16292256D01*
X13938290Y-16311304D01*
X13938290Y-16330352D01*
X13928766Y-16358923D01*
X13814480Y-16473209D01*
X13938290Y-16473209D01*
X14109718Y-16339875D02*
X14109718Y-16473209D01*
X14062099Y-16263685D02*
X14014480Y-16406542D01*
X14138290Y-16406542D01*
X14300195Y-16273209D02*
X14262099Y-16273209D01*
X14243052Y-16282733D01*
X14233528Y-16292256D01*
X14214480Y-16320828D01*
X14204956Y-16358923D01*
X14204956Y-16435114D01*
X14214480Y-16454161D01*
X14224004Y-16463685D01*
X14243052Y-16473209D01*
X14281147Y-16473209D01*
X14300195Y-16463685D01*
X14309718Y-16454161D01*
X14319242Y-16435114D01*
X14319242Y-16387495D01*
X14309718Y-16368447D01*
X14300195Y-16358923D01*
X14281147Y-16349399D01*
X14243052Y-16349399D01*
X14224004Y-16358923D01*
X14214480Y-16368447D01*
X14204956Y-16387495D01*
X14557337Y-16473209D02*
X14557337Y-16273209D01*
X14643052Y-16473209D02*
X14643052Y-16368447D01*
X14633528Y-16349399D01*
X14614480Y-16339875D01*
X14585909Y-16339875D01*
X14566861Y-16349399D01*
X14557337Y-16358923D01*
X14766861Y-16473209D02*
X14747814Y-16463685D01*
X14738290Y-16454161D01*
X14728766Y-16435114D01*
X14728766Y-16377971D01*
X14738290Y-16358923D01*
X14747814Y-16349399D01*
X14766861Y-16339875D01*
X14795433Y-16339875D01*
X14814480Y-16349399D01*
X14824004Y-16358923D01*
X14833528Y-16377971D01*
X14833528Y-16435114D01*
X14824004Y-16454161D01*
X14814480Y-16463685D01*
X14795433Y-16473209D01*
X14766861Y-16473209D01*
X14947814Y-16473209D02*
X14928766Y-16463685D01*
X14919242Y-16444637D01*
X14919242Y-16273209D01*
X15100195Y-16463685D02*
X15081147Y-16473209D01*
X15043052Y-16473209D01*
X15024004Y-16463685D01*
X15014480Y-16444637D01*
X15014480Y-16368447D01*
X15024004Y-16349399D01*
X15043052Y-16339875D01*
X15081147Y-16339875D01*
X15100195Y-16349399D01*
X15109718Y-16368447D01*
X15109718Y-16387495D01*
X15014480Y-16406542D01*
X15185909Y-16463685D02*
X15204956Y-16473209D01*
X15243052Y-16473209D01*
X15262099Y-16463685D01*
X15271623Y-16444637D01*
X15271623Y-16435114D01*
X15262099Y-16416066D01*
X15243052Y-16406542D01*
X15214480Y-16406542D01*
X15195433Y-16397018D01*
X15185909Y-16377971D01*
X15185909Y-16368447D01*
X15195433Y-16349399D01*
X15214480Y-16339875D01*
X15243052Y-16339875D01*
X15262099Y-16349399D01*
X15338290Y-16549399D02*
X15347814Y-16539875D01*
X15366861Y-16511304D01*
X15376385Y-16492256D01*
X15385909Y-16463685D01*
X15395433Y-16416066D01*
X15395433Y-16377971D01*
X15385909Y-16330352D01*
X15376385Y-16301780D01*
X15366861Y-16282733D01*
X15347814Y-16254161D01*
X15338290Y-16244637D01*
D15*
X10170788Y-16682088D02*
X10170788Y-16611377D01*
X10100077Y-16611377D01*
X10100077Y-16682088D01*
X10170788Y-16682088D01*
D11*
X10547814Y-16737209D02*
X10433528Y-16737209D01*
X10490671Y-16737209D02*
X10490671Y-16537209D01*
X10471623Y-16565780D01*
X10452576Y-16584828D01*
X10433528Y-16594352D01*
X10633528Y-16718161D02*
X10643052Y-16727685D01*
X10633528Y-16737209D01*
X10624004Y-16727685D01*
X10633528Y-16718161D01*
X10633528Y-16737209D01*
X10766861Y-16537209D02*
X10785909Y-16537209D01*
X10804957Y-16546733D01*
X10814480Y-16556256D01*
X10824004Y-16575304D01*
X10833528Y-16613399D01*
X10833528Y-16661018D01*
X10824004Y-16699114D01*
X10814480Y-16718161D01*
X10804957Y-16727685D01*
X10785909Y-16737209D01*
X10766861Y-16737209D01*
X10747814Y-16727685D01*
X10738290Y-16718161D01*
X10728766Y-16699114D01*
X10719242Y-16661018D01*
X10719242Y-16613399D01*
X10728766Y-16575304D01*
X10738290Y-16556256D01*
X10747814Y-16546733D01*
X10766861Y-16537209D01*
X10957337Y-16537209D02*
X10976385Y-16537209D01*
X10995433Y-16546733D01*
X11004957Y-16556256D01*
X11014480Y-16575304D01*
X11024004Y-16613399D01*
X11024004Y-16661018D01*
X11014480Y-16699114D01*
X11004957Y-16718161D01*
X10995433Y-16727685D01*
X10976385Y-16737209D01*
X10957337Y-16737209D01*
X10938290Y-16727685D01*
X10928766Y-16718161D01*
X10919242Y-16699114D01*
X10909718Y-16661018D01*
X10909718Y-16613399D01*
X10919242Y-16575304D01*
X10928766Y-16556256D01*
X10938290Y-16546733D01*
X10957337Y-16537209D01*
X11147814Y-16537209D02*
X11166861Y-16537209D01*
X11185909Y-16546733D01*
X11195433Y-16556256D01*
X11204956Y-16575304D01*
X11214480Y-16613399D01*
X11214480Y-16661018D01*
X11204956Y-16699114D01*
X11195433Y-16718161D01*
X11185909Y-16727685D01*
X11166861Y-16737209D01*
X11147814Y-16737209D01*
X11128766Y-16727685D01*
X11119242Y-16718161D01*
X11109718Y-16699114D01*
X11100195Y-16661018D01*
X11100195Y-16613399D01*
X11109718Y-16575304D01*
X11119242Y-16556256D01*
X11128766Y-16546733D01*
X11147814Y-16537209D01*
X11300195Y-16737209D02*
X11300195Y-16603875D01*
X11300195Y-16622923D02*
X11309718Y-16613399D01*
X11328766Y-16603875D01*
X11357337Y-16603875D01*
X11376385Y-16613399D01*
X11385909Y-16632447D01*
X11385909Y-16737209D01*
X11385909Y-16632447D02*
X11395433Y-16613399D01*
X11414480Y-16603875D01*
X11443052Y-16603875D01*
X11462099Y-16613399D01*
X11471623Y-16632447D01*
X11471623Y-16737209D01*
X11566861Y-16737209D02*
X11566861Y-16603875D01*
X11566861Y-16622923D02*
X11576385Y-16613399D01*
X11595433Y-16603875D01*
X11624004Y-16603875D01*
X11643052Y-16613399D01*
X11652575Y-16632447D01*
X11652575Y-16737209D01*
X11652575Y-16632447D02*
X11662099Y-16613399D01*
X11681147Y-16603875D01*
X11709718Y-16603875D01*
X11728766Y-16613399D01*
X11738290Y-16632447D01*
X11738290Y-16737209D01*
X12128766Y-16527685D02*
X11957337Y-16784828D01*
X12385909Y-16537209D02*
X12404956Y-16537209D01*
X12424004Y-16546733D01*
X12433528Y-16556256D01*
X12443052Y-16575304D01*
X12452575Y-16613399D01*
X12452575Y-16661018D01*
X12443052Y-16699114D01*
X12433528Y-16718161D01*
X12424004Y-16727685D01*
X12404956Y-16737209D01*
X12385909Y-16737209D01*
X12366861Y-16727685D01*
X12357337Y-16718161D01*
X12347814Y-16699114D01*
X12338290Y-16661018D01*
X12338290Y-16613399D01*
X12347814Y-16575304D01*
X12357337Y-16556256D01*
X12366861Y-16546733D01*
X12385909Y-16537209D01*
X12538290Y-16718161D02*
X12547814Y-16727685D01*
X12538290Y-16737209D01*
X12528766Y-16727685D01*
X12538290Y-16718161D01*
X12538290Y-16737209D01*
X12671623Y-16537209D02*
X12690671Y-16537209D01*
X12709718Y-16546733D01*
X12719242Y-16556256D01*
X12728766Y-16575304D01*
X12738290Y-16613399D01*
X12738290Y-16661018D01*
X12728766Y-16699114D01*
X12719242Y-16718161D01*
X12709718Y-16727685D01*
X12690671Y-16737209D01*
X12671623Y-16737209D01*
X12652575Y-16727685D01*
X12643052Y-16718161D01*
X12633528Y-16699114D01*
X12624004Y-16661018D01*
X12624004Y-16613399D01*
X12633528Y-16575304D01*
X12643052Y-16556256D01*
X12652575Y-16546733D01*
X12671623Y-16537209D01*
X12804956Y-16537209D02*
X12928766Y-16537209D01*
X12862099Y-16613399D01*
X12890671Y-16613399D01*
X12909718Y-16622923D01*
X12919242Y-16632447D01*
X12928766Y-16651495D01*
X12928766Y-16699114D01*
X12919242Y-16718161D01*
X12909718Y-16727685D01*
X12890671Y-16737209D01*
X12833528Y-16737209D01*
X12814480Y-16727685D01*
X12804956Y-16718161D01*
X13024004Y-16737209D02*
X13062099Y-16737209D01*
X13081147Y-16727685D01*
X13090671Y-16718161D01*
X13109718Y-16689590D01*
X13119242Y-16651495D01*
X13119242Y-16575304D01*
X13109718Y-16556256D01*
X13100195Y-16546733D01*
X13081147Y-16537209D01*
X13043052Y-16537209D01*
X13024004Y-16546733D01*
X13014480Y-16556256D01*
X13004956Y-16575304D01*
X13004956Y-16622923D01*
X13014480Y-16641971D01*
X13024004Y-16651495D01*
X13043052Y-16661018D01*
X13081147Y-16661018D01*
X13100195Y-16651495D01*
X13109718Y-16641971D01*
X13119242Y-16622923D01*
X13290671Y-16603875D02*
X13290671Y-16737209D01*
X13243052Y-16527685D02*
X13195433Y-16670542D01*
X13319242Y-16670542D01*
X13385909Y-16537209D02*
X13385909Y-16575304D01*
X13462099Y-16537209D02*
X13462099Y-16575304D01*
X13757337Y-16813399D02*
X13747814Y-16803876D01*
X13728766Y-16775304D01*
X13719242Y-16756256D01*
X13709718Y-16727685D01*
X13700195Y-16680066D01*
X13700195Y-16641971D01*
X13709718Y-16594352D01*
X13719242Y-16565780D01*
X13728766Y-16546733D01*
X13747814Y-16518161D01*
X13757337Y-16508637D01*
X13928766Y-16537209D02*
X13833528Y-16537209D01*
X13824004Y-16632447D01*
X13833528Y-16622923D01*
X13852575Y-16613399D01*
X13900195Y-16613399D01*
X13919242Y-16622923D01*
X13928766Y-16632447D01*
X13938290Y-16651495D01*
X13938290Y-16699114D01*
X13928766Y-16718161D01*
X13919242Y-16727685D01*
X13900195Y-16737209D01*
X13852575Y-16737209D01*
X13833528Y-16727685D01*
X13824004Y-16718161D01*
X14128766Y-16737209D02*
X14014480Y-16737209D01*
X14071623Y-16737209D02*
X14071623Y-16537209D01*
X14052575Y-16565780D01*
X14033528Y-16584828D01*
X14014480Y-16594352D01*
X14366861Y-16737209D02*
X14366861Y-16537209D01*
X14452575Y-16737209D02*
X14452575Y-16632447D01*
X14443052Y-16613399D01*
X14424004Y-16603875D01*
X14395433Y-16603875D01*
X14376385Y-16613399D01*
X14366861Y-16622923D01*
X14576385Y-16737209D02*
X14557337Y-16727685D01*
X14547814Y-16718161D01*
X14538290Y-16699114D01*
X14538290Y-16641971D01*
X14547814Y-16622923D01*
X14557337Y-16613399D01*
X14576385Y-16603875D01*
X14604956Y-16603875D01*
X14624004Y-16613399D01*
X14633528Y-16622923D01*
X14643052Y-16641971D01*
X14643052Y-16699114D01*
X14633528Y-16718161D01*
X14624004Y-16727685D01*
X14604956Y-16737209D01*
X14576385Y-16737209D01*
X14757337Y-16737209D02*
X14738290Y-16727685D01*
X14728766Y-16708637D01*
X14728766Y-16537209D01*
X14909718Y-16727685D02*
X14890671Y-16737209D01*
X14852575Y-16737209D01*
X14833528Y-16727685D01*
X14824004Y-16708637D01*
X14824004Y-16632447D01*
X14833528Y-16613399D01*
X14852575Y-16603875D01*
X14890671Y-16603875D01*
X14909718Y-16613399D01*
X14919242Y-16632447D01*
X14919242Y-16651495D01*
X14824004Y-16670542D01*
X14995433Y-16727685D02*
X15014480Y-16737209D01*
X15052575Y-16737209D01*
X15071623Y-16727685D01*
X15081147Y-16708637D01*
X15081147Y-16699114D01*
X15071623Y-16680066D01*
X15052575Y-16670542D01*
X15024004Y-16670542D01*
X15004956Y-16661018D01*
X14995433Y-16641971D01*
X14995433Y-16632447D01*
X15004956Y-16613399D01*
X15024004Y-16603875D01*
X15052575Y-16603875D01*
X15071623Y-16613399D01*
X15147814Y-16813399D02*
X15157337Y-16803876D01*
X15176385Y-16775304D01*
X15185909Y-16756256D01*
X15195433Y-16727685D01*
X15204956Y-16680066D01*
X15204956Y-16641971D01*
X15195433Y-16594352D01*
X15185909Y-16565780D01*
X15176385Y-16546733D01*
X15157337Y-16518161D01*
X15147814Y-16508637D01*
D16*
X10130433Y-16965733D02*
X10185433Y-16910733D01*
X10130433Y-16855733D01*
X10075433Y-16910733D01*
X10130433Y-16965733D01*
D11*
X10547814Y-17001209D02*
X10433528Y-17001209D01*
X10490671Y-17001209D02*
X10490671Y-16801209D01*
X10471623Y-16829780D01*
X10452576Y-16848828D01*
X10433528Y-16858352D01*
X10633528Y-16982161D02*
X10643052Y-16991685D01*
X10633528Y-17001209D01*
X10624004Y-16991685D01*
X10633528Y-16982161D01*
X10633528Y-17001209D01*
X10833528Y-17001209D02*
X10719242Y-17001209D01*
X10776385Y-17001209D02*
X10776385Y-16801209D01*
X10757337Y-16829780D01*
X10738290Y-16848828D01*
X10719242Y-16858352D01*
X10957337Y-16801209D02*
X10976385Y-16801209D01*
X10995433Y-16810733D01*
X11004957Y-16820257D01*
X11014480Y-16839304D01*
X11024004Y-16877399D01*
X11024004Y-16925018D01*
X11014480Y-16963114D01*
X11004957Y-16982161D01*
X10995433Y-16991685D01*
X10976385Y-17001209D01*
X10957337Y-17001209D01*
X10938290Y-16991685D01*
X10928766Y-16982161D01*
X10919242Y-16963114D01*
X10909718Y-16925018D01*
X10909718Y-16877399D01*
X10919242Y-16839304D01*
X10928766Y-16820257D01*
X10938290Y-16810733D01*
X10957337Y-16801209D01*
X11147814Y-16801209D02*
X11166861Y-16801209D01*
X11185909Y-16810733D01*
X11195433Y-16820257D01*
X11204956Y-16839304D01*
X11214480Y-16877399D01*
X11214480Y-16925018D01*
X11204956Y-16963114D01*
X11195433Y-16982161D01*
X11185909Y-16991685D01*
X11166861Y-17001209D01*
X11147814Y-17001209D01*
X11128766Y-16991685D01*
X11119242Y-16982161D01*
X11109718Y-16963114D01*
X11100195Y-16925018D01*
X11100195Y-16877399D01*
X11109718Y-16839304D01*
X11119242Y-16820257D01*
X11128766Y-16810733D01*
X11147814Y-16801209D01*
X11300195Y-17001209D02*
X11300195Y-16867876D01*
X11300195Y-16886923D02*
X11309718Y-16877399D01*
X11328766Y-16867876D01*
X11357337Y-16867876D01*
X11376385Y-16877399D01*
X11385909Y-16896447D01*
X11385909Y-17001209D01*
X11385909Y-16896447D02*
X11395433Y-16877399D01*
X11414480Y-16867876D01*
X11443052Y-16867876D01*
X11462099Y-16877399D01*
X11471623Y-16896447D01*
X11471623Y-17001209D01*
X11566861Y-17001209D02*
X11566861Y-16867876D01*
X11566861Y-16886923D02*
X11576385Y-16877399D01*
X11595433Y-16867876D01*
X11624004Y-16867876D01*
X11643052Y-16877399D01*
X11652575Y-16896447D01*
X11652575Y-17001209D01*
X11652575Y-16896447D02*
X11662099Y-16877399D01*
X11681147Y-16867876D01*
X11709718Y-16867876D01*
X11728766Y-16877399D01*
X11738290Y-16896447D01*
X11738290Y-17001209D01*
X12128766Y-16791685D02*
X11957337Y-17048828D01*
X12385909Y-16801209D02*
X12404956Y-16801209D01*
X12424004Y-16810733D01*
X12433528Y-16820257D01*
X12443052Y-16839304D01*
X12452575Y-16877399D01*
X12452575Y-16925018D01*
X12443052Y-16963114D01*
X12433528Y-16982161D01*
X12424004Y-16991685D01*
X12404956Y-17001209D01*
X12385909Y-17001209D01*
X12366861Y-16991685D01*
X12357337Y-16982161D01*
X12347814Y-16963114D01*
X12338290Y-16925018D01*
X12338290Y-16877399D01*
X12347814Y-16839304D01*
X12357337Y-16820257D01*
X12366861Y-16810733D01*
X12385909Y-16801209D01*
X12538290Y-16982161D02*
X12547814Y-16991685D01*
X12538290Y-17001209D01*
X12528766Y-16991685D01*
X12538290Y-16982161D01*
X12538290Y-17001209D01*
X12671623Y-16801209D02*
X12690671Y-16801209D01*
X12709718Y-16810733D01*
X12719242Y-16820257D01*
X12728766Y-16839304D01*
X12738290Y-16877399D01*
X12738290Y-16925018D01*
X12728766Y-16963114D01*
X12719242Y-16982161D01*
X12709718Y-16991685D01*
X12690671Y-17001209D01*
X12671623Y-17001209D01*
X12652575Y-16991685D01*
X12643052Y-16982161D01*
X12633528Y-16963114D01*
X12624004Y-16925018D01*
X12624004Y-16877399D01*
X12633528Y-16839304D01*
X12643052Y-16820257D01*
X12652575Y-16810733D01*
X12671623Y-16801209D01*
X12909718Y-16867876D02*
X12909718Y-17001209D01*
X12862099Y-16791685D02*
X12814480Y-16934542D01*
X12938290Y-16934542D01*
X12995433Y-16801209D02*
X13119242Y-16801209D01*
X13052575Y-16877399D01*
X13081147Y-16877399D01*
X13100195Y-16886923D01*
X13109718Y-16896447D01*
X13119242Y-16915495D01*
X13119242Y-16963114D01*
X13109718Y-16982161D01*
X13100195Y-16991685D01*
X13081147Y-17001209D01*
X13024004Y-17001209D01*
X13004956Y-16991685D01*
X12995433Y-16982161D01*
X13185909Y-16801209D02*
X13309718Y-16801209D01*
X13243052Y-16877399D01*
X13271623Y-16877399D01*
X13290671Y-16886923D01*
X13300195Y-16896447D01*
X13309718Y-16915495D01*
X13309718Y-16963114D01*
X13300195Y-16982161D01*
X13290671Y-16991685D01*
X13271623Y-17001209D01*
X13214480Y-17001209D01*
X13195433Y-16991685D01*
X13185909Y-16982161D01*
X13385909Y-16801209D02*
X13385909Y-16839304D01*
X13462099Y-16801209D02*
X13462099Y-16839304D01*
X13757337Y-17077399D02*
X13747814Y-17067876D01*
X13728766Y-17039304D01*
X13719242Y-17020257D01*
X13709718Y-16991685D01*
X13700195Y-16944066D01*
X13700195Y-16905971D01*
X13709718Y-16858352D01*
X13719242Y-16829780D01*
X13728766Y-16810733D01*
X13747814Y-16782161D01*
X13757337Y-16772637D01*
X13814480Y-16801209D02*
X13947814Y-16801209D01*
X13862099Y-17001209D01*
X14176385Y-17001209D02*
X14176385Y-16801209D01*
X14262099Y-17001209D02*
X14262099Y-16896447D01*
X14252575Y-16877399D01*
X14233528Y-16867876D01*
X14204956Y-16867876D01*
X14185909Y-16877399D01*
X14176385Y-16886923D01*
X14385909Y-17001209D02*
X14366861Y-16991685D01*
X14357337Y-16982161D01*
X14347814Y-16963114D01*
X14347814Y-16905971D01*
X14357337Y-16886923D01*
X14366861Y-16877399D01*
X14385909Y-16867876D01*
X14414480Y-16867876D01*
X14433528Y-16877399D01*
X14443052Y-16886923D01*
X14452575Y-16905971D01*
X14452575Y-16963114D01*
X14443052Y-16982161D01*
X14433528Y-16991685D01*
X14414480Y-17001209D01*
X14385909Y-17001209D01*
X14566861Y-17001209D02*
X14547814Y-16991685D01*
X14538290Y-16972637D01*
X14538290Y-16801209D01*
X14719242Y-16991685D02*
X14700195Y-17001209D01*
X14662099Y-17001209D01*
X14643052Y-16991685D01*
X14633528Y-16972637D01*
X14633528Y-16896447D01*
X14643052Y-16877399D01*
X14662099Y-16867876D01*
X14700195Y-16867876D01*
X14719242Y-16877399D01*
X14728766Y-16896447D01*
X14728766Y-16915495D01*
X14633528Y-16934542D01*
X14804956Y-16991685D02*
X14824004Y-17001209D01*
X14862099Y-17001209D01*
X14881147Y-16991685D01*
X14890671Y-16972637D01*
X14890671Y-16963114D01*
X14881147Y-16944066D01*
X14862099Y-16934542D01*
X14833528Y-16934542D01*
X14814480Y-16925018D01*
X14804956Y-16905971D01*
X14804956Y-16896447D01*
X14814480Y-16877399D01*
X14833528Y-16867876D01*
X14862099Y-16867876D01*
X14881147Y-16877399D01*
X14957337Y-17077399D02*
X14966861Y-17067876D01*
X14985909Y-17039304D01*
X14995433Y-17020257D01*
X15004956Y-16991685D01*
X15014480Y-16944066D01*
X15014480Y-16905971D01*
X15004956Y-16858352D01*
X14995433Y-16829780D01*
X14985909Y-16810733D01*
X14966861Y-16782161D01*
X14957337Y-16772637D01*
X9985433Y-17074733D02*
X10185433Y-17274733D01*
X10185433Y-17074733D02*
X9985433Y-17274733D01*
X10185433Y-17174733D02*
G75*
G03*
X10185433Y-17174733I-100000J0D01*
G01*
X10424004Y-17065209D02*
X10547814Y-17065209D01*
X10481147Y-17141399D01*
X10509718Y-17141399D01*
X10528766Y-17150923D01*
X10538290Y-17160447D01*
X10547814Y-17179495D01*
X10547814Y-17227114D01*
X10538290Y-17246161D01*
X10528766Y-17255685D01*
X10509718Y-17265209D01*
X10452576Y-17265209D01*
X10433528Y-17255685D01*
X10424004Y-17246161D01*
X10633528Y-17246161D02*
X10643052Y-17255685D01*
X10633528Y-17265209D01*
X10624004Y-17255685D01*
X10633528Y-17246161D01*
X10633528Y-17265209D01*
X10719242Y-17084257D02*
X10728766Y-17074733D01*
X10747814Y-17065209D01*
X10795433Y-17065209D01*
X10814480Y-17074733D01*
X10824004Y-17084257D01*
X10833528Y-17103304D01*
X10833528Y-17122352D01*
X10824004Y-17150923D01*
X10709718Y-17265209D01*
X10833528Y-17265209D01*
X10957337Y-17065209D02*
X10976385Y-17065209D01*
X10995433Y-17074733D01*
X11004957Y-17084257D01*
X11014480Y-17103304D01*
X11024004Y-17141399D01*
X11024004Y-17189018D01*
X11014480Y-17227114D01*
X11004957Y-17246161D01*
X10995433Y-17255685D01*
X10976385Y-17265209D01*
X10957337Y-17265209D01*
X10938290Y-17255685D01*
X10928766Y-17246161D01*
X10919242Y-17227114D01*
X10909718Y-17189018D01*
X10909718Y-17141399D01*
X10919242Y-17103304D01*
X10928766Y-17084257D01*
X10938290Y-17074733D01*
X10957337Y-17065209D01*
X11147814Y-17065209D02*
X11166861Y-17065209D01*
X11185909Y-17074733D01*
X11195433Y-17084257D01*
X11204956Y-17103304D01*
X11214480Y-17141399D01*
X11214480Y-17189018D01*
X11204956Y-17227114D01*
X11195433Y-17246161D01*
X11185909Y-17255685D01*
X11166861Y-17265209D01*
X11147814Y-17265209D01*
X11128766Y-17255685D01*
X11119242Y-17246161D01*
X11109718Y-17227114D01*
X11100195Y-17189018D01*
X11100195Y-17141399D01*
X11109718Y-17103304D01*
X11119242Y-17084257D01*
X11128766Y-17074733D01*
X11147814Y-17065209D01*
X11300195Y-17265209D02*
X11300195Y-17131876D01*
X11300195Y-17150923D02*
X11309718Y-17141399D01*
X11328766Y-17131876D01*
X11357337Y-17131876D01*
X11376385Y-17141399D01*
X11385909Y-17160447D01*
X11385909Y-17265209D01*
X11385909Y-17160447D02*
X11395433Y-17141399D01*
X11414480Y-17131876D01*
X11443052Y-17131876D01*
X11462099Y-17141399D01*
X11471623Y-17160447D01*
X11471623Y-17265209D01*
X11566861Y-17265209D02*
X11566861Y-17131876D01*
X11566861Y-17150923D02*
X11576385Y-17141399D01*
X11595433Y-17131876D01*
X11624004Y-17131876D01*
X11643052Y-17141399D01*
X11652575Y-17160447D01*
X11652575Y-17265209D01*
X11652575Y-17160447D02*
X11662099Y-17141399D01*
X11681147Y-17131876D01*
X11709718Y-17131876D01*
X11728766Y-17141399D01*
X11738290Y-17160447D01*
X11738290Y-17265209D01*
X12128766Y-17055685D02*
X11957337Y-17312828D01*
X12385909Y-17065209D02*
X12404956Y-17065209D01*
X12424004Y-17074733D01*
X12433528Y-17084257D01*
X12443052Y-17103304D01*
X12452575Y-17141399D01*
X12452575Y-17189018D01*
X12443052Y-17227114D01*
X12433528Y-17246161D01*
X12424004Y-17255685D01*
X12404956Y-17265209D01*
X12385909Y-17265209D01*
X12366861Y-17255685D01*
X12357337Y-17246161D01*
X12347814Y-17227114D01*
X12338290Y-17189018D01*
X12338290Y-17141399D01*
X12347814Y-17103304D01*
X12357337Y-17084257D01*
X12366861Y-17074733D01*
X12385909Y-17065209D01*
X12538290Y-17246161D02*
X12547814Y-17255685D01*
X12538290Y-17265209D01*
X12528766Y-17255685D01*
X12538290Y-17246161D01*
X12538290Y-17265209D01*
X12738290Y-17265209D02*
X12624004Y-17265209D01*
X12681147Y-17265209D02*
X12681147Y-17065209D01*
X12662099Y-17093780D01*
X12643052Y-17112828D01*
X12624004Y-17122352D01*
X12814480Y-17084257D02*
X12824004Y-17074733D01*
X12843052Y-17065209D01*
X12890671Y-17065209D01*
X12909718Y-17074733D01*
X12919242Y-17084257D01*
X12928766Y-17103304D01*
X12928766Y-17122352D01*
X12919242Y-17150923D01*
X12804956Y-17265209D01*
X12928766Y-17265209D01*
X13100195Y-17065209D02*
X13062099Y-17065209D01*
X13043052Y-17074733D01*
X13033528Y-17084257D01*
X13014480Y-17112828D01*
X13004956Y-17150923D01*
X13004956Y-17227114D01*
X13014480Y-17246161D01*
X13024004Y-17255685D01*
X13043052Y-17265209D01*
X13081147Y-17265209D01*
X13100195Y-17255685D01*
X13109718Y-17246161D01*
X13119242Y-17227114D01*
X13119242Y-17179495D01*
X13109718Y-17160447D01*
X13100195Y-17150923D01*
X13081147Y-17141399D01*
X13043052Y-17141399D01*
X13024004Y-17150923D01*
X13014480Y-17160447D01*
X13004956Y-17179495D01*
X13243052Y-17065209D02*
X13262099Y-17065209D01*
X13281147Y-17074733D01*
X13290671Y-17084257D01*
X13300195Y-17103304D01*
X13309718Y-17141399D01*
X13309718Y-17189018D01*
X13300195Y-17227114D01*
X13290671Y-17246161D01*
X13281147Y-17255685D01*
X13262099Y-17265209D01*
X13243052Y-17265209D01*
X13224004Y-17255685D01*
X13214480Y-17246161D01*
X13204956Y-17227114D01*
X13195433Y-17189018D01*
X13195433Y-17141399D01*
X13204956Y-17103304D01*
X13214480Y-17084257D01*
X13224004Y-17074733D01*
X13243052Y-17065209D01*
X13385909Y-17065209D02*
X13385909Y-17103304D01*
X13462099Y-17065209D02*
X13462099Y-17103304D01*
X13757337Y-17341399D02*
X13747814Y-17331876D01*
X13728766Y-17303304D01*
X13719242Y-17284257D01*
X13709718Y-17255685D01*
X13700195Y-17208066D01*
X13700195Y-17169971D01*
X13709718Y-17122352D01*
X13719242Y-17093780D01*
X13728766Y-17074733D01*
X13747814Y-17046161D01*
X13757337Y-17036637D01*
X13919242Y-17065209D02*
X13881147Y-17065209D01*
X13862099Y-17074733D01*
X13852575Y-17084257D01*
X13833528Y-17112828D01*
X13824004Y-17150923D01*
X13824004Y-17227114D01*
X13833528Y-17246161D01*
X13843052Y-17255685D01*
X13862099Y-17265209D01*
X13900195Y-17265209D01*
X13919242Y-17255685D01*
X13928766Y-17246161D01*
X13938290Y-17227114D01*
X13938290Y-17179495D01*
X13928766Y-17160447D01*
X13919242Y-17150923D01*
X13900195Y-17141399D01*
X13862099Y-17141399D01*
X13843052Y-17150923D01*
X13833528Y-17160447D01*
X13824004Y-17179495D01*
X14176385Y-17265209D02*
X14176385Y-17065209D01*
X14262099Y-17265209D02*
X14262099Y-17160447D01*
X14252575Y-17141399D01*
X14233528Y-17131876D01*
X14204956Y-17131876D01*
X14185909Y-17141399D01*
X14176385Y-17150923D01*
X14385909Y-17265209D02*
X14366861Y-17255685D01*
X14357337Y-17246161D01*
X14347814Y-17227114D01*
X14347814Y-17169971D01*
X14357337Y-17150923D01*
X14366861Y-17141399D01*
X14385909Y-17131876D01*
X14414480Y-17131876D01*
X14433528Y-17141399D01*
X14443052Y-17150923D01*
X14452575Y-17169971D01*
X14452575Y-17227114D01*
X14443052Y-17246161D01*
X14433528Y-17255685D01*
X14414480Y-17265209D01*
X14385909Y-17265209D01*
X14566861Y-17265209D02*
X14547814Y-17255685D01*
X14538290Y-17236637D01*
X14538290Y-17065209D01*
X14719242Y-17255685D02*
X14700195Y-17265209D01*
X14662099Y-17265209D01*
X14643052Y-17255685D01*
X14633528Y-17236637D01*
X14633528Y-17160447D01*
X14643052Y-17141399D01*
X14662099Y-17131876D01*
X14700195Y-17131876D01*
X14719242Y-17141399D01*
X14728766Y-17160447D01*
X14728766Y-17179495D01*
X14633528Y-17198542D01*
X14804956Y-17255685D02*
X14824004Y-17265209D01*
X14862099Y-17265209D01*
X14881147Y-17255685D01*
X14890671Y-17236637D01*
X14890671Y-17227114D01*
X14881147Y-17208066D01*
X14862099Y-17198542D01*
X14833528Y-17198542D01*
X14814480Y-17189018D01*
X14804956Y-17169971D01*
X14804956Y-17160447D01*
X14814480Y-17141399D01*
X14833528Y-17131876D01*
X14862099Y-17131876D01*
X14881147Y-17141399D01*
X14957337Y-17341399D02*
X14966861Y-17331876D01*
X14985909Y-17303304D01*
X14995433Y-17284257D01*
X15004956Y-17255685D01*
X15014480Y-17208066D01*
X15014480Y-17169971D01*
X15004956Y-17122352D01*
X14995433Y-17093780D01*
X14985909Y-17074733D01*
X14966861Y-17046161D01*
X14957337Y-17036637D01*
M02*
