G04 #@! TF.GenerationSoftware,KiCad,Pcbnew,(6.0.1)*
G04 #@! TF.CreationDate,2022-02-26T16:04:48+01:00*
G04 #@! TF.ProjectId,6502-vga,36353032-2d76-4676-912e-6b696361645f,rev?*
G04 #@! TF.SameCoordinates,Original*
G04 #@! TF.FileFunction,Legend,Top*
G04 #@! TF.FilePolarity,Positive*
%FSLAX46Y46*%
G04 Gerber Fmt 4.6, Leading zero omitted, Abs format (unit mm)*
G04 Created by KiCad (PCBNEW (6.0.1)) date 2022-02-26 16:04:48*
%MOMM*%
%LPD*%
G01*
G04 APERTURE LIST*
%ADD10C,0.150000*%
%ADD11C,0.500000*%
%ADD12C,0.120000*%
%ADD13C,0.100000*%
%ADD14C,1.600000*%
%ADD15R,1.700000X1.700000*%
%ADD16O,1.700000X1.700000*%
%ADD17C,4.000000*%
%ADD18R,1.600000X1.600000*%
%ADD19R,1.300000X1.300000*%
%ADD20C,1.300000*%
%ADD21O,1.600000X1.600000*%
%ADD22R,1.422400X1.422400*%
%ADD23C,1.422400*%
%ADD24R,1.600000X2.400000*%
%ADD25O,1.600000X2.400000*%
%ADD26R,2.400000X1.600000*%
%ADD27O,2.400000X1.600000*%
%ADD28C,1.500000*%
%ADD29C,0.800000*%
%ADD30C,6.400000*%
%ADD31C,2.000000*%
%ADD32O,3.500000X3.500000*%
%ADD33R,1.905000X2.000000*%
%ADD34O,1.905000X2.000000*%
G04 APERTURE END LIST*
D10*
X127976380Y-98003857D02*
X127976380Y-97337190D01*
X128976380Y-97765761D01*
X128309714Y-96527666D02*
X128976380Y-96527666D01*
X127928761Y-96765761D02*
X128643047Y-97003857D01*
X128643047Y-96384809D01*
X128976380Y-96003857D02*
X127976380Y-96003857D01*
X128452571Y-96003857D02*
X128452571Y-95432428D01*
X128976380Y-95432428D02*
X127976380Y-95432428D01*
X128881142Y-94384809D02*
X128928761Y-94432428D01*
X128976380Y-94575285D01*
X128976380Y-94670523D01*
X128928761Y-94813380D01*
X128833523Y-94908619D01*
X128738285Y-94956238D01*
X128547809Y-95003857D01*
X128404952Y-95003857D01*
X128214476Y-94956238D01*
X128119238Y-94908619D01*
X128024000Y-94813380D01*
X127976380Y-94670523D01*
X127976380Y-94575285D01*
X128024000Y-94432428D01*
X128071619Y-94384809D01*
X127976380Y-94099095D02*
X127976380Y-93527666D01*
X128976380Y-93813380D02*
X127976380Y-93813380D01*
X127976380Y-93289571D02*
X127976380Y-92670523D01*
X128357333Y-93003857D01*
X128357333Y-92861000D01*
X128404952Y-92765761D01*
X128452571Y-92718142D01*
X128547809Y-92670523D01*
X128785904Y-92670523D01*
X128881142Y-92718142D01*
X128928761Y-92765761D01*
X128976380Y-92861000D01*
X128976380Y-93146714D01*
X128928761Y-93241952D01*
X128881142Y-93289571D01*
X128976380Y-92194333D02*
X128976380Y-92003857D01*
X128928761Y-91908619D01*
X128881142Y-91861000D01*
X128738285Y-91765761D01*
X128547809Y-91718142D01*
X128166857Y-91718142D01*
X128071619Y-91765761D01*
X128024000Y-91813380D01*
X127976380Y-91908619D01*
X127976380Y-92099095D01*
X128024000Y-92194333D01*
X128071619Y-92241952D01*
X128166857Y-92289571D01*
X128404952Y-92289571D01*
X128500190Y-92241952D01*
X128547809Y-92194333D01*
X128595428Y-92099095D01*
X128595428Y-91908619D01*
X128547809Y-91813380D01*
X128500190Y-91765761D01*
X128404952Y-91718142D01*
X127976380Y-91384809D02*
X127976380Y-90765761D01*
X128357333Y-91099095D01*
X128357333Y-90956238D01*
X128404952Y-90861000D01*
X128452571Y-90813380D01*
X128547809Y-90765761D01*
X128785904Y-90765761D01*
X128881142Y-90813380D01*
X128928761Y-90861000D01*
X128976380Y-90956238D01*
X128976380Y-91241952D01*
X128928761Y-91337190D01*
X128881142Y-91384809D01*
X193897333Y-124658380D02*
X193325904Y-124658380D01*
X193611619Y-124658380D02*
X193611619Y-123658380D01*
X193516380Y-123801238D01*
X193421142Y-123896476D01*
X193325904Y-123944095D01*
X194516380Y-123658380D02*
X194611619Y-123658380D01*
X194706857Y-123706000D01*
X194754476Y-123753619D01*
X194802095Y-123848857D01*
X194849714Y-124039333D01*
X194849714Y-124277428D01*
X194802095Y-124467904D01*
X194754476Y-124563142D01*
X194706857Y-124610761D01*
X194611619Y-124658380D01*
X194516380Y-124658380D01*
X194421142Y-124610761D01*
X194373523Y-124563142D01*
X194325904Y-124467904D01*
X194278285Y-124277428D01*
X194278285Y-124039333D01*
X194325904Y-123848857D01*
X194373523Y-123753619D01*
X194421142Y-123706000D01*
X194516380Y-123658380D01*
X195468761Y-123658380D02*
X195564000Y-123658380D01*
X195659238Y-123706000D01*
X195706857Y-123753619D01*
X195754476Y-123848857D01*
X195802095Y-124039333D01*
X195802095Y-124277428D01*
X195754476Y-124467904D01*
X195706857Y-124563142D01*
X195659238Y-124610761D01*
X195564000Y-124658380D01*
X195468761Y-124658380D01*
X195373523Y-124610761D01*
X195325904Y-124563142D01*
X195278285Y-124467904D01*
X195230666Y-124277428D01*
X195230666Y-124039333D01*
X195278285Y-123848857D01*
X195325904Y-123753619D01*
X195373523Y-123706000D01*
X195468761Y-123658380D01*
X142946380Y-105822666D02*
X142946380Y-106394095D01*
X142946380Y-106108380D02*
X141946380Y-106108380D01*
X142089238Y-106203619D01*
X142184476Y-106298857D01*
X142232095Y-106394095D01*
X141946380Y-105203619D02*
X141946380Y-105108380D01*
X141994000Y-105013142D01*
X142041619Y-104965523D01*
X142136857Y-104917904D01*
X142327333Y-104870285D01*
X142565428Y-104870285D01*
X142755904Y-104917904D01*
X142851142Y-104965523D01*
X142898761Y-105013142D01*
X142946380Y-105108380D01*
X142946380Y-105203619D01*
X142898761Y-105298857D01*
X142851142Y-105346476D01*
X142755904Y-105394095D01*
X142565428Y-105441714D01*
X142327333Y-105441714D01*
X142136857Y-105394095D01*
X142041619Y-105346476D01*
X141994000Y-105298857D01*
X141946380Y-105203619D01*
X141946380Y-104251238D02*
X141946380Y-104156000D01*
X141994000Y-104060761D01*
X142041619Y-104013142D01*
X142136857Y-103965523D01*
X142327333Y-103917904D01*
X142565428Y-103917904D01*
X142755904Y-103965523D01*
X142851142Y-104013142D01*
X142898761Y-104060761D01*
X142946380Y-104156000D01*
X142946380Y-104251238D01*
X142898761Y-104346476D01*
X142851142Y-104394095D01*
X142755904Y-104441714D01*
X142565428Y-104489333D01*
X142327333Y-104489333D01*
X142136857Y-104441714D01*
X142041619Y-104394095D01*
X141994000Y-104346476D01*
X141946380Y-104251238D01*
X164536380Y-138842666D02*
X164536380Y-139414095D01*
X164536380Y-139128380D02*
X163536380Y-139128380D01*
X163679238Y-139223619D01*
X163774476Y-139318857D01*
X163822095Y-139414095D01*
X163536380Y-138223619D02*
X163536380Y-138128380D01*
X163584000Y-138033142D01*
X163631619Y-137985523D01*
X163726857Y-137937904D01*
X163917333Y-137890285D01*
X164155428Y-137890285D01*
X164345904Y-137937904D01*
X164441142Y-137985523D01*
X164488761Y-138033142D01*
X164536380Y-138128380D01*
X164536380Y-138223619D01*
X164488761Y-138318857D01*
X164441142Y-138366476D01*
X164345904Y-138414095D01*
X164155428Y-138461714D01*
X163917333Y-138461714D01*
X163726857Y-138414095D01*
X163631619Y-138366476D01*
X163584000Y-138318857D01*
X163536380Y-138223619D01*
X163536380Y-137271238D02*
X163536380Y-137176000D01*
X163584000Y-137080761D01*
X163631619Y-137033142D01*
X163726857Y-136985523D01*
X163917333Y-136937904D01*
X164155428Y-136937904D01*
X164345904Y-136985523D01*
X164441142Y-137033142D01*
X164488761Y-137080761D01*
X164536380Y-137176000D01*
X164536380Y-137271238D01*
X164488761Y-137366476D01*
X164441142Y-137414095D01*
X164345904Y-137461714D01*
X164155428Y-137509333D01*
X163917333Y-137509333D01*
X163726857Y-137461714D01*
X163631619Y-137414095D01*
X163584000Y-137366476D01*
X163536380Y-137271238D01*
X207216380Y-104608380D02*
X207311619Y-104608380D01*
X207406857Y-104656000D01*
X207454476Y-104703619D01*
X207502095Y-104798857D01*
X207549714Y-104989333D01*
X207549714Y-105227428D01*
X207502095Y-105417904D01*
X207454476Y-105513142D01*
X207406857Y-105560761D01*
X207311619Y-105608380D01*
X207216380Y-105608380D01*
X207121142Y-105560761D01*
X207073523Y-105513142D01*
X207025904Y-105417904D01*
X206978285Y-105227428D01*
X206978285Y-104989333D01*
X207025904Y-104798857D01*
X207073523Y-104703619D01*
X207121142Y-104656000D01*
X207216380Y-104608380D01*
X127857333Y-82113380D02*
X127285904Y-82113380D01*
X127571619Y-82113380D02*
X127571619Y-81113380D01*
X127476380Y-81256238D01*
X127381142Y-81351476D01*
X127285904Y-81399095D01*
X128476380Y-81113380D02*
X128571619Y-81113380D01*
X128666857Y-81161000D01*
X128714476Y-81208619D01*
X128762095Y-81303857D01*
X128809714Y-81494333D01*
X128809714Y-81732428D01*
X128762095Y-81922904D01*
X128714476Y-82018142D01*
X128666857Y-82065761D01*
X128571619Y-82113380D01*
X128476380Y-82113380D01*
X128381142Y-82065761D01*
X128333523Y-82018142D01*
X128285904Y-81922904D01*
X128238285Y-81732428D01*
X128238285Y-81494333D01*
X128285904Y-81303857D01*
X128333523Y-81208619D01*
X128381142Y-81161000D01*
X128476380Y-81113380D01*
X129428761Y-81113380D02*
X129524000Y-81113380D01*
X129619238Y-81161000D01*
X129666857Y-81208619D01*
X129714476Y-81303857D01*
X129762095Y-81494333D01*
X129762095Y-81732428D01*
X129714476Y-81922904D01*
X129666857Y-82018142D01*
X129619238Y-82065761D01*
X129524000Y-82113380D01*
X129428761Y-82113380D01*
X129333523Y-82065761D01*
X129285904Y-82018142D01*
X129238285Y-81922904D01*
X129190666Y-81732428D01*
X129190666Y-81494333D01*
X129238285Y-81303857D01*
X129285904Y-81208619D01*
X129333523Y-81161000D01*
X129428761Y-81113380D01*
X115157333Y-82113380D02*
X114585904Y-82113380D01*
X114871619Y-82113380D02*
X114871619Y-81113380D01*
X114776380Y-81256238D01*
X114681142Y-81351476D01*
X114585904Y-81399095D01*
X115776380Y-81113380D02*
X115871619Y-81113380D01*
X115966857Y-81161000D01*
X116014476Y-81208619D01*
X116062095Y-81303857D01*
X116109714Y-81494333D01*
X116109714Y-81732428D01*
X116062095Y-81922904D01*
X116014476Y-82018142D01*
X115966857Y-82065761D01*
X115871619Y-82113380D01*
X115776380Y-82113380D01*
X115681142Y-82065761D01*
X115633523Y-82018142D01*
X115585904Y-81922904D01*
X115538285Y-81732428D01*
X115538285Y-81494333D01*
X115585904Y-81303857D01*
X115633523Y-81208619D01*
X115681142Y-81161000D01*
X115776380Y-81113380D01*
X116728761Y-81113380D02*
X116824000Y-81113380D01*
X116919238Y-81161000D01*
X116966857Y-81208619D01*
X117014476Y-81303857D01*
X117062095Y-81494333D01*
X117062095Y-81732428D01*
X117014476Y-81922904D01*
X116966857Y-82018142D01*
X116919238Y-82065761D01*
X116824000Y-82113380D01*
X116728761Y-82113380D01*
X116633523Y-82065761D01*
X116585904Y-82018142D01*
X116538285Y-81922904D01*
X116490666Y-81732428D01*
X116490666Y-81494333D01*
X116538285Y-81303857D01*
X116585904Y-81208619D01*
X116633523Y-81161000D01*
X116728761Y-81113380D01*
X206025904Y-119943619D02*
X206073523Y-119896000D01*
X206168761Y-119848380D01*
X206406857Y-119848380D01*
X206502095Y-119896000D01*
X206549714Y-119943619D01*
X206597333Y-120038857D01*
X206597333Y-120134095D01*
X206549714Y-120276952D01*
X205978285Y-120848380D01*
X206597333Y-120848380D01*
X207454476Y-120181714D02*
X207454476Y-120848380D01*
X207216380Y-119800761D02*
X206978285Y-120515047D01*
X207597333Y-120515047D01*
X208168761Y-119848380D02*
X208264000Y-119848380D01*
X208359238Y-119896000D01*
X208406857Y-119943619D01*
X208454476Y-120038857D01*
X208502095Y-120229333D01*
X208502095Y-120467428D01*
X208454476Y-120657904D01*
X208406857Y-120753142D01*
X208359238Y-120800761D01*
X208264000Y-120848380D01*
X208168761Y-120848380D01*
X208073523Y-120800761D01*
X208025904Y-120753142D01*
X207978285Y-120657904D01*
X207930666Y-120467428D01*
X207930666Y-120229333D01*
X207978285Y-120038857D01*
X208025904Y-119943619D01*
X208073523Y-119896000D01*
X208168761Y-119848380D01*
X206025904Y-93273619D02*
X206073523Y-93226000D01*
X206168761Y-93178380D01*
X206406857Y-93178380D01*
X206502095Y-93226000D01*
X206549714Y-93273619D01*
X206597333Y-93368857D01*
X206597333Y-93464095D01*
X206549714Y-93606952D01*
X205978285Y-94178380D01*
X206597333Y-94178380D01*
X207454476Y-93511714D02*
X207454476Y-94178380D01*
X207216380Y-93130761D02*
X206978285Y-93845047D01*
X207597333Y-93845047D01*
X208168761Y-93178380D02*
X208264000Y-93178380D01*
X208359238Y-93226000D01*
X208406857Y-93273619D01*
X208454476Y-93368857D01*
X208502095Y-93559333D01*
X208502095Y-93797428D01*
X208454476Y-93987904D01*
X208406857Y-94083142D01*
X208359238Y-94130761D01*
X208264000Y-94178380D01*
X208168761Y-94178380D01*
X208073523Y-94130761D01*
X208025904Y-94083142D01*
X207978285Y-93987904D01*
X207930666Y-93797428D01*
X207930666Y-93559333D01*
X207978285Y-93368857D01*
X208025904Y-93273619D01*
X208073523Y-93226000D01*
X208168761Y-93178380D01*
X206025904Y-100893619D02*
X206073523Y-100846000D01*
X206168761Y-100798380D01*
X206406857Y-100798380D01*
X206502095Y-100846000D01*
X206549714Y-100893619D01*
X206597333Y-100988857D01*
X206597333Y-101084095D01*
X206549714Y-101226952D01*
X205978285Y-101798380D01*
X206597333Y-101798380D01*
X207454476Y-101131714D02*
X207454476Y-101798380D01*
X207216380Y-100750761D02*
X206978285Y-101465047D01*
X207597333Y-101465047D01*
X208168761Y-100798380D02*
X208264000Y-100798380D01*
X208359238Y-100846000D01*
X208406857Y-100893619D01*
X208454476Y-100988857D01*
X208502095Y-101179333D01*
X208502095Y-101417428D01*
X208454476Y-101607904D01*
X208406857Y-101703142D01*
X208359238Y-101750761D01*
X208264000Y-101798380D01*
X208168761Y-101798380D01*
X208073523Y-101750761D01*
X208025904Y-101703142D01*
X207978285Y-101607904D01*
X207930666Y-101417428D01*
X207930666Y-101179333D01*
X207978285Y-100988857D01*
X208025904Y-100893619D01*
X208073523Y-100846000D01*
X208168761Y-100798380D01*
X206025904Y-89463619D02*
X206073523Y-89416000D01*
X206168761Y-89368380D01*
X206406857Y-89368380D01*
X206502095Y-89416000D01*
X206549714Y-89463619D01*
X206597333Y-89558857D01*
X206597333Y-89654095D01*
X206549714Y-89796952D01*
X205978285Y-90368380D01*
X206597333Y-90368380D01*
X207454476Y-89701714D02*
X207454476Y-90368380D01*
X207216380Y-89320761D02*
X206978285Y-90035047D01*
X207597333Y-90035047D01*
X208168761Y-89368380D02*
X208264000Y-89368380D01*
X208359238Y-89416000D01*
X208406857Y-89463619D01*
X208454476Y-89558857D01*
X208502095Y-89749333D01*
X208502095Y-89987428D01*
X208454476Y-90177904D01*
X208406857Y-90273142D01*
X208359238Y-90320761D01*
X208264000Y-90368380D01*
X208168761Y-90368380D01*
X208073523Y-90320761D01*
X208025904Y-90273142D01*
X207978285Y-90177904D01*
X207930666Y-89987428D01*
X207930666Y-89749333D01*
X207978285Y-89558857D01*
X208025904Y-89463619D01*
X208073523Y-89416000D01*
X208168761Y-89368380D01*
X206025904Y-112323619D02*
X206073523Y-112276000D01*
X206168761Y-112228380D01*
X206406857Y-112228380D01*
X206502095Y-112276000D01*
X206549714Y-112323619D01*
X206597333Y-112418857D01*
X206597333Y-112514095D01*
X206549714Y-112656952D01*
X205978285Y-113228380D01*
X206597333Y-113228380D01*
X207454476Y-112561714D02*
X207454476Y-113228380D01*
X207216380Y-112180761D02*
X206978285Y-112895047D01*
X207597333Y-112895047D01*
X208168761Y-112228380D02*
X208264000Y-112228380D01*
X208359238Y-112276000D01*
X208406857Y-112323619D01*
X208454476Y-112418857D01*
X208502095Y-112609333D01*
X208502095Y-112847428D01*
X208454476Y-113037904D01*
X208406857Y-113133142D01*
X208359238Y-113180761D01*
X208264000Y-113228380D01*
X208168761Y-113228380D01*
X208073523Y-113180761D01*
X208025904Y-113133142D01*
X207978285Y-113037904D01*
X207930666Y-112847428D01*
X207930666Y-112609333D01*
X207978285Y-112418857D01*
X208025904Y-112323619D01*
X208073523Y-112276000D01*
X208168761Y-112228380D01*
X223567809Y-140533380D02*
X223567809Y-139533380D01*
X223948761Y-139533380D01*
X224044000Y-139581000D01*
X224091619Y-139628619D01*
X224139238Y-139723857D01*
X224139238Y-139866714D01*
X224091619Y-139961952D01*
X224044000Y-140009571D01*
X223948761Y-140057190D01*
X223567809Y-140057190D01*
X224567809Y-140533380D02*
X224567809Y-139866714D01*
X224567809Y-140057190D02*
X224615428Y-139961952D01*
X224663047Y-139914333D01*
X224758285Y-139866714D01*
X224853523Y-139866714D01*
X225329714Y-140533380D02*
X225234476Y-140485761D01*
X225186857Y-140438142D01*
X225139238Y-140342904D01*
X225139238Y-140057190D01*
X225186857Y-139961952D01*
X225234476Y-139914333D01*
X225329714Y-139866714D01*
X225472571Y-139866714D01*
X225567809Y-139914333D01*
X225615428Y-139961952D01*
X225663047Y-140057190D01*
X225663047Y-140342904D01*
X225615428Y-140438142D01*
X225567809Y-140485761D01*
X225472571Y-140533380D01*
X225329714Y-140533380D01*
X226520190Y-139866714D02*
X226520190Y-140676238D01*
X226472571Y-140771476D01*
X226424952Y-140819095D01*
X226329714Y-140866714D01*
X226186857Y-140866714D01*
X226091619Y-140819095D01*
X226520190Y-140485761D02*
X226424952Y-140533380D01*
X226234476Y-140533380D01*
X226139238Y-140485761D01*
X226091619Y-140438142D01*
X226044000Y-140342904D01*
X226044000Y-140057190D01*
X226091619Y-139961952D01*
X226139238Y-139914333D01*
X226234476Y-139866714D01*
X226424952Y-139866714D01*
X226520190Y-139914333D01*
X143581380Y-87336238D02*
X143581380Y-87907666D01*
X143581380Y-87621952D02*
X142581380Y-87621952D01*
X142724238Y-87717190D01*
X142819476Y-87812428D01*
X142867095Y-87907666D01*
X142581380Y-86717190D02*
X142581380Y-86621952D01*
X142629000Y-86526714D01*
X142676619Y-86479095D01*
X142771857Y-86431476D01*
X142962333Y-86383857D01*
X143200428Y-86383857D01*
X143390904Y-86431476D01*
X143486142Y-86479095D01*
X143533761Y-86526714D01*
X143581380Y-86621952D01*
X143581380Y-86717190D01*
X143533761Y-86812428D01*
X143486142Y-86860047D01*
X143390904Y-86907666D01*
X143200428Y-86955285D01*
X142962333Y-86955285D01*
X142771857Y-86907666D01*
X142676619Y-86860047D01*
X142629000Y-86812428D01*
X142581380Y-86717190D01*
X143581380Y-85955285D02*
X142581380Y-85955285D01*
X143200428Y-85860047D02*
X143581380Y-85574333D01*
X142914714Y-85574333D02*
X143295666Y-85955285D01*
D11*
X164815428Y-146693142D02*
X164244000Y-146693142D01*
X163958285Y-146836000D01*
X163815428Y-146978857D01*
X163529714Y-147407428D01*
X163386857Y-147978857D01*
X163386857Y-149121714D01*
X163529714Y-149407428D01*
X163672571Y-149550285D01*
X163958285Y-149693142D01*
X164529714Y-149693142D01*
X164815428Y-149550285D01*
X164958285Y-149407428D01*
X165101142Y-149121714D01*
X165101142Y-148407428D01*
X164958285Y-148121714D01*
X164815428Y-147978857D01*
X164529714Y-147836000D01*
X163958285Y-147836000D01*
X163672571Y-147978857D01*
X163529714Y-148121714D01*
X163386857Y-148407428D01*
X167815428Y-146693142D02*
X166386857Y-146693142D01*
X166244000Y-148121714D01*
X166386857Y-147978857D01*
X166672571Y-147836000D01*
X167386857Y-147836000D01*
X167672571Y-147978857D01*
X167815428Y-148121714D01*
X167958285Y-148407428D01*
X167958285Y-149121714D01*
X167815428Y-149407428D01*
X167672571Y-149550285D01*
X167386857Y-149693142D01*
X166672571Y-149693142D01*
X166386857Y-149550285D01*
X166244000Y-149407428D01*
X169815428Y-146693142D02*
X170101142Y-146693142D01*
X170386857Y-146836000D01*
X170529714Y-146978857D01*
X170672571Y-147264571D01*
X170815428Y-147836000D01*
X170815428Y-148550285D01*
X170672571Y-149121714D01*
X170529714Y-149407428D01*
X170386857Y-149550285D01*
X170101142Y-149693142D01*
X169815428Y-149693142D01*
X169529714Y-149550285D01*
X169386857Y-149407428D01*
X169244000Y-149121714D01*
X169101142Y-148550285D01*
X169101142Y-147836000D01*
X169244000Y-147264571D01*
X169386857Y-146978857D01*
X169529714Y-146836000D01*
X169815428Y-146693142D01*
X171958285Y-146978857D02*
X172101142Y-146836000D01*
X172386857Y-146693142D01*
X173101142Y-146693142D01*
X173386857Y-146836000D01*
X173529714Y-146978857D01*
X173672571Y-147264571D01*
X173672571Y-147550285D01*
X173529714Y-147978857D01*
X171815428Y-149693142D01*
X173672571Y-149693142D01*
X174958285Y-148550285D02*
X177244000Y-148550285D01*
X178386857Y-147693142D02*
X179101142Y-149693142D01*
X179815428Y-147693142D01*
X182244000Y-147693142D02*
X182244000Y-150121714D01*
X182101142Y-150407428D01*
X181958285Y-150550285D01*
X181672571Y-150693142D01*
X181244000Y-150693142D01*
X180958285Y-150550285D01*
X182244000Y-149550285D02*
X181958285Y-149693142D01*
X181386857Y-149693142D01*
X181101142Y-149550285D01*
X180958285Y-149407428D01*
X180815428Y-149121714D01*
X180815428Y-148264571D01*
X180958285Y-147978857D01*
X181101142Y-147836000D01*
X181386857Y-147693142D01*
X181958285Y-147693142D01*
X182244000Y-147836000D01*
X184958285Y-149693142D02*
X184958285Y-148121714D01*
X184815428Y-147836000D01*
X184529714Y-147693142D01*
X183958285Y-147693142D01*
X183672571Y-147836000D01*
X184958285Y-149550285D02*
X184672571Y-149693142D01*
X183958285Y-149693142D01*
X183672571Y-149550285D01*
X183529714Y-149264571D01*
X183529714Y-148978857D01*
X183672571Y-148693142D01*
X183958285Y-148550285D01*
X184672571Y-148550285D01*
X184958285Y-148407428D01*
D10*
X154480190Y-123658380D02*
X155146857Y-123658380D01*
X154718285Y-124658380D01*
X155956380Y-123991714D02*
X155956380Y-124658380D01*
X155718285Y-123610761D02*
X155480190Y-124325047D01*
X156099238Y-124325047D01*
X156956380Y-124658380D02*
X156480190Y-124658380D01*
X156480190Y-123658380D01*
X157146857Y-123658380D02*
X157480190Y-124658380D01*
X157813523Y-123658380D01*
X158718285Y-124563142D02*
X158670666Y-124610761D01*
X158527809Y-124658380D01*
X158432571Y-124658380D01*
X158289714Y-124610761D01*
X158194476Y-124515523D01*
X158146857Y-124420285D01*
X158099238Y-124229809D01*
X158099238Y-124086952D01*
X158146857Y-123896476D01*
X158194476Y-123801238D01*
X158289714Y-123706000D01*
X158432571Y-123658380D01*
X158527809Y-123658380D01*
X158670666Y-123706000D01*
X158718285Y-123753619D01*
X159099238Y-123753619D02*
X159146857Y-123706000D01*
X159242095Y-123658380D01*
X159480190Y-123658380D01*
X159575428Y-123706000D01*
X159623047Y-123753619D01*
X159670666Y-123848857D01*
X159670666Y-123944095D01*
X159623047Y-124086952D01*
X159051619Y-124658380D01*
X159670666Y-124658380D01*
X160527809Y-123991714D02*
X160527809Y-124658380D01*
X160289714Y-123610761D02*
X160051619Y-124325047D01*
X160670666Y-124325047D01*
X161527809Y-123658380D02*
X161051619Y-123658380D01*
X161004000Y-124134571D01*
X161051619Y-124086952D01*
X161146857Y-124039333D01*
X161384952Y-124039333D01*
X161480190Y-124086952D01*
X161527809Y-124134571D01*
X161575428Y-124229809D01*
X161575428Y-124467904D01*
X161527809Y-124563142D01*
X161480190Y-124610761D01*
X161384952Y-124658380D01*
X161146857Y-124658380D01*
X161051619Y-124610761D01*
X161004000Y-124563142D01*
X161956380Y-124372666D02*
X162432571Y-124372666D01*
X161861142Y-124658380D02*
X162194476Y-123658380D01*
X162527809Y-124658380D01*
X162861142Y-124658380D02*
X162861142Y-123658380D01*
X163432571Y-124658380D01*
X163432571Y-123658380D01*
X181221142Y-131008380D02*
X180649714Y-131008380D01*
X180935428Y-131008380D02*
X180935428Y-130008380D01*
X180840190Y-130151238D01*
X180744952Y-130246476D01*
X180649714Y-130294095D01*
X181840190Y-130008380D02*
X181935428Y-130008380D01*
X182030666Y-130056000D01*
X182078285Y-130103619D01*
X182125904Y-130198857D01*
X182173523Y-130389333D01*
X182173523Y-130627428D01*
X182125904Y-130817904D01*
X182078285Y-130913142D01*
X182030666Y-130960761D01*
X181935428Y-131008380D01*
X181840190Y-131008380D01*
X181744952Y-130960761D01*
X181697333Y-130913142D01*
X181649714Y-130817904D01*
X181602095Y-130627428D01*
X181602095Y-130389333D01*
X181649714Y-130198857D01*
X181697333Y-130103619D01*
X181744952Y-130056000D01*
X181840190Y-130008380D01*
X183030666Y-130341714D02*
X183030666Y-131008380D01*
X182602095Y-130341714D02*
X182602095Y-130865523D01*
X182649714Y-130960761D01*
X182744952Y-131008380D01*
X182887809Y-131008380D01*
X182983047Y-130960761D01*
X183030666Y-130913142D01*
X188666380Y-141517428D02*
X188666380Y-141993619D01*
X187666380Y-141993619D01*
X188666380Y-141184095D02*
X187666380Y-141184095D01*
X187666380Y-140946000D01*
X187714000Y-140803142D01*
X187809238Y-140707904D01*
X187904476Y-140660285D01*
X188094952Y-140612666D01*
X188237809Y-140612666D01*
X188428285Y-140660285D01*
X188523523Y-140707904D01*
X188618761Y-140803142D01*
X188666380Y-140946000D01*
X188666380Y-141184095D01*
X187666380Y-140279333D02*
X187666380Y-139660285D01*
X188047333Y-139993619D01*
X188047333Y-139850761D01*
X188094952Y-139755523D01*
X188142571Y-139707904D01*
X188237809Y-139660285D01*
X188475904Y-139660285D01*
X188571142Y-139707904D01*
X188618761Y-139755523D01*
X188666380Y-139850761D01*
X188666380Y-140136476D01*
X188618761Y-140231714D01*
X188571142Y-140279333D01*
X187666380Y-139326952D02*
X187666380Y-138707904D01*
X188047333Y-139041238D01*
X188047333Y-138898380D01*
X188094952Y-138803142D01*
X188142571Y-138755523D01*
X188237809Y-138707904D01*
X188475904Y-138707904D01*
X188571142Y-138755523D01*
X188618761Y-138803142D01*
X188666380Y-138898380D01*
X188666380Y-139184095D01*
X188618761Y-139279333D01*
X188571142Y-139326952D01*
X188571142Y-137707904D02*
X188618761Y-137755523D01*
X188666380Y-137898380D01*
X188666380Y-137993619D01*
X188618761Y-138136476D01*
X188523523Y-138231714D01*
X188428285Y-138279333D01*
X188237809Y-138326952D01*
X188094952Y-138326952D01*
X187904476Y-138279333D01*
X187809238Y-138231714D01*
X187714000Y-138136476D01*
X187666380Y-137993619D01*
X187666380Y-137898380D01*
X187714000Y-137755523D01*
X187761619Y-137707904D01*
X187666380Y-137422190D02*
X188666380Y-137088857D01*
X187666380Y-136755523D01*
X157718285Y-144597428D02*
X158480190Y-144597428D01*
X158099238Y-144978380D02*
X158099238Y-144216476D01*
X159432571Y-143978380D02*
X158956380Y-143978380D01*
X158908761Y-144454571D01*
X158956380Y-144406952D01*
X159051619Y-144359333D01*
X159289714Y-144359333D01*
X159384952Y-144406952D01*
X159432571Y-144454571D01*
X159480190Y-144549809D01*
X159480190Y-144787904D01*
X159432571Y-144883142D01*
X159384952Y-144930761D01*
X159289714Y-144978380D01*
X159051619Y-144978380D01*
X158956380Y-144930761D01*
X158908761Y-144883142D01*
X159765904Y-143978380D02*
X160099238Y-144978380D01*
X160432571Y-143978380D01*
X204722968Y-138416636D02*
X204770587Y-138369017D01*
X204865825Y-138321397D01*
X205103920Y-138321397D01*
X205199158Y-138369017D01*
X205246777Y-138416636D01*
X205294396Y-138511874D01*
X205294396Y-138607112D01*
X205246777Y-138749969D01*
X204675349Y-139321397D01*
X205294396Y-139321397D01*
X205722968Y-139321397D02*
X205722968Y-138321397D01*
X206294396Y-139321397D01*
X206294396Y-138321397D01*
X206722968Y-138416636D02*
X206770587Y-138369017D01*
X206865825Y-138321397D01*
X207103920Y-138321397D01*
X207199158Y-138369017D01*
X207246777Y-138416636D01*
X207294396Y-138511874D01*
X207294396Y-138607112D01*
X207246777Y-138749969D01*
X206675349Y-139321397D01*
X207294396Y-139321397D01*
X207675349Y-138416636D02*
X207722968Y-138369017D01*
X207818206Y-138321397D01*
X208056301Y-138321397D01*
X208151539Y-138369017D01*
X208199158Y-138416636D01*
X208246777Y-138511874D01*
X208246777Y-138607112D01*
X208199158Y-138749969D01*
X207627730Y-139321397D01*
X208246777Y-139321397D01*
X208627730Y-138416636D02*
X208675349Y-138369017D01*
X208770587Y-138321397D01*
X209008682Y-138321397D01*
X209103920Y-138369017D01*
X209151539Y-138416636D01*
X209199158Y-138511874D01*
X209199158Y-138607112D01*
X209151539Y-138749969D01*
X208580111Y-139321397D01*
X209199158Y-139321397D01*
X209580111Y-138416636D02*
X209627730Y-138369017D01*
X209722968Y-138321397D01*
X209961063Y-138321397D01*
X210056301Y-138369017D01*
X210103920Y-138416636D01*
X210151539Y-138511874D01*
X210151539Y-138607112D01*
X210103920Y-138749969D01*
X209532492Y-139321397D01*
X210151539Y-139321397D01*
X177975190Y-85558380D02*
X178641857Y-85558380D01*
X178213285Y-86558380D01*
X179451380Y-85891714D02*
X179451380Y-86558380D01*
X179213285Y-85510761D02*
X178975190Y-86225047D01*
X179594238Y-86225047D01*
X180451380Y-86558380D02*
X179975190Y-86558380D01*
X179975190Y-85558380D01*
X180641857Y-85558380D02*
X180975190Y-86558380D01*
X181308523Y-85558380D01*
X182213285Y-86463142D02*
X182165666Y-86510761D01*
X182022809Y-86558380D01*
X181927571Y-86558380D01*
X181784714Y-86510761D01*
X181689476Y-86415523D01*
X181641857Y-86320285D01*
X181594238Y-86129809D01*
X181594238Y-85986952D01*
X181641857Y-85796476D01*
X181689476Y-85701238D01*
X181784714Y-85606000D01*
X181927571Y-85558380D01*
X182022809Y-85558380D01*
X182165666Y-85606000D01*
X182213285Y-85653619D01*
X182594238Y-85653619D02*
X182641857Y-85606000D01*
X182737095Y-85558380D01*
X182975190Y-85558380D01*
X183070428Y-85606000D01*
X183118047Y-85653619D01*
X183165666Y-85748857D01*
X183165666Y-85844095D01*
X183118047Y-85986952D01*
X182546619Y-86558380D01*
X183165666Y-86558380D01*
X184022809Y-85891714D02*
X184022809Y-86558380D01*
X183784714Y-85510761D02*
X183546619Y-86225047D01*
X184165666Y-86225047D01*
X185022809Y-85558380D02*
X184546619Y-85558380D01*
X184499000Y-86034571D01*
X184546619Y-85986952D01*
X184641857Y-85939333D01*
X184879952Y-85939333D01*
X184975190Y-85986952D01*
X185022809Y-86034571D01*
X185070428Y-86129809D01*
X185070428Y-86367904D01*
X185022809Y-86463142D01*
X184975190Y-86510761D01*
X184879952Y-86558380D01*
X184641857Y-86558380D01*
X184546619Y-86510761D01*
X184499000Y-86463142D01*
X185451380Y-86272666D02*
X185927571Y-86272666D01*
X185356142Y-86558380D02*
X185689476Y-85558380D01*
X186022809Y-86558380D01*
X186356142Y-86558380D02*
X186356142Y-85558380D01*
X186927571Y-86558380D01*
X186927571Y-85558380D01*
X172347333Y-137628380D02*
X173014000Y-137628380D01*
X172585428Y-138628380D01*
X173823523Y-137961714D02*
X173823523Y-138628380D01*
X173585428Y-137580761D02*
X173347333Y-138295047D01*
X173966380Y-138295047D01*
X174347333Y-138628380D02*
X174347333Y-137628380D01*
X174347333Y-138104571D02*
X174918761Y-138104571D01*
X174918761Y-138628380D02*
X174918761Y-137628380D01*
X175966380Y-138533142D02*
X175918761Y-138580761D01*
X175775904Y-138628380D01*
X175680666Y-138628380D01*
X175537809Y-138580761D01*
X175442571Y-138485523D01*
X175394952Y-138390285D01*
X175347333Y-138199809D01*
X175347333Y-138056952D01*
X175394952Y-137866476D01*
X175442571Y-137771238D01*
X175537809Y-137676000D01*
X175680666Y-137628380D01*
X175775904Y-137628380D01*
X175918761Y-137676000D01*
X175966380Y-137723619D01*
X176252095Y-137628380D02*
X176823523Y-137628380D01*
X176537809Y-138628380D02*
X176537809Y-137628380D01*
X177347333Y-137628380D02*
X177442571Y-137628380D01*
X177537809Y-137676000D01*
X177585428Y-137723619D01*
X177633047Y-137818857D01*
X177680666Y-138009333D01*
X177680666Y-138247428D01*
X177633047Y-138437904D01*
X177585428Y-138533142D01*
X177537809Y-138580761D01*
X177442571Y-138628380D01*
X177347333Y-138628380D01*
X177252095Y-138580761D01*
X177204476Y-138533142D01*
X177156857Y-138437904D01*
X177109238Y-138247428D01*
X177109238Y-138009333D01*
X177156857Y-137818857D01*
X177204476Y-137723619D01*
X177252095Y-137676000D01*
X177347333Y-137628380D01*
X178299714Y-137628380D02*
X178394952Y-137628380D01*
X178490190Y-137676000D01*
X178537809Y-137723619D01*
X178585428Y-137818857D01*
X178633047Y-138009333D01*
X178633047Y-138247428D01*
X178585428Y-138437904D01*
X178537809Y-138533142D01*
X178490190Y-138580761D01*
X178394952Y-138628380D01*
X178299714Y-138628380D01*
X178204476Y-138580761D01*
X178156857Y-138533142D01*
X178109238Y-138437904D01*
X178061619Y-138247428D01*
X178061619Y-138009333D01*
X178109238Y-137818857D01*
X178156857Y-137723619D01*
X178204476Y-137676000D01*
X178299714Y-137628380D01*
X228758761Y-131643380D02*
X228425428Y-131167190D01*
X228187333Y-131643380D02*
X228187333Y-130643380D01*
X228568285Y-130643380D01*
X228663523Y-130691000D01*
X228711142Y-130738619D01*
X228758761Y-130833857D01*
X228758761Y-130976714D01*
X228711142Y-131071952D01*
X228663523Y-131119571D01*
X228568285Y-131167190D01*
X228187333Y-131167190D01*
X229092095Y-131643380D02*
X229615904Y-130976714D01*
X229092095Y-130976714D02*
X229615904Y-131643380D01*
X157043761Y-105608380D02*
X157043761Y-104608380D01*
X157424714Y-104608380D01*
X157519952Y-104656000D01*
X157567571Y-104703619D01*
X157615190Y-104798857D01*
X157615190Y-104941714D01*
X157567571Y-105036952D01*
X157519952Y-105084571D01*
X157424714Y-105132190D01*
X157043761Y-105132190D01*
X158186619Y-105036952D02*
X158091380Y-104989333D01*
X158043761Y-104941714D01*
X157996142Y-104846476D01*
X157996142Y-104798857D01*
X158043761Y-104703619D01*
X158091380Y-104656000D01*
X158186619Y-104608380D01*
X158377095Y-104608380D01*
X158472333Y-104656000D01*
X158519952Y-104703619D01*
X158567571Y-104798857D01*
X158567571Y-104846476D01*
X158519952Y-104941714D01*
X158472333Y-104989333D01*
X158377095Y-105036952D01*
X158186619Y-105036952D01*
X158091380Y-105084571D01*
X158043761Y-105132190D01*
X157996142Y-105227428D01*
X157996142Y-105417904D01*
X158043761Y-105513142D01*
X158091380Y-105560761D01*
X158186619Y-105608380D01*
X158377095Y-105608380D01*
X158472333Y-105560761D01*
X158519952Y-105513142D01*
X158567571Y-105417904D01*
X158567571Y-105227428D01*
X158519952Y-105132190D01*
X158472333Y-105084571D01*
X158377095Y-105036952D01*
X158900904Y-104608380D02*
X159567571Y-105608380D01*
X159567571Y-104608380D02*
X158900904Y-105608380D01*
X159853285Y-104608380D02*
X160472333Y-104608380D01*
X160139000Y-104989333D01*
X160281857Y-104989333D01*
X160377095Y-105036952D01*
X160424714Y-105084571D01*
X160472333Y-105179809D01*
X160472333Y-105417904D01*
X160424714Y-105513142D01*
X160377095Y-105560761D01*
X160281857Y-105608380D01*
X159996142Y-105608380D01*
X159900904Y-105560761D01*
X159853285Y-105513142D01*
X160853285Y-104703619D02*
X160900904Y-104656000D01*
X160996142Y-104608380D01*
X161234238Y-104608380D01*
X161329476Y-104656000D01*
X161377095Y-104703619D01*
X161424714Y-104798857D01*
X161424714Y-104894095D01*
X161377095Y-105036952D01*
X160805666Y-105608380D01*
X161424714Y-105608380D01*
X161805666Y-105322666D02*
X162281857Y-105322666D01*
X161710428Y-105608380D02*
X162043761Y-104608380D01*
X162377095Y-105608380D01*
X214693523Y-136088380D02*
X214122095Y-136088380D01*
X214407809Y-136088380D02*
X214407809Y-135088380D01*
X214312571Y-135231238D01*
X214217333Y-135326476D01*
X214122095Y-135374095D01*
X215312571Y-135088380D02*
X215407809Y-135088380D01*
X215503047Y-135136000D01*
X215550666Y-135183619D01*
X215598285Y-135278857D01*
X215645904Y-135469333D01*
X215645904Y-135707428D01*
X215598285Y-135897904D01*
X215550666Y-135993142D01*
X215503047Y-136040761D01*
X215407809Y-136088380D01*
X215312571Y-136088380D01*
X215217333Y-136040761D01*
X215169714Y-135993142D01*
X215122095Y-135897904D01*
X215074476Y-135707428D01*
X215074476Y-135469333D01*
X215122095Y-135278857D01*
X215169714Y-135183619D01*
X215217333Y-135136000D01*
X215312571Y-135088380D01*
X162822095Y-85558380D02*
X162345904Y-85558380D01*
X162298285Y-86034571D01*
X162345904Y-85986952D01*
X162441142Y-85939333D01*
X162679238Y-85939333D01*
X162774476Y-85986952D01*
X162822095Y-86034571D01*
X162869714Y-86129809D01*
X162869714Y-86367904D01*
X162822095Y-86463142D01*
X162774476Y-86510761D01*
X162679238Y-86558380D01*
X162441142Y-86558380D01*
X162345904Y-86510761D01*
X162298285Y-86463142D01*
X163298285Y-86558380D02*
X163298285Y-85558380D01*
X163631619Y-86272666D01*
X163964952Y-85558380D01*
X163964952Y-86558380D01*
X164441142Y-86558380D02*
X164441142Y-85558380D01*
X164441142Y-86034571D02*
X165012571Y-86034571D01*
X165012571Y-86558380D02*
X165012571Y-85558380D01*
X165393523Y-85891714D02*
X165917333Y-85891714D01*
X165393523Y-86558380D01*
X165917333Y-86558380D01*
X212224952Y-129738380D02*
X211653523Y-129738380D01*
X211939238Y-129738380D02*
X211939238Y-128738380D01*
X211844000Y-128881238D01*
X211748761Y-128976476D01*
X211653523Y-129024095D01*
X212653523Y-129738380D02*
X212653523Y-128738380D01*
X212748761Y-129357428D02*
X213034476Y-129738380D01*
X213034476Y-129071714D02*
X212653523Y-129452666D01*
X207930904Y-150693380D02*
X207597571Y-150217190D01*
X207359476Y-150693380D02*
X207359476Y-149693380D01*
X207740428Y-149693380D01*
X207835666Y-149741000D01*
X207883285Y-149788619D01*
X207930904Y-149883857D01*
X207930904Y-150026714D01*
X207883285Y-150121952D01*
X207835666Y-150169571D01*
X207740428Y-150217190D01*
X207359476Y-150217190D01*
X208740428Y-150645761D02*
X208645190Y-150693380D01*
X208454714Y-150693380D01*
X208359476Y-150645761D01*
X208311857Y-150550523D01*
X208311857Y-150169571D01*
X208359476Y-150074333D01*
X208454714Y-150026714D01*
X208645190Y-150026714D01*
X208740428Y-150074333D01*
X208788047Y-150169571D01*
X208788047Y-150264809D01*
X208311857Y-150360047D01*
X209169000Y-150645761D02*
X209264238Y-150693380D01*
X209454714Y-150693380D01*
X209549952Y-150645761D01*
X209597571Y-150550523D01*
X209597571Y-150502904D01*
X209549952Y-150407666D01*
X209454714Y-150360047D01*
X209311857Y-150360047D01*
X209216619Y-150312428D01*
X209169000Y-150217190D01*
X209169000Y-150169571D01*
X209216619Y-150074333D01*
X209311857Y-150026714D01*
X209454714Y-150026714D01*
X209549952Y-150074333D01*
X210407095Y-150645761D02*
X210311857Y-150693380D01*
X210121380Y-150693380D01*
X210026142Y-150645761D01*
X209978523Y-150550523D01*
X209978523Y-150169571D01*
X210026142Y-150074333D01*
X210121380Y-150026714D01*
X210311857Y-150026714D01*
X210407095Y-150074333D01*
X210454714Y-150169571D01*
X210454714Y-150264809D01*
X209978523Y-150360047D01*
X210740428Y-150026714D02*
X211121380Y-150026714D01*
X210883285Y-149693380D02*
X210883285Y-150550523D01*
X210930904Y-150645761D01*
X211026142Y-150693380D01*
X211121380Y-150693380D01*
X115276380Y-97368857D02*
X115276380Y-96702190D01*
X116276380Y-97130761D01*
X115609714Y-95892666D02*
X116276380Y-95892666D01*
X115228761Y-96130761D02*
X115943047Y-96368857D01*
X115943047Y-95749809D01*
X116276380Y-95368857D02*
X115276380Y-95368857D01*
X115752571Y-95368857D02*
X115752571Y-94797428D01*
X116276380Y-94797428D02*
X115276380Y-94797428D01*
X116181142Y-93749809D02*
X116228761Y-93797428D01*
X116276380Y-93940285D01*
X116276380Y-94035523D01*
X116228761Y-94178380D01*
X116133523Y-94273619D01*
X116038285Y-94321238D01*
X115847809Y-94368857D01*
X115704952Y-94368857D01*
X115514476Y-94321238D01*
X115419238Y-94273619D01*
X115324000Y-94178380D01*
X115276380Y-94035523D01*
X115276380Y-93940285D01*
X115324000Y-93797428D01*
X115371619Y-93749809D01*
X115276380Y-93464095D02*
X115276380Y-92892666D01*
X116276380Y-93178380D02*
X115276380Y-93178380D01*
X115276380Y-92654571D02*
X115276380Y-92035523D01*
X115657333Y-92368857D01*
X115657333Y-92226000D01*
X115704952Y-92130761D01*
X115752571Y-92083142D01*
X115847809Y-92035523D01*
X116085904Y-92035523D01*
X116181142Y-92083142D01*
X116228761Y-92130761D01*
X116276380Y-92226000D01*
X116276380Y-92511714D01*
X116228761Y-92606952D01*
X116181142Y-92654571D01*
X116276380Y-91559333D02*
X116276380Y-91368857D01*
X116228761Y-91273619D01*
X116181142Y-91226000D01*
X116038285Y-91130761D01*
X115847809Y-91083142D01*
X115466857Y-91083142D01*
X115371619Y-91130761D01*
X115324000Y-91178380D01*
X115276380Y-91273619D01*
X115276380Y-91464095D01*
X115324000Y-91559333D01*
X115371619Y-91606952D01*
X115466857Y-91654571D01*
X115704952Y-91654571D01*
X115800190Y-91606952D01*
X115847809Y-91559333D01*
X115895428Y-91464095D01*
X115895428Y-91273619D01*
X115847809Y-91178380D01*
X115800190Y-91130761D01*
X115704952Y-91083142D01*
X115276380Y-90749809D02*
X115276380Y-90130761D01*
X115657333Y-90464095D01*
X115657333Y-90321238D01*
X115704952Y-90226000D01*
X115752571Y-90178380D01*
X115847809Y-90130761D01*
X116085904Y-90130761D01*
X116181142Y-90178380D01*
X116228761Y-90226000D01*
X116276380Y-90321238D01*
X116276380Y-90606952D01*
X116228761Y-90702190D01*
X116181142Y-90749809D01*
X143003599Y-125185641D02*
X143003599Y-125757070D01*
X143003599Y-125471355D02*
X142003599Y-125471355D01*
X142146457Y-125566594D01*
X142241695Y-125661832D01*
X142289314Y-125757070D01*
X142003599Y-124566594D02*
X142003599Y-124471355D01*
X142051219Y-124376117D01*
X142098838Y-124328498D01*
X142194076Y-124280879D01*
X142384552Y-124233260D01*
X142622647Y-124233260D01*
X142813123Y-124280879D01*
X142908361Y-124328498D01*
X142955980Y-124376117D01*
X143003599Y-124471355D01*
X143003599Y-124566594D01*
X142955980Y-124661832D01*
X142908361Y-124709451D01*
X142813123Y-124757070D01*
X142622647Y-124804689D01*
X142384552Y-124804689D01*
X142194076Y-124757070D01*
X142098838Y-124709451D01*
X142051219Y-124661832D01*
X142003599Y-124566594D01*
X142003599Y-123614213D02*
X142003599Y-123518975D01*
X142051219Y-123423736D01*
X142098838Y-123376117D01*
X142194076Y-123328498D01*
X142384552Y-123280879D01*
X142622647Y-123280879D01*
X142813123Y-123328498D01*
X142908361Y-123376117D01*
X142955980Y-123423736D01*
X143003599Y-123518975D01*
X143003599Y-123614213D01*
X142955980Y-123709451D01*
X142908361Y-123757070D01*
X142813123Y-123804689D01*
X142622647Y-123852308D01*
X142384552Y-123852308D01*
X142194076Y-123804689D01*
X142098838Y-123757070D01*
X142051219Y-123709451D01*
X142003599Y-123614213D01*
X116213285Y-122118380D02*
X116213285Y-121118380D01*
X116689476Y-122118380D02*
X116689476Y-121118380D01*
X116927571Y-121118380D01*
X117070428Y-121166000D01*
X117165666Y-121261238D01*
X117213285Y-121356476D01*
X117260904Y-121546952D01*
X117260904Y-121689809D01*
X117213285Y-121880285D01*
X117165666Y-121975523D01*
X117070428Y-122070761D01*
X116927571Y-122118380D01*
X116689476Y-122118380D01*
X117546619Y-121118380D02*
X118118047Y-121118380D01*
X117832333Y-122118380D02*
X117832333Y-121118380D01*
X118356142Y-121118380D02*
X119022809Y-121118380D01*
X118594238Y-122118380D01*
X119594238Y-121118380D02*
X119689476Y-121118380D01*
X119784714Y-121166000D01*
X119832333Y-121213619D01*
X119879952Y-121308857D01*
X119927571Y-121499333D01*
X119927571Y-121737428D01*
X119879952Y-121927904D01*
X119832333Y-122023142D01*
X119784714Y-122070761D01*
X119689476Y-122118380D01*
X119594238Y-122118380D01*
X119499000Y-122070761D01*
X119451380Y-122023142D01*
X119403761Y-121927904D01*
X119356142Y-121737428D01*
X119356142Y-121499333D01*
X119403761Y-121308857D01*
X119451380Y-121213619D01*
X119499000Y-121166000D01*
X119594238Y-121118380D01*
X120546619Y-121118380D02*
X120641857Y-121118380D01*
X120737095Y-121166000D01*
X120784714Y-121213619D01*
X120832333Y-121308857D01*
X120879952Y-121499333D01*
X120879952Y-121737428D01*
X120832333Y-121927904D01*
X120784714Y-122023142D01*
X120737095Y-122070761D01*
X120641857Y-122118380D01*
X120546619Y-122118380D01*
X120451380Y-122070761D01*
X120403761Y-122023142D01*
X120356142Y-121927904D01*
X120308523Y-121737428D01*
X120308523Y-121499333D01*
X120356142Y-121308857D01*
X120403761Y-121213619D01*
X120451380Y-121166000D01*
X120546619Y-121118380D01*
X121737095Y-121118380D02*
X121546619Y-121118380D01*
X121451380Y-121166000D01*
X121403761Y-121213619D01*
X121308523Y-121356476D01*
X121260904Y-121546952D01*
X121260904Y-121927904D01*
X121308523Y-122023142D01*
X121356142Y-122070761D01*
X121451380Y-122118380D01*
X121641857Y-122118380D01*
X121737095Y-122070761D01*
X121784714Y-122023142D01*
X121832333Y-121927904D01*
X121832333Y-121689809D01*
X121784714Y-121594571D01*
X121737095Y-121546952D01*
X121641857Y-121499333D01*
X121451380Y-121499333D01*
X121356142Y-121546952D01*
X121308523Y-121594571D01*
X121260904Y-121689809D01*
X139136380Y-134397666D02*
X139136380Y-134969095D01*
X139136380Y-134683380D02*
X138136380Y-134683380D01*
X138279238Y-134778619D01*
X138374476Y-134873857D01*
X138422095Y-134969095D01*
X138136380Y-133778619D02*
X138136380Y-133683380D01*
X138184000Y-133588142D01*
X138231619Y-133540523D01*
X138326857Y-133492904D01*
X138517333Y-133445285D01*
X138755428Y-133445285D01*
X138945904Y-133492904D01*
X139041142Y-133540523D01*
X139088761Y-133588142D01*
X139136380Y-133683380D01*
X139136380Y-133778619D01*
X139088761Y-133873857D01*
X139041142Y-133921476D01*
X138945904Y-133969095D01*
X138755428Y-134016714D01*
X138517333Y-134016714D01*
X138326857Y-133969095D01*
X138231619Y-133921476D01*
X138184000Y-133873857D01*
X138136380Y-133778619D01*
X138136380Y-132826238D02*
X138136380Y-132731000D01*
X138184000Y-132635761D01*
X138231619Y-132588142D01*
X138326857Y-132540523D01*
X138517333Y-132492904D01*
X138755428Y-132492904D01*
X138945904Y-132540523D01*
X139041142Y-132588142D01*
X139088761Y-132635761D01*
X139136380Y-132731000D01*
X139136380Y-132826238D01*
X139088761Y-132921476D01*
X139041142Y-132969095D01*
X138945904Y-133016714D01*
X138755428Y-133064333D01*
X138517333Y-133064333D01*
X138326857Y-133016714D01*
X138231619Y-132969095D01*
X138184000Y-132921476D01*
X138136380Y-132826238D01*
X158242095Y-147836000D02*
X158146857Y-147788380D01*
X158004000Y-147788380D01*
X157861142Y-147836000D01*
X157765904Y-147931238D01*
X157718285Y-148026476D01*
X157670666Y-148216952D01*
X157670666Y-148359809D01*
X157718285Y-148550285D01*
X157765904Y-148645523D01*
X157861142Y-148740761D01*
X158004000Y-148788380D01*
X158099238Y-148788380D01*
X158242095Y-148740761D01*
X158289714Y-148693142D01*
X158289714Y-148359809D01*
X158099238Y-148359809D01*
X158718285Y-148788380D02*
X158718285Y-147788380D01*
X159289714Y-148788380D01*
X159289714Y-147788380D01*
X159765904Y-148788380D02*
X159765904Y-147788380D01*
X160004000Y-147788380D01*
X160146857Y-147836000D01*
X160242095Y-147931238D01*
X160289714Y-148026476D01*
X160337333Y-148216952D01*
X160337333Y-148359809D01*
X160289714Y-148550285D01*
X160242095Y-148645523D01*
X160146857Y-148740761D01*
X160004000Y-148788380D01*
X159765904Y-148788380D01*
X228163523Y-133183380D02*
X228734952Y-133183380D01*
X228449238Y-134183380D02*
X228449238Y-133183380D01*
X228973047Y-134183380D02*
X229496857Y-133516714D01*
X228973047Y-133516714D02*
X229496857Y-134183380D01*
X206502095Y-108751714D02*
X206502095Y-109418380D01*
X206264000Y-108370761D02*
X206025904Y-109085047D01*
X206644952Y-109085047D01*
X206930666Y-108418380D02*
X207597333Y-108418380D01*
X207168761Y-109418380D01*
X208168761Y-108418380D02*
X208264000Y-108418380D01*
X208359238Y-108466000D01*
X208406857Y-108513619D01*
X208454476Y-108608857D01*
X208502095Y-108799333D01*
X208502095Y-109037428D01*
X208454476Y-109227904D01*
X208406857Y-109323142D01*
X208359238Y-109370761D01*
X208264000Y-109418380D01*
X208168761Y-109418380D01*
X208073523Y-109370761D01*
X208025904Y-109323142D01*
X207978285Y-109227904D01*
X207930666Y-109037428D01*
X207930666Y-108799333D01*
X207978285Y-108608857D01*
X208025904Y-108513619D01*
X208073523Y-108466000D01*
X208168761Y-108418380D01*
X206502095Y-116371714D02*
X206502095Y-117038380D01*
X206264000Y-115990761D02*
X206025904Y-116705047D01*
X206644952Y-116705047D01*
X206930666Y-116038380D02*
X207597333Y-116038380D01*
X207168761Y-117038380D01*
X208168761Y-116038380D02*
X208264000Y-116038380D01*
X208359238Y-116086000D01*
X208406857Y-116133619D01*
X208454476Y-116228857D01*
X208502095Y-116419333D01*
X208502095Y-116657428D01*
X208454476Y-116847904D01*
X208406857Y-116943142D01*
X208359238Y-116990761D01*
X208264000Y-117038380D01*
X208168761Y-117038380D01*
X208073523Y-116990761D01*
X208025904Y-116943142D01*
X207978285Y-116847904D01*
X207930666Y-116657428D01*
X207930666Y-116419333D01*
X207978285Y-116228857D01*
X208025904Y-116133619D01*
X208073523Y-116086000D01*
X208168761Y-116038380D01*
X211129714Y-124928380D02*
X211748761Y-124928380D01*
X211415428Y-125309333D01*
X211558285Y-125309333D01*
X211653523Y-125356952D01*
X211701142Y-125404571D01*
X211748761Y-125499809D01*
X211748761Y-125737904D01*
X211701142Y-125833142D01*
X211653523Y-125880761D01*
X211558285Y-125928380D01*
X211272571Y-125928380D01*
X211177333Y-125880761D01*
X211129714Y-125833142D01*
X212082095Y-124928380D02*
X212701142Y-124928380D01*
X212367809Y-125309333D01*
X212510666Y-125309333D01*
X212605904Y-125356952D01*
X212653523Y-125404571D01*
X212701142Y-125499809D01*
X212701142Y-125737904D01*
X212653523Y-125833142D01*
X212605904Y-125880761D01*
X212510666Y-125928380D01*
X212224952Y-125928380D01*
X212129714Y-125880761D01*
X212082095Y-125833142D01*
X213129714Y-125928380D02*
X213129714Y-124928380D01*
X213224952Y-125547428D02*
X213510666Y-125928380D01*
X213510666Y-125261714D02*
X213129714Y-125642666D01*
X228346142Y-136723380D02*
X228346142Y-135723380D01*
X228584238Y-135723380D01*
X228727095Y-135771000D01*
X228822333Y-135866238D01*
X228869952Y-135961476D01*
X228917571Y-136151952D01*
X228917571Y-136294809D01*
X228869952Y-136485285D01*
X228822333Y-136580523D01*
X228727095Y-136675761D01*
X228584238Y-136723380D01*
X228346142Y-136723380D01*
X229203285Y-135723380D02*
X229774714Y-135723380D01*
X229489000Y-136723380D02*
X229489000Y-135723380D01*
X230679476Y-136723380D02*
X230346142Y-136247190D01*
X230108047Y-136723380D02*
X230108047Y-135723380D01*
X230489000Y-135723380D01*
X230584238Y-135771000D01*
X230631857Y-135818619D01*
X230679476Y-135913857D01*
X230679476Y-136056714D01*
X230631857Y-136151952D01*
X230584238Y-136199571D01*
X230489000Y-136247190D01*
X230108047Y-136247190D01*
X139136380Y-87336238D02*
X139136380Y-87907666D01*
X139136380Y-87621952D02*
X138136380Y-87621952D01*
X138279238Y-87717190D01*
X138374476Y-87812428D01*
X138422095Y-87907666D01*
X138136380Y-86717190D02*
X138136380Y-86621952D01*
X138184000Y-86526714D01*
X138231619Y-86479095D01*
X138326857Y-86431476D01*
X138517333Y-86383857D01*
X138755428Y-86383857D01*
X138945904Y-86431476D01*
X139041142Y-86479095D01*
X139088761Y-86526714D01*
X139136380Y-86621952D01*
X139136380Y-86717190D01*
X139088761Y-86812428D01*
X139041142Y-86860047D01*
X138945904Y-86907666D01*
X138755428Y-86955285D01*
X138517333Y-86955285D01*
X138326857Y-86907666D01*
X138231619Y-86860047D01*
X138184000Y-86812428D01*
X138136380Y-86717190D01*
X139136380Y-85955285D02*
X138136380Y-85955285D01*
X138755428Y-85860047D02*
X139136380Y-85574333D01*
X138469714Y-85574333D02*
X138850666Y-85955285D01*
X200247333Y-85288380D02*
X199675904Y-85288380D01*
X199961619Y-85288380D02*
X199961619Y-84288380D01*
X199866380Y-84431238D01*
X199771142Y-84526476D01*
X199675904Y-84574095D01*
X200866380Y-84288380D02*
X200961619Y-84288380D01*
X201056857Y-84336000D01*
X201104476Y-84383619D01*
X201152095Y-84478857D01*
X201199714Y-84669333D01*
X201199714Y-84907428D01*
X201152095Y-85097904D01*
X201104476Y-85193142D01*
X201056857Y-85240761D01*
X200961619Y-85288380D01*
X200866380Y-85288380D01*
X200771142Y-85240761D01*
X200723523Y-85193142D01*
X200675904Y-85097904D01*
X200628285Y-84907428D01*
X200628285Y-84669333D01*
X200675904Y-84478857D01*
X200723523Y-84383619D01*
X200771142Y-84336000D01*
X200866380Y-84288380D01*
X201818761Y-84288380D02*
X201914000Y-84288380D01*
X202009238Y-84336000D01*
X202056857Y-84383619D01*
X202104476Y-84478857D01*
X202152095Y-84669333D01*
X202152095Y-84907428D01*
X202104476Y-85097904D01*
X202056857Y-85193142D01*
X202009238Y-85240761D01*
X201914000Y-85288380D01*
X201818761Y-85288380D01*
X201723523Y-85240761D01*
X201675904Y-85193142D01*
X201628285Y-85097904D01*
X201580666Y-84907428D01*
X201580666Y-84669333D01*
X201628285Y-84478857D01*
X201675904Y-84383619D01*
X201723523Y-84336000D01*
X201818761Y-84288380D01*
X148923761Y-85653619D02*
X148971380Y-85606000D01*
X149066619Y-85558380D01*
X149304714Y-85558380D01*
X149399952Y-85606000D01*
X149447571Y-85653619D01*
X149495190Y-85748857D01*
X149495190Y-85844095D01*
X149447571Y-85986952D01*
X148876142Y-86558380D01*
X149495190Y-86558380D01*
X150352333Y-85891714D02*
X150352333Y-86558380D01*
X150114238Y-85510761D02*
X149876142Y-86225047D01*
X150495190Y-86225047D01*
X151352333Y-86558380D02*
X150876142Y-86558380D01*
X150876142Y-85558380D01*
X152257095Y-86463142D02*
X152209476Y-86510761D01*
X152066619Y-86558380D01*
X151971380Y-86558380D01*
X151828523Y-86510761D01*
X151733285Y-86415523D01*
X151685666Y-86320285D01*
X151638047Y-86129809D01*
X151638047Y-85986952D01*
X151685666Y-85796476D01*
X151733285Y-85701238D01*
X151828523Y-85606000D01*
X151971380Y-85558380D01*
X152066619Y-85558380D01*
X152209476Y-85606000D01*
X152257095Y-85653619D01*
X152638047Y-85653619D02*
X152685666Y-85606000D01*
X152780904Y-85558380D01*
X153019000Y-85558380D01*
X153114238Y-85606000D01*
X153161857Y-85653619D01*
X153209476Y-85748857D01*
X153209476Y-85844095D01*
X153161857Y-85986952D01*
X152590428Y-86558380D01*
X153209476Y-86558380D01*
X154114238Y-85558380D02*
X153638047Y-85558380D01*
X153590428Y-86034571D01*
X153638047Y-85986952D01*
X153733285Y-85939333D01*
X153971380Y-85939333D01*
X154066619Y-85986952D01*
X154114238Y-86034571D01*
X154161857Y-86129809D01*
X154161857Y-86367904D01*
X154114238Y-86463142D01*
X154066619Y-86510761D01*
X153971380Y-86558380D01*
X153733285Y-86558380D01*
X153638047Y-86510761D01*
X153590428Y-86463142D01*
X155019000Y-85558380D02*
X154828523Y-85558380D01*
X154733285Y-85606000D01*
X154685666Y-85653619D01*
X154590428Y-85796476D01*
X154542809Y-85986952D01*
X154542809Y-86367904D01*
X154590428Y-86463142D01*
X154638047Y-86510761D01*
X154733285Y-86558380D01*
X154923761Y-86558380D01*
X155019000Y-86510761D01*
X155066619Y-86463142D01*
X155114238Y-86367904D01*
X155114238Y-86129809D01*
X155066619Y-86034571D01*
X155019000Y-85986952D01*
X154923761Y-85939333D01*
X154733285Y-85939333D01*
X154638047Y-85986952D01*
X154590428Y-86034571D01*
X154542809Y-86129809D01*
X228727095Y-128151000D02*
X228631857Y-128103380D01*
X228489000Y-128103380D01*
X228346142Y-128151000D01*
X228250904Y-128246238D01*
X228203285Y-128341476D01*
X228155666Y-128531952D01*
X228155666Y-128674809D01*
X228203285Y-128865285D01*
X228250904Y-128960523D01*
X228346142Y-129055761D01*
X228489000Y-129103380D01*
X228584238Y-129103380D01*
X228727095Y-129055761D01*
X228774714Y-129008142D01*
X228774714Y-128674809D01*
X228584238Y-128674809D01*
X229203285Y-129103380D02*
X229203285Y-128103380D01*
X229774714Y-129103380D01*
X229774714Y-128103380D01*
X230250904Y-129103380D02*
X230250904Y-128103380D01*
X230489000Y-128103380D01*
X230631857Y-128151000D01*
X230727095Y-128246238D01*
X230774714Y-128341476D01*
X230822333Y-128531952D01*
X230822333Y-128674809D01*
X230774714Y-128865285D01*
X230727095Y-128960523D01*
X230631857Y-129055761D01*
X230489000Y-129103380D01*
X230250904Y-129103380D01*
X206502095Y-97321714D02*
X206502095Y-97988380D01*
X206264000Y-96940761D02*
X206025904Y-97655047D01*
X206644952Y-97655047D01*
X206930666Y-96988380D02*
X207597333Y-96988380D01*
X207168761Y-97988380D01*
X208168761Y-96988380D02*
X208264000Y-96988380D01*
X208359238Y-97036000D01*
X208406857Y-97083619D01*
X208454476Y-97178857D01*
X208502095Y-97369333D01*
X208502095Y-97607428D01*
X208454476Y-97797904D01*
X208406857Y-97893142D01*
X208359238Y-97940761D01*
X208264000Y-97988380D01*
X208168761Y-97988380D01*
X208073523Y-97940761D01*
X208025904Y-97893142D01*
X207978285Y-97797904D01*
X207930666Y-97607428D01*
X207930666Y-97369333D01*
X207978285Y-97178857D01*
X208025904Y-97083619D01*
X208073523Y-97036000D01*
X208168761Y-96988380D01*
X141017333Y-134429142D02*
X140969714Y-134476761D01*
X140826857Y-134524380D01*
X140731619Y-134524380D01*
X140588761Y-134476761D01*
X140493523Y-134381523D01*
X140445904Y-134286285D01*
X140398285Y-134095809D01*
X140398285Y-133952952D01*
X140445904Y-133762476D01*
X140493523Y-133667238D01*
X140588761Y-133572000D01*
X140731619Y-133524380D01*
X140826857Y-133524380D01*
X140969714Y-133572000D01*
X141017333Y-133619619D01*
X141969714Y-134524380D02*
X141398285Y-134524380D01*
X141684000Y-134524380D02*
X141684000Y-133524380D01*
X141588761Y-133667238D01*
X141493523Y-133762476D01*
X141398285Y-133810095D01*
X139152333Y-124857142D02*
X139104714Y-124904761D01*
X138961857Y-124952380D01*
X138866619Y-124952380D01*
X138723761Y-124904761D01*
X138628523Y-124809523D01*
X138580904Y-124714285D01*
X138533285Y-124523809D01*
X138533285Y-124380952D01*
X138580904Y-124190476D01*
X138628523Y-124095238D01*
X138723761Y-124000000D01*
X138866619Y-123952380D01*
X138961857Y-123952380D01*
X139104714Y-124000000D01*
X139152333Y-124047619D01*
X139533285Y-124047619D02*
X139580904Y-124000000D01*
X139676142Y-123952380D01*
X139914238Y-123952380D01*
X140009476Y-124000000D01*
X140057095Y-124047619D01*
X140104714Y-124142857D01*
X140104714Y-124238095D01*
X140057095Y-124380952D01*
X139485666Y-124952380D01*
X140104714Y-124952380D01*
X139787333Y-105513142D02*
X139739714Y-105560761D01*
X139596857Y-105608380D01*
X139501619Y-105608380D01*
X139358761Y-105560761D01*
X139263523Y-105465523D01*
X139215904Y-105370285D01*
X139168285Y-105179809D01*
X139168285Y-105036952D01*
X139215904Y-104846476D01*
X139263523Y-104751238D01*
X139358761Y-104656000D01*
X139501619Y-104608380D01*
X139596857Y-104608380D01*
X139739714Y-104656000D01*
X139787333Y-104703619D01*
X140644476Y-104941714D02*
X140644476Y-105608380D01*
X140406380Y-104560761D02*
X140168285Y-105275047D01*
X140787333Y-105275047D01*
X200787333Y-82653142D02*
X200739714Y-82700761D01*
X200596857Y-82748380D01*
X200501619Y-82748380D01*
X200358761Y-82700761D01*
X200263523Y-82605523D01*
X200215904Y-82510285D01*
X200168285Y-82319809D01*
X200168285Y-82176952D01*
X200215904Y-81986476D01*
X200263523Y-81891238D01*
X200358761Y-81796000D01*
X200501619Y-81748380D01*
X200596857Y-81748380D01*
X200739714Y-81796000D01*
X200787333Y-81843619D01*
X201692095Y-81748380D02*
X201215904Y-81748380D01*
X201168285Y-82224571D01*
X201215904Y-82176952D01*
X201311142Y-82129333D01*
X201549238Y-82129333D01*
X201644476Y-82176952D01*
X201692095Y-82224571D01*
X201739714Y-82319809D01*
X201739714Y-82557904D01*
X201692095Y-82653142D01*
X201644476Y-82700761D01*
X201549238Y-82748380D01*
X201311142Y-82748380D01*
X201215904Y-82700761D01*
X201168285Y-82653142D01*
X128317333Y-79645142D02*
X128269714Y-79692761D01*
X128126857Y-79740380D01*
X128031619Y-79740380D01*
X127888761Y-79692761D01*
X127793523Y-79597523D01*
X127745904Y-79502285D01*
X127698285Y-79311809D01*
X127698285Y-79168952D01*
X127745904Y-78978476D01*
X127793523Y-78883238D01*
X127888761Y-78788000D01*
X128031619Y-78740380D01*
X128126857Y-78740380D01*
X128269714Y-78788000D01*
X128317333Y-78835619D01*
X128793523Y-79740380D02*
X128984000Y-79740380D01*
X129079238Y-79692761D01*
X129126857Y-79645142D01*
X129222095Y-79502285D01*
X129269714Y-79311809D01*
X129269714Y-78930857D01*
X129222095Y-78835619D01*
X129174476Y-78788000D01*
X129079238Y-78740380D01*
X128888761Y-78740380D01*
X128793523Y-78788000D01*
X128745904Y-78835619D01*
X128698285Y-78930857D01*
X128698285Y-79168952D01*
X128745904Y-79264190D01*
X128793523Y-79311809D01*
X128888761Y-79359428D01*
X129079238Y-79359428D01*
X129174476Y-79311809D01*
X129222095Y-79264190D01*
X129269714Y-79168952D01*
X159631142Y-138533142D02*
X159583523Y-138580761D01*
X159440666Y-138628380D01*
X159345428Y-138628380D01*
X159202571Y-138580761D01*
X159107333Y-138485523D01*
X159059714Y-138390285D01*
X159012095Y-138199809D01*
X159012095Y-138056952D01*
X159059714Y-137866476D01*
X159107333Y-137771238D01*
X159202571Y-137676000D01*
X159345428Y-137628380D01*
X159440666Y-137628380D01*
X159583523Y-137676000D01*
X159631142Y-137723619D01*
X160583523Y-138628380D02*
X160012095Y-138628380D01*
X160297809Y-138628380D02*
X160297809Y-137628380D01*
X160202571Y-137771238D01*
X160107333Y-137866476D01*
X160012095Y-137914095D01*
X161202571Y-137628380D02*
X161297809Y-137628380D01*
X161393047Y-137676000D01*
X161440666Y-137723619D01*
X161488285Y-137818857D01*
X161535904Y-138009333D01*
X161535904Y-138247428D01*
X161488285Y-138437904D01*
X161440666Y-138533142D01*
X161393047Y-138580761D01*
X161297809Y-138628380D01*
X161202571Y-138628380D01*
X161107333Y-138580761D01*
X161059714Y-138533142D01*
X161012095Y-138437904D01*
X160964476Y-138247428D01*
X160964476Y-138009333D01*
X161012095Y-137818857D01*
X161059714Y-137723619D01*
X161107333Y-137676000D01*
X161202571Y-137628380D01*
X114244666Y-146010380D02*
X114244666Y-146724666D01*
X114197047Y-146867523D01*
X114101809Y-146962761D01*
X113958952Y-147010380D01*
X113863714Y-147010380D01*
X115244666Y-147010380D02*
X114673238Y-147010380D01*
X114958952Y-147010380D02*
X114958952Y-146010380D01*
X114863714Y-146153238D01*
X114768476Y-146248476D01*
X114673238Y-146296095D01*
X224710666Y-125460380D02*
X224710666Y-126174666D01*
X224663047Y-126317523D01*
X224567809Y-126412761D01*
X224424952Y-126460380D01*
X224329714Y-126460380D01*
X225139238Y-125555619D02*
X225186857Y-125508000D01*
X225282095Y-125460380D01*
X225520190Y-125460380D01*
X225615428Y-125508000D01*
X225663047Y-125555619D01*
X225710666Y-125650857D01*
X225710666Y-125746095D01*
X225663047Y-125888952D01*
X225091619Y-126460380D01*
X225710666Y-126460380D01*
X217090666Y-88098380D02*
X217090666Y-88812666D01*
X217043047Y-88955523D01*
X216947809Y-89050761D01*
X216804952Y-89098380D01*
X216709714Y-89098380D01*
X217471619Y-88098380D02*
X218090666Y-88098380D01*
X217757333Y-88479333D01*
X217900190Y-88479333D01*
X217995428Y-88526952D01*
X218043047Y-88574571D01*
X218090666Y-88669809D01*
X218090666Y-88907904D01*
X218043047Y-89003142D01*
X217995428Y-89050761D01*
X217900190Y-89098380D01*
X217614476Y-89098380D01*
X217519238Y-89050761D01*
X217471619Y-89003142D01*
X207422761Y-132623619D02*
X207327523Y-132576000D01*
X207232285Y-132480761D01*
X207089428Y-132337904D01*
X206994190Y-132290285D01*
X206898952Y-132290285D01*
X206946571Y-132528380D02*
X206851333Y-132480761D01*
X206756095Y-132385523D01*
X206708476Y-132195047D01*
X206708476Y-131861714D01*
X206756095Y-131671238D01*
X206851333Y-131576000D01*
X206946571Y-131528380D01*
X207137047Y-131528380D01*
X207232285Y-131576000D01*
X207327523Y-131671238D01*
X207375142Y-131861714D01*
X207375142Y-132195047D01*
X207327523Y-132385523D01*
X207232285Y-132480761D01*
X207137047Y-132528380D01*
X206946571Y-132528380D01*
X208327523Y-132528380D02*
X207756095Y-132528380D01*
X208041809Y-132528380D02*
X208041809Y-131528380D01*
X207946571Y-131671238D01*
X207851333Y-131766476D01*
X207756095Y-131814095D01*
X204557333Y-129738380D02*
X204224000Y-129262190D01*
X203985904Y-129738380D02*
X203985904Y-128738380D01*
X204366857Y-128738380D01*
X204462095Y-128786000D01*
X204509714Y-128833619D01*
X204557333Y-128928857D01*
X204557333Y-129071714D01*
X204509714Y-129166952D01*
X204462095Y-129214571D01*
X204366857Y-129262190D01*
X203985904Y-129262190D01*
X205509714Y-129738380D02*
X204938285Y-129738380D01*
X205224000Y-129738380D02*
X205224000Y-128738380D01*
X205128761Y-128881238D01*
X205033523Y-128976476D01*
X204938285Y-129024095D01*
X204557333Y-125928380D02*
X204224000Y-125452190D01*
X203985904Y-125928380D02*
X203985904Y-124928380D01*
X204366857Y-124928380D01*
X204462095Y-124976000D01*
X204509714Y-125023619D01*
X204557333Y-125118857D01*
X204557333Y-125261714D01*
X204509714Y-125356952D01*
X204462095Y-125404571D01*
X204366857Y-125452190D01*
X203985904Y-125452190D01*
X204938285Y-125023619D02*
X204985904Y-124976000D01*
X205081142Y-124928380D01*
X205319238Y-124928380D01*
X205414476Y-124976000D01*
X205462095Y-125023619D01*
X205509714Y-125118857D01*
X205509714Y-125214095D01*
X205462095Y-125356952D01*
X204890666Y-125928380D01*
X205509714Y-125928380D01*
X199477333Y-90368380D02*
X199144000Y-89892190D01*
X198905904Y-90368380D02*
X198905904Y-89368380D01*
X199286857Y-89368380D01*
X199382095Y-89416000D01*
X199429714Y-89463619D01*
X199477333Y-89558857D01*
X199477333Y-89701714D01*
X199429714Y-89796952D01*
X199382095Y-89844571D01*
X199286857Y-89892190D01*
X198905904Y-89892190D01*
X199810666Y-89368380D02*
X200429714Y-89368380D01*
X200096380Y-89749333D01*
X200239238Y-89749333D01*
X200334476Y-89796952D01*
X200382095Y-89844571D01*
X200429714Y-89939809D01*
X200429714Y-90177904D01*
X200382095Y-90273142D01*
X200334476Y-90320761D01*
X200239238Y-90368380D01*
X199953523Y-90368380D01*
X199858285Y-90320761D01*
X199810666Y-90273142D01*
X199477333Y-97988380D02*
X199144000Y-97512190D01*
X198905904Y-97988380D02*
X198905904Y-96988380D01*
X199286857Y-96988380D01*
X199382095Y-97036000D01*
X199429714Y-97083619D01*
X199477333Y-97178857D01*
X199477333Y-97321714D01*
X199429714Y-97416952D01*
X199382095Y-97464571D01*
X199286857Y-97512190D01*
X198905904Y-97512190D01*
X200382095Y-96988380D02*
X199905904Y-96988380D01*
X199858285Y-97464571D01*
X199905904Y-97416952D01*
X200001142Y-97369333D01*
X200239238Y-97369333D01*
X200334476Y-97416952D01*
X200382095Y-97464571D01*
X200429714Y-97559809D01*
X200429714Y-97797904D01*
X200382095Y-97893142D01*
X200334476Y-97940761D01*
X200239238Y-97988380D01*
X200001142Y-97988380D01*
X199905904Y-97940761D01*
X199858285Y-97893142D01*
X199477333Y-101798380D02*
X199144000Y-101322190D01*
X198905904Y-101798380D02*
X198905904Y-100798380D01*
X199286857Y-100798380D01*
X199382095Y-100846000D01*
X199429714Y-100893619D01*
X199477333Y-100988857D01*
X199477333Y-101131714D01*
X199429714Y-101226952D01*
X199382095Y-101274571D01*
X199286857Y-101322190D01*
X198905904Y-101322190D01*
X200334476Y-100798380D02*
X200144000Y-100798380D01*
X200048761Y-100846000D01*
X200001142Y-100893619D01*
X199905904Y-101036476D01*
X199858285Y-101226952D01*
X199858285Y-101607904D01*
X199905904Y-101703142D01*
X199953523Y-101750761D01*
X200048761Y-101798380D01*
X200239238Y-101798380D01*
X200334476Y-101750761D01*
X200382095Y-101703142D01*
X200429714Y-101607904D01*
X200429714Y-101369809D01*
X200382095Y-101274571D01*
X200334476Y-101226952D01*
X200239238Y-101179333D01*
X200048761Y-101179333D01*
X199953523Y-101226952D01*
X199905904Y-101274571D01*
X199858285Y-101369809D01*
X199477333Y-113228380D02*
X199144000Y-112752190D01*
X198905904Y-113228380D02*
X198905904Y-112228380D01*
X199286857Y-112228380D01*
X199382095Y-112276000D01*
X199429714Y-112323619D01*
X199477333Y-112418857D01*
X199477333Y-112561714D01*
X199429714Y-112656952D01*
X199382095Y-112704571D01*
X199286857Y-112752190D01*
X198905904Y-112752190D01*
X200048761Y-112656952D02*
X199953523Y-112609333D01*
X199905904Y-112561714D01*
X199858285Y-112466476D01*
X199858285Y-112418857D01*
X199905904Y-112323619D01*
X199953523Y-112276000D01*
X200048761Y-112228380D01*
X200239238Y-112228380D01*
X200334476Y-112276000D01*
X200382095Y-112323619D01*
X200429714Y-112418857D01*
X200429714Y-112466476D01*
X200382095Y-112561714D01*
X200334476Y-112609333D01*
X200239238Y-112656952D01*
X200048761Y-112656952D01*
X199953523Y-112704571D01*
X199905904Y-112752190D01*
X199858285Y-112847428D01*
X199858285Y-113037904D01*
X199905904Y-113133142D01*
X199953523Y-113180761D01*
X200048761Y-113228380D01*
X200239238Y-113228380D01*
X200334476Y-113180761D01*
X200382095Y-113133142D01*
X200429714Y-113037904D01*
X200429714Y-112847428D01*
X200382095Y-112752190D01*
X200334476Y-112704571D01*
X200239238Y-112656952D01*
X199477333Y-117038380D02*
X199144000Y-116562190D01*
X198905904Y-117038380D02*
X198905904Y-116038380D01*
X199286857Y-116038380D01*
X199382095Y-116086000D01*
X199429714Y-116133619D01*
X199477333Y-116228857D01*
X199477333Y-116371714D01*
X199429714Y-116466952D01*
X199382095Y-116514571D01*
X199286857Y-116562190D01*
X198905904Y-116562190D01*
X199953523Y-117038380D02*
X200144000Y-117038380D01*
X200239238Y-116990761D01*
X200286857Y-116943142D01*
X200382095Y-116800285D01*
X200429714Y-116609809D01*
X200429714Y-116228857D01*
X200382095Y-116133619D01*
X200334476Y-116086000D01*
X200239238Y-116038380D01*
X200048761Y-116038380D01*
X199953523Y-116086000D01*
X199905904Y-116133619D01*
X199858285Y-116228857D01*
X199858285Y-116466952D01*
X199905904Y-116562190D01*
X199953523Y-116609809D01*
X200048761Y-116657428D01*
X200239238Y-116657428D01*
X200334476Y-116609809D01*
X200382095Y-116562190D01*
X200429714Y-116466952D01*
X199001142Y-120848380D02*
X198667809Y-120372190D01*
X198429714Y-120848380D02*
X198429714Y-119848380D01*
X198810666Y-119848380D01*
X198905904Y-119896000D01*
X198953523Y-119943619D01*
X199001142Y-120038857D01*
X199001142Y-120181714D01*
X198953523Y-120276952D01*
X198905904Y-120324571D01*
X198810666Y-120372190D01*
X198429714Y-120372190D01*
X199953523Y-120848380D02*
X199382095Y-120848380D01*
X199667809Y-120848380D02*
X199667809Y-119848380D01*
X199572571Y-119991238D01*
X199477333Y-120086476D01*
X199382095Y-120134095D01*
X200572571Y-119848380D02*
X200667809Y-119848380D01*
X200763047Y-119896000D01*
X200810666Y-119943619D01*
X200858285Y-120038857D01*
X200905904Y-120229333D01*
X200905904Y-120467428D01*
X200858285Y-120657904D01*
X200810666Y-120753142D01*
X200763047Y-120800761D01*
X200667809Y-120848380D01*
X200572571Y-120848380D01*
X200477333Y-120800761D01*
X200429714Y-120753142D01*
X200382095Y-120657904D01*
X200334476Y-120467428D01*
X200334476Y-120229333D01*
X200382095Y-120038857D01*
X200429714Y-119943619D01*
X200477333Y-119896000D01*
X200572571Y-119848380D01*
X145201858Y-83249580D02*
X144868525Y-82773390D01*
X144630430Y-83249580D02*
X144630430Y-82249580D01*
X145011382Y-82249580D01*
X145106620Y-82297200D01*
X145154239Y-82344819D01*
X145201858Y-82440057D01*
X145201858Y-82582914D01*
X145154239Y-82678152D01*
X145106620Y-82725771D01*
X145011382Y-82773390D01*
X144630430Y-82773390D01*
X146154239Y-83249580D02*
X145582811Y-83249580D01*
X145868525Y-83249580D02*
X145868525Y-82249580D01*
X145773287Y-82392438D01*
X145678049Y-82487676D01*
X145582811Y-82535295D01*
X146535192Y-82344819D02*
X146582811Y-82297200D01*
X146678049Y-82249580D01*
X146916144Y-82249580D01*
X147011382Y-82297200D01*
X147059001Y-82344819D01*
X147106620Y-82440057D01*
X147106620Y-82535295D01*
X147059001Y-82678152D01*
X146487573Y-83249580D01*
X147106620Y-83249580D01*
X118872095Y-138263380D02*
X118872095Y-139072904D01*
X118919714Y-139168142D01*
X118967333Y-139215761D01*
X119062571Y-139263380D01*
X119253047Y-139263380D01*
X119348285Y-139215761D01*
X119395904Y-139168142D01*
X119443523Y-139072904D01*
X119443523Y-138263380D01*
X120443523Y-139263380D02*
X119872095Y-139263380D01*
X120157809Y-139263380D02*
X120157809Y-138263380D01*
X120062571Y-138406238D01*
X119967333Y-138501476D01*
X119872095Y-138549095D01*
X174752095Y-132548380D02*
X174752095Y-133357904D01*
X174799714Y-133453142D01*
X174847333Y-133500761D01*
X174942571Y-133548380D01*
X175133047Y-133548380D01*
X175228285Y-133500761D01*
X175275904Y-133453142D01*
X175323523Y-133357904D01*
X175323523Y-132548380D01*
X175752095Y-132643619D02*
X175799714Y-132596000D01*
X175894952Y-132548380D01*
X176133047Y-132548380D01*
X176228285Y-132596000D01*
X176275904Y-132643619D01*
X176323523Y-132738857D01*
X176323523Y-132834095D01*
X176275904Y-132976952D01*
X175704476Y-133548380D01*
X176323523Y-133548380D01*
X146177095Y-130643380D02*
X146177095Y-131452904D01*
X146224714Y-131548142D01*
X146272333Y-131595761D01*
X146367571Y-131643380D01*
X146558047Y-131643380D01*
X146653285Y-131595761D01*
X146700904Y-131548142D01*
X146748523Y-131452904D01*
X146748523Y-130643380D01*
X147129476Y-130643380D02*
X147748523Y-130643380D01*
X147415190Y-131024333D01*
X147558047Y-131024333D01*
X147653285Y-131071952D01*
X147700904Y-131119571D01*
X147748523Y-131214809D01*
X147748523Y-131452904D01*
X147700904Y-131548142D01*
X147653285Y-131595761D01*
X147558047Y-131643380D01*
X147272333Y-131643380D01*
X147177095Y-131595761D01*
X147129476Y-131548142D01*
X110617095Y-83018380D02*
X110617095Y-83827904D01*
X110664714Y-83923142D01*
X110712333Y-83970761D01*
X110807571Y-84018380D01*
X110998047Y-84018380D01*
X111093285Y-83970761D01*
X111140904Y-83923142D01*
X111188523Y-83827904D01*
X111188523Y-83018380D01*
X112093285Y-83351714D02*
X112093285Y-84018380D01*
X111855190Y-82970761D02*
X111617095Y-83685047D01*
X112236142Y-83685047D01*
X123317095Y-83018380D02*
X123317095Y-83827904D01*
X123364714Y-83923142D01*
X123412333Y-83970761D01*
X123507571Y-84018380D01*
X123698047Y-84018380D01*
X123793285Y-83970761D01*
X123840904Y-83923142D01*
X123888523Y-83827904D01*
X123888523Y-83018380D01*
X124840904Y-83018380D02*
X124364714Y-83018380D01*
X124317095Y-83494571D01*
X124364714Y-83446952D01*
X124459952Y-83399333D01*
X124698047Y-83399333D01*
X124793285Y-83446952D01*
X124840904Y-83494571D01*
X124888523Y-83589809D01*
X124888523Y-83827904D01*
X124840904Y-83923142D01*
X124793285Y-83970761D01*
X124698047Y-84018380D01*
X124459952Y-84018380D01*
X124364714Y-83970761D01*
X124317095Y-83923142D01*
X144696380Y-105917904D02*
X145505904Y-105917904D01*
X145601142Y-105870285D01*
X145648761Y-105822666D01*
X145696380Y-105727428D01*
X145696380Y-105536952D01*
X145648761Y-105441714D01*
X145601142Y-105394095D01*
X145505904Y-105346476D01*
X144696380Y-105346476D01*
X144696380Y-104441714D02*
X144696380Y-104632190D01*
X144744000Y-104727428D01*
X144791619Y-104775047D01*
X144934476Y-104870285D01*
X145124952Y-104917904D01*
X145505904Y-104917904D01*
X145601142Y-104870285D01*
X145648761Y-104822666D01*
X145696380Y-104727428D01*
X145696380Y-104536952D01*
X145648761Y-104441714D01*
X145601142Y-104394095D01*
X145505904Y-104346476D01*
X145267809Y-104346476D01*
X145172571Y-104394095D01*
X145124952Y-104441714D01*
X145077333Y-104536952D01*
X145077333Y-104727428D01*
X145124952Y-104822666D01*
X145172571Y-104870285D01*
X145267809Y-104917904D01*
X196342095Y-81113380D02*
X196342095Y-81922904D01*
X196389714Y-82018142D01*
X196437333Y-82065761D01*
X196532571Y-82113380D01*
X196723047Y-82113380D01*
X196818285Y-82065761D01*
X196865904Y-82018142D01*
X196913523Y-81922904D01*
X196913523Y-81113380D01*
X197294476Y-81113380D02*
X197961142Y-81113380D01*
X197532571Y-82113380D01*
X158242095Y-81113380D02*
X158242095Y-81922904D01*
X158289714Y-82018142D01*
X158337333Y-82065761D01*
X158432571Y-82113380D01*
X158623047Y-82113380D01*
X158718285Y-82065761D01*
X158765904Y-82018142D01*
X158813523Y-81922904D01*
X158813523Y-81113380D01*
X159432571Y-81541952D02*
X159337333Y-81494333D01*
X159289714Y-81446714D01*
X159242095Y-81351476D01*
X159242095Y-81303857D01*
X159289714Y-81208619D01*
X159337333Y-81161000D01*
X159432571Y-81113380D01*
X159623047Y-81113380D01*
X159718285Y-81161000D01*
X159765904Y-81208619D01*
X159813523Y-81303857D01*
X159813523Y-81351476D01*
X159765904Y-81446714D01*
X159718285Y-81494333D01*
X159623047Y-81541952D01*
X159432571Y-81541952D01*
X159337333Y-81589571D01*
X159289714Y-81637190D01*
X159242095Y-81732428D01*
X159242095Y-81922904D01*
X159289714Y-82018142D01*
X159337333Y-82065761D01*
X159432571Y-82113380D01*
X159623047Y-82113380D01*
X159718285Y-82065761D01*
X159765904Y-82018142D01*
X159813523Y-81922904D01*
X159813523Y-81732428D01*
X159765904Y-81637190D01*
X159718285Y-81589571D01*
X159623047Y-81541952D01*
X199477333Y-109418380D02*
X199144000Y-108942190D01*
X198905904Y-109418380D02*
X198905904Y-108418380D01*
X199286857Y-108418380D01*
X199382095Y-108466000D01*
X199429714Y-108513619D01*
X199477333Y-108608857D01*
X199477333Y-108751714D01*
X199429714Y-108846952D01*
X199382095Y-108894571D01*
X199286857Y-108942190D01*
X198905904Y-108942190D01*
X199810666Y-108418380D02*
X200477333Y-108418380D01*
X200048761Y-109418380D01*
X199477333Y-94178380D02*
X199144000Y-93702190D01*
X198905904Y-94178380D02*
X198905904Y-93178380D01*
X199286857Y-93178380D01*
X199382095Y-93226000D01*
X199429714Y-93273619D01*
X199477333Y-93368857D01*
X199477333Y-93511714D01*
X199429714Y-93606952D01*
X199382095Y-93654571D01*
X199286857Y-93702190D01*
X198905904Y-93702190D01*
X200334476Y-93511714D02*
X200334476Y-94178380D01*
X200096380Y-93130761D02*
X199858285Y-93845047D01*
X200477333Y-93845047D01*
X214677333Y-133493142D02*
X214629714Y-133540761D01*
X214486857Y-133588380D01*
X214391619Y-133588380D01*
X214248761Y-133540761D01*
X214153523Y-133445523D01*
X214105904Y-133350285D01*
X214058285Y-133159809D01*
X214058285Y-133016952D01*
X214105904Y-132826476D01*
X214153523Y-132731238D01*
X214248761Y-132636000D01*
X214391619Y-132588380D01*
X214486857Y-132588380D01*
X214629714Y-132636000D01*
X214677333Y-132683619D01*
X215010666Y-132588380D02*
X215629714Y-132588380D01*
X215296380Y-132969333D01*
X215439238Y-132969333D01*
X215534476Y-133016952D01*
X215582095Y-133064571D01*
X215629714Y-133159809D01*
X215629714Y-133397904D01*
X215582095Y-133493142D01*
X215534476Y-133540761D01*
X215439238Y-133588380D01*
X215153523Y-133588380D01*
X215058285Y-133540761D01*
X215010666Y-133493142D01*
X115617333Y-79645142D02*
X115569714Y-79692761D01*
X115426857Y-79740380D01*
X115331619Y-79740380D01*
X115188761Y-79692761D01*
X115093523Y-79597523D01*
X115045904Y-79502285D01*
X114998285Y-79311809D01*
X114998285Y-79168952D01*
X115045904Y-78978476D01*
X115093523Y-78883238D01*
X115188761Y-78788000D01*
X115331619Y-78740380D01*
X115426857Y-78740380D01*
X115569714Y-78788000D01*
X115617333Y-78835619D01*
X116188761Y-79168952D02*
X116093523Y-79121333D01*
X116045904Y-79073714D01*
X115998285Y-78978476D01*
X115998285Y-78930857D01*
X116045904Y-78835619D01*
X116093523Y-78788000D01*
X116188761Y-78740380D01*
X116379238Y-78740380D01*
X116474476Y-78788000D01*
X116522095Y-78835619D01*
X116569714Y-78930857D01*
X116569714Y-78978476D01*
X116522095Y-79073714D01*
X116474476Y-79121333D01*
X116379238Y-79168952D01*
X116188761Y-79168952D01*
X116093523Y-79216571D01*
X116045904Y-79264190D01*
X115998285Y-79359428D01*
X115998285Y-79549904D01*
X116045904Y-79645142D01*
X116093523Y-79692761D01*
X116188761Y-79740380D01*
X116379238Y-79740380D01*
X116474476Y-79692761D01*
X116522095Y-79645142D01*
X116569714Y-79549904D01*
X116569714Y-79359428D01*
X116522095Y-79264190D01*
X116474476Y-79216571D01*
X116379238Y-79168952D01*
X194437333Y-122023142D02*
X194389714Y-122070761D01*
X194246857Y-122118380D01*
X194151619Y-122118380D01*
X194008761Y-122070761D01*
X193913523Y-121975523D01*
X193865904Y-121880285D01*
X193818285Y-121689809D01*
X193818285Y-121546952D01*
X193865904Y-121356476D01*
X193913523Y-121261238D01*
X194008761Y-121166000D01*
X194151619Y-121118380D01*
X194246857Y-121118380D01*
X194389714Y-121166000D01*
X194437333Y-121213619D01*
X195294476Y-121118380D02*
X195104000Y-121118380D01*
X195008761Y-121166000D01*
X194961142Y-121213619D01*
X194865904Y-121356476D01*
X194818285Y-121546952D01*
X194818285Y-121927904D01*
X194865904Y-122023142D01*
X194913523Y-122070761D01*
X195008761Y-122118380D01*
X195199238Y-122118380D01*
X195294476Y-122070761D01*
X195342095Y-122023142D01*
X195389714Y-121927904D01*
X195389714Y-121689809D01*
X195342095Y-121594571D01*
X195294476Y-121546952D01*
X195199238Y-121499333D01*
X195008761Y-121499333D01*
X194913523Y-121546952D01*
X194865904Y-121594571D01*
X194818285Y-121689809D01*
X135734742Y-83280380D02*
X135401409Y-82804190D01*
X135163314Y-83280380D02*
X135163314Y-82280380D01*
X135544266Y-82280380D01*
X135639504Y-82328000D01*
X135687123Y-82375619D01*
X135734742Y-82470857D01*
X135734742Y-82613714D01*
X135687123Y-82708952D01*
X135639504Y-82756571D01*
X135544266Y-82804190D01*
X135163314Y-82804190D01*
X136687123Y-83280380D02*
X136115695Y-83280380D01*
X136401409Y-83280380D02*
X136401409Y-82280380D01*
X136306171Y-82423238D01*
X136210933Y-82518476D01*
X136115695Y-82566095D01*
X137639504Y-83280380D02*
X137068076Y-83280380D01*
X137353790Y-83280380D02*
X137353790Y-82280380D01*
X137258552Y-82423238D01*
X137163314Y-82518476D01*
X137068076Y-82566095D01*
X167417809Y-81002190D02*
X167417809Y-81478380D01*
X167084476Y-80478380D02*
X167417809Y-81002190D01*
X167751142Y-80478380D01*
X168608285Y-81478380D02*
X168036857Y-81478380D01*
X168322571Y-81478380D02*
X168322571Y-80478380D01*
X168227333Y-80621238D01*
X168132095Y-80716476D01*
X168036857Y-80764095D01*
X198366142Y-105608380D02*
X198032809Y-105132190D01*
X197794714Y-105608380D02*
X197794714Y-104608380D01*
X198175666Y-104608380D01*
X198270904Y-104656000D01*
X198318523Y-104703619D01*
X198366142Y-104798857D01*
X198366142Y-104941714D01*
X198318523Y-105036952D01*
X198270904Y-105084571D01*
X198175666Y-105132190D01*
X197794714Y-105132190D01*
X199318523Y-105608380D02*
X198747095Y-105608380D01*
X199032809Y-105608380D02*
X199032809Y-104608380D01*
X198937571Y-104751238D01*
X198842333Y-104846476D01*
X198747095Y-104894095D01*
X199651857Y-104608380D02*
X200270904Y-104608380D01*
X199937571Y-104989333D01*
X200080428Y-104989333D01*
X200175666Y-105036952D01*
X200223285Y-105084571D01*
X200270904Y-105179809D01*
X200270904Y-105417904D01*
X200223285Y-105513142D01*
X200175666Y-105560761D01*
X200080428Y-105608380D01*
X199794714Y-105608380D01*
X199699476Y-105560761D01*
X199651857Y-105513142D01*
X208037666Y-141914761D02*
X208180523Y-141962380D01*
X208418619Y-141962380D01*
X208513857Y-141914761D01*
X208561476Y-141867142D01*
X208609095Y-141771904D01*
X208609095Y-141676666D01*
X208561476Y-141581428D01*
X208513857Y-141533809D01*
X208418619Y-141486190D01*
X208228142Y-141438571D01*
X208132904Y-141390952D01*
X208085285Y-141343333D01*
X208037666Y-141248095D01*
X208037666Y-141152857D01*
X208085285Y-141057619D01*
X208132904Y-141010000D01*
X208228142Y-140962380D01*
X208466238Y-140962380D01*
X208609095Y-141010000D01*
X208942428Y-140962380D02*
X209180523Y-141962380D01*
X209371000Y-141248095D01*
X209561476Y-141962380D01*
X209799571Y-140962380D01*
X210704333Y-141962380D02*
X210132904Y-141962380D01*
X210418619Y-141962380D02*
X210418619Y-140962380D01*
X210323380Y-141105238D01*
X210228142Y-141200476D01*
X210132904Y-141248095D01*
X181697333Y-123293142D02*
X181649714Y-123340761D01*
X181506857Y-123388380D01*
X181411619Y-123388380D01*
X181268761Y-123340761D01*
X181173523Y-123245523D01*
X181125904Y-123150285D01*
X181078285Y-122959809D01*
X181078285Y-122816952D01*
X181125904Y-122626476D01*
X181173523Y-122531238D01*
X181268761Y-122436000D01*
X181411619Y-122388380D01*
X181506857Y-122388380D01*
X181649714Y-122436000D01*
X181697333Y-122483619D01*
X182030666Y-122388380D02*
X182697333Y-122388380D01*
X182268761Y-123388380D01*
X193802095Y-150588380D02*
X193802095Y-151397904D01*
X193849714Y-151493142D01*
X193897333Y-151540761D01*
X193992571Y-151588380D01*
X194183047Y-151588380D01*
X194278285Y-151540761D01*
X194325904Y-151493142D01*
X194373523Y-151397904D01*
X194373523Y-150588380D01*
X194897333Y-151588380D02*
X195087809Y-151588380D01*
X195183047Y-151540761D01*
X195230666Y-151493142D01*
X195325904Y-151350285D01*
X195373523Y-151159809D01*
X195373523Y-150778857D01*
X195325904Y-150683619D01*
X195278285Y-150636000D01*
X195183047Y-150588380D01*
X194992571Y-150588380D01*
X194897333Y-150636000D01*
X194849714Y-150683619D01*
X194802095Y-150778857D01*
X194802095Y-151016952D01*
X194849714Y-151112190D01*
X194897333Y-151159809D01*
X194992571Y-151207428D01*
X195183047Y-151207428D01*
X195278285Y-151159809D01*
X195325904Y-151112190D01*
X195373523Y-151016952D01*
D12*
X140054000Y-131452000D02*
X139739000Y-131452000D01*
X137629000Y-131452000D02*
X137314000Y-131452000D01*
X140054000Y-131452000D02*
X140054000Y-136692000D01*
X137629000Y-136692000D02*
X137314000Y-136692000D01*
X137314000Y-131452000D02*
X137314000Y-136692000D01*
X140054000Y-136692000D02*
X139739000Y-136692000D01*
X143549000Y-127120000D02*
X143864000Y-127120000D01*
X141124000Y-121880000D02*
X141439000Y-121880000D01*
X143549000Y-121880000D02*
X143864000Y-121880000D01*
X141124000Y-127120000D02*
X141124000Y-121880000D01*
X141124000Y-127120000D02*
X141439000Y-127120000D01*
X143864000Y-127120000D02*
X143864000Y-121880000D01*
X141124000Y-102576000D02*
X141439000Y-102576000D01*
X141124000Y-107816000D02*
X141439000Y-107816000D01*
X143549000Y-102576000D02*
X143864000Y-102576000D01*
X143864000Y-107816000D02*
X143864000Y-102576000D01*
X143549000Y-107816000D02*
X143864000Y-107816000D01*
X141124000Y-107816000D02*
X141124000Y-102576000D01*
X198334000Y-83781000D02*
X198334000Y-83466000D01*
X203574000Y-86206000D02*
X203574000Y-85891000D01*
X203574000Y-86206000D02*
X198334000Y-86206000D01*
X203574000Y-83781000D02*
X203574000Y-83466000D01*
X203574000Y-83466000D02*
X198334000Y-83466000D01*
X198334000Y-86206000D02*
X198334000Y-85891000D01*
X125864000Y-80418000D02*
X131104000Y-80418000D01*
X125864000Y-83158000D02*
X131104000Y-83158000D01*
X131104000Y-80418000D02*
X131104000Y-80733000D01*
X125864000Y-82843000D02*
X125864000Y-83158000D01*
X131104000Y-82843000D02*
X131104000Y-83158000D01*
X125864000Y-80418000D02*
X125864000Y-80733000D01*
X165139000Y-140836000D02*
X165454000Y-140836000D01*
X165454000Y-140836000D02*
X165454000Y-135596000D01*
X162714000Y-140836000D02*
X163029000Y-140836000D01*
X165139000Y-135596000D02*
X165454000Y-135596000D01*
X162714000Y-140836000D02*
X162714000Y-135596000D01*
X162714000Y-135596000D02*
X163029000Y-135596000D01*
X116018000Y-143958000D02*
X117348000Y-143958000D01*
X116018000Y-146558000D02*
X118618000Y-146558000D01*
X156778000Y-149158000D02*
X156778000Y-143958000D01*
X116018000Y-145288000D02*
X116018000Y-143958000D01*
X116018000Y-149158000D02*
X116018000Y-146558000D01*
X118618000Y-143958000D02*
X156778000Y-143958000D01*
X116018000Y-149158000D02*
X156778000Y-149158000D01*
X118618000Y-146558000D02*
X118618000Y-143958000D01*
X226374000Y-127448000D02*
X226374000Y-128778000D01*
X223714000Y-130048000D02*
X226374000Y-130048000D01*
X223714000Y-137728000D02*
X226374000Y-137728000D01*
X226374000Y-130048000D02*
X226374000Y-137728000D01*
X225044000Y-127448000D02*
X226374000Y-127448000D01*
X223714000Y-130048000D02*
X223714000Y-137728000D01*
X217054000Y-90430000D02*
X230944000Y-90430000D01*
X216159662Y-101850000D02*
X216159662Y-101350000D01*
X216159662Y-101350000D02*
X216592675Y-101600000D01*
X217054000Y-121400000D02*
X217054000Y-90430000D01*
X230944000Y-121400000D02*
X217054000Y-121400000D01*
X216592675Y-101600000D02*
X216159662Y-101850000D01*
X205718000Y-137486000D02*
X209318000Y-137486000D01*
X207518000Y-133035999D02*
G75*
G03*
X205679522Y-137474478I0J-2600001D01*
G01*
X209356478Y-137474478D02*
G75*
G03*
X207518000Y-133036000I-1838478J1838478D01*
G01*
X209074000Y-128170000D02*
X209074000Y-130910000D01*
X209074000Y-130910000D02*
X215614000Y-130910000D01*
X215614000Y-130910000D02*
X215614000Y-128170000D01*
X208304000Y-129540000D02*
X209074000Y-129540000D01*
X216384000Y-129540000D02*
X215614000Y-129540000D01*
X215614000Y-128170000D02*
X209074000Y-128170000D01*
X209074000Y-124106000D02*
X209074000Y-126846000D01*
X215614000Y-126846000D02*
X215614000Y-124106000D01*
X216384000Y-125476000D02*
X215614000Y-125476000D01*
X208304000Y-125476000D02*
X209074000Y-125476000D01*
X209074000Y-126846000D02*
X215614000Y-126846000D01*
X215614000Y-124106000D02*
X209074000Y-124106000D01*
X210534000Y-91286000D02*
X210534000Y-88546000D01*
X203994000Y-88546000D02*
X203994000Y-91286000D01*
X203994000Y-91286000D02*
X210534000Y-91286000D01*
X210534000Y-88546000D02*
X203994000Y-88546000D01*
X203224000Y-89916000D02*
X203994000Y-89916000D01*
X211304000Y-89916000D02*
X210534000Y-89916000D01*
X203224000Y-97536000D02*
X203994000Y-97536000D01*
X210534000Y-98906000D02*
X210534000Y-96166000D01*
X211304000Y-97536000D02*
X210534000Y-97536000D01*
X203994000Y-98906000D02*
X210534000Y-98906000D01*
X210534000Y-96166000D02*
X203994000Y-96166000D01*
X203994000Y-96166000D02*
X203994000Y-98906000D01*
X203994000Y-102716000D02*
X210534000Y-102716000D01*
X203994000Y-99976000D02*
X203994000Y-102716000D01*
X211304000Y-101346000D02*
X210534000Y-101346000D01*
X210534000Y-99976000D02*
X203994000Y-99976000D01*
X210534000Y-102716000D02*
X210534000Y-99976000D01*
X203224000Y-101346000D02*
X203994000Y-101346000D01*
X203224000Y-112776000D02*
X203994000Y-112776000D01*
X203994000Y-114146000D02*
X210534000Y-114146000D01*
X210534000Y-111406000D02*
X203994000Y-111406000D01*
X211304000Y-112776000D02*
X210534000Y-112776000D01*
X203994000Y-111406000D02*
X203994000Y-114146000D01*
X210534000Y-114146000D02*
X210534000Y-111406000D01*
X211304000Y-116586000D02*
X210534000Y-116586000D01*
X210534000Y-117956000D02*
X210534000Y-115216000D01*
X203994000Y-115216000D02*
X203994000Y-117956000D01*
X203994000Y-117956000D02*
X210534000Y-117956000D01*
X203224000Y-116586000D02*
X203994000Y-116586000D01*
X210534000Y-115216000D02*
X203994000Y-115216000D01*
X203994000Y-121766000D02*
X210534000Y-121766000D01*
X210534000Y-119026000D02*
X203994000Y-119026000D01*
X210534000Y-121766000D02*
X210534000Y-119026000D01*
X211304000Y-120396000D02*
X210534000Y-120396000D01*
X203994000Y-119026000D02*
X203994000Y-121766000D01*
X203224000Y-120396000D02*
X203994000Y-120396000D01*
X141886000Y-90138000D02*
X144626000Y-90138000D01*
X144626000Y-90138000D02*
X144626000Y-83598000D01*
X143256000Y-82828000D02*
X143256000Y-83598000D01*
X143256000Y-90908000D02*
X143256000Y-90138000D01*
X144626000Y-83598000D02*
X141886000Y-83598000D01*
X141886000Y-83598000D02*
X141886000Y-90138000D01*
X135259000Y-136545000D02*
X135259000Y-106295000D01*
X104009000Y-137545000D02*
X118634000Y-137545000D01*
X134259000Y-137545000D02*
X135259000Y-136545000D01*
X135259000Y-106295000D02*
X104009000Y-106295000D01*
X104009000Y-106295000D02*
X104009000Y-137545000D01*
X120634000Y-137545000D02*
X134259000Y-137545000D01*
X167072000Y-135926000D02*
X167072000Y-137176000D01*
X167072000Y-140426000D02*
X184972000Y-140426000D01*
X184972000Y-135926000D02*
X167072000Y-135926000D01*
X167072000Y-139176000D02*
X167072000Y-140426000D01*
X184972000Y-140426000D02*
X184972000Y-135926000D01*
X167072000Y-139176000D02*
G75*
G03*
X167072000Y-137176000I0J1000000D01*
G01*
X171764000Y-122210000D02*
X146244000Y-122210000D01*
X171764000Y-126710000D02*
X171764000Y-122210000D01*
X146244000Y-125460000D02*
X146244000Y-126710000D01*
X146244000Y-126710000D02*
X171764000Y-126710000D01*
X146244000Y-122210000D02*
X146244000Y-123460000D01*
X146244000Y-125460000D02*
G75*
G03*
X146244000Y-123460000I0J1000000D01*
G01*
X113574000Y-84776000D02*
X113574000Y-102676000D01*
X114824000Y-84776000D02*
X113574000Y-84776000D01*
X118074000Y-102676000D02*
X118074000Y-84776000D01*
X113574000Y-102676000D02*
X118074000Y-102676000D01*
X118074000Y-84776000D02*
X116824000Y-84776000D01*
X114824000Y-84776000D02*
G75*
G03*
X116824000Y-84776000I1000000J0D01*
G01*
X131028000Y-84776000D02*
X129778000Y-84776000D01*
X126528000Y-102676000D02*
X131028000Y-102676000D01*
X131028000Y-102676000D02*
X131028000Y-84776000D01*
X126528000Y-84776000D02*
X126528000Y-102676000D01*
X127778000Y-84776000D02*
X126528000Y-84776000D01*
X127778000Y-84776000D02*
G75*
G03*
X129778000Y-84776000I1000000J0D01*
G01*
X197164000Y-99096000D02*
X146244000Y-99096000D01*
X146244000Y-99096000D02*
X146244000Y-104156000D01*
X146244000Y-106156000D02*
X146244000Y-111216000D01*
X146244000Y-111216000D02*
X197164000Y-111216000D01*
X197164000Y-111216000D02*
X197164000Y-99096000D01*
X146244000Y-106156000D02*
G75*
G03*
X146244000Y-104156000I0J1000000D01*
G01*
X195894000Y-85106000D02*
X195894000Y-83856000D01*
X170374000Y-83856000D02*
X170374000Y-88356000D01*
X170374000Y-88356000D02*
X195894000Y-88356000D01*
X195894000Y-88356000D02*
X195894000Y-87106000D01*
X195894000Y-83856000D02*
X170374000Y-83856000D01*
X195894000Y-85106000D02*
G75*
G03*
X195894000Y-87106000I0J-1000000D01*
G01*
X157854000Y-91356000D02*
X157854000Y-80856000D01*
X147454000Y-91356000D02*
X157854000Y-91356000D01*
X147514000Y-88356000D02*
X157794000Y-88356000D01*
X147514000Y-83856000D02*
X147514000Y-88356000D01*
X147454000Y-80856000D02*
X147454000Y-91356000D01*
X157794000Y-88356000D02*
X157794000Y-87106000D01*
X157854000Y-80856000D02*
X147454000Y-80856000D01*
X157794000Y-83856000D02*
X147514000Y-83856000D01*
X157794000Y-85106000D02*
X157794000Y-83856000D01*
X157794000Y-85106000D02*
G75*
G03*
X157794000Y-87106000I0J-1000000D01*
G01*
X210534000Y-107596000D02*
X203994000Y-107596000D01*
X203224000Y-108966000D02*
X203994000Y-108966000D01*
X203994000Y-107596000D02*
X203994000Y-110336000D01*
X203994000Y-110336000D02*
X210534000Y-110336000D01*
X211304000Y-108966000D02*
X210534000Y-108966000D01*
X210534000Y-110336000D02*
X210534000Y-107596000D01*
X210534000Y-95096000D02*
X210534000Y-92356000D01*
X203994000Y-92356000D02*
X203994000Y-95096000D01*
X203224000Y-93726000D02*
X203994000Y-93726000D01*
X203994000Y-95096000D02*
X210534000Y-95096000D01*
X211304000Y-93726000D02*
X210534000Y-93726000D01*
X210534000Y-92356000D02*
X203994000Y-92356000D01*
X217464000Y-136691000D02*
X217464000Y-137006000D01*
X212224000Y-134266000D02*
X212224000Y-134581000D01*
X212224000Y-137006000D02*
X217464000Y-137006000D01*
X212224000Y-136691000D02*
X212224000Y-137006000D01*
X212224000Y-134266000D02*
X217464000Y-134266000D01*
X217464000Y-134266000D02*
X217464000Y-134581000D01*
X113164000Y-83158000D02*
X118404000Y-83158000D01*
X118404000Y-82843000D02*
X118404000Y-83158000D01*
X113164000Y-80418000D02*
X113164000Y-80733000D01*
X113164000Y-82843000D02*
X113164000Y-83158000D01*
X113164000Y-80418000D02*
X118404000Y-80418000D01*
X118404000Y-80418000D02*
X118404000Y-80733000D01*
X191984000Y-123405000D02*
X191984000Y-123090000D01*
X197224000Y-125830000D02*
X197224000Y-125515000D01*
X191984000Y-125830000D02*
X191984000Y-125515000D01*
X197224000Y-125830000D02*
X191984000Y-125830000D01*
X197224000Y-123090000D02*
X191984000Y-123090000D01*
X197224000Y-123405000D02*
X197224000Y-123090000D01*
X140054000Y-83598000D02*
X137314000Y-83598000D01*
X137314000Y-90138000D02*
X140054000Y-90138000D01*
X138684000Y-82828000D02*
X138684000Y-83598000D01*
X138684000Y-90908000D02*
X138684000Y-90138000D01*
X140054000Y-90138000D02*
X140054000Y-83598000D01*
X137314000Y-83598000D02*
X137314000Y-90138000D01*
X166609000Y-82881000D02*
X166609000Y-89131000D01*
X161559000Y-82881000D02*
X161559000Y-89131000D01*
X166609000Y-82881000D02*
G75*
G03*
X161559000Y-82881000I-2525000J0D01*
G01*
X161559000Y-89131000D02*
G75*
G03*
X166609000Y-89131000I2525000J0D01*
G01*
X210534000Y-103786000D02*
X203994000Y-103786000D01*
X203994000Y-103786000D02*
X203994000Y-106526000D01*
X210534000Y-106526000D02*
X210534000Y-103786000D01*
X203224000Y-105156000D02*
X203994000Y-105156000D01*
X203994000Y-106526000D02*
X210534000Y-106526000D01*
X211304000Y-105156000D02*
X210534000Y-105156000D01*
X207121000Y-149010000D02*
X211621000Y-149010000D01*
X205871000Y-145010000D02*
X205871000Y-146510000D01*
X212871000Y-146510000D02*
X212871000Y-145010000D01*
X211621000Y-142510000D02*
X207121000Y-142510000D01*
X180824000Y-128317000D02*
X180038000Y-128317000D01*
X180824000Y-127797000D02*
X179640000Y-127797000D01*
X183835000Y-128157000D02*
X182904000Y-128157000D01*
X184365000Y-127116000D02*
X182904000Y-127116000D01*
X184064000Y-127837000D02*
X182904000Y-127837000D01*
X184278000Y-127397000D02*
X182904000Y-127397000D01*
X184319000Y-127277000D02*
X182904000Y-127277000D01*
X184111000Y-127757000D02*
X182904000Y-127757000D01*
X183247000Y-128677000D02*
X180481000Y-128677000D01*
X183418000Y-128557000D02*
X180310000Y-128557000D01*
X184292000Y-127357000D02*
X182904000Y-127357000D01*
X180824000Y-127357000D02*
X179436000Y-127357000D01*
X180824000Y-127677000D02*
X179574000Y-127677000D01*
X182382000Y-129037000D02*
X181346000Y-129037000D01*
X180824000Y-126756000D02*
X179299000Y-126756000D01*
X184229000Y-127517000D02*
X182904000Y-127517000D01*
X183339000Y-123671225D02*
X183339000Y-124171225D01*
X180824000Y-127197000D02*
X179384000Y-127197000D01*
X184440000Y-126636000D02*
X182904000Y-126636000D01*
X180824000Y-126516000D02*
X179284000Y-126516000D01*
X180824000Y-126716000D02*
X179295000Y-126716000D01*
X180824000Y-127517000D02*
X179499000Y-127517000D01*
X180824000Y-127597000D02*
X179535000Y-127597000D01*
X183589000Y-123921225D02*
X183089000Y-123921225D01*
X180824000Y-126796000D02*
X179303000Y-126796000D01*
X180824000Y-126596000D02*
X179286000Y-126596000D01*
X180824000Y-127076000D02*
X179353000Y-127076000D01*
X184193000Y-127597000D02*
X182904000Y-127597000D01*
X180824000Y-127317000D02*
X179422000Y-127317000D01*
X180824000Y-127397000D02*
X179450000Y-127397000D01*
X180824000Y-128237000D02*
X179963000Y-128237000D01*
X184444000Y-126516000D02*
X182904000Y-126516000D01*
X184443000Y-126556000D02*
X182904000Y-126556000D01*
X180824000Y-127957000D02*
X179742000Y-127957000D01*
X184429000Y-126756000D02*
X182904000Y-126756000D01*
X184442000Y-126596000D02*
X182904000Y-126596000D01*
X183307000Y-128637000D02*
X180421000Y-128637000D01*
X183364000Y-128597000D02*
X180364000Y-128597000D01*
X180824000Y-126876000D02*
X179314000Y-126876000D01*
X180824000Y-126996000D02*
X179336000Y-126996000D01*
X182962000Y-128837000D02*
X180766000Y-128837000D01*
X182779000Y-128917000D02*
X180949000Y-128917000D01*
X180824000Y-127557000D02*
X179516000Y-127557000D01*
X184344000Y-127197000D02*
X182904000Y-127197000D01*
X180824000Y-128357000D02*
X180079000Y-128357000D01*
X180824000Y-127837000D02*
X179664000Y-127837000D01*
X183042000Y-128797000D02*
X180686000Y-128797000D01*
X184332000Y-127237000D02*
X182904000Y-127237000D01*
X180824000Y-128077000D02*
X179829000Y-128077000D01*
X180824000Y-126956000D02*
X179328000Y-126956000D01*
X182148000Y-129077000D02*
X181580000Y-129077000D01*
X180824000Y-127757000D02*
X179617000Y-127757000D01*
X180824000Y-127277000D02*
X179409000Y-127277000D01*
X180824000Y-127477000D02*
X179482000Y-127477000D01*
X183649000Y-128357000D02*
X182904000Y-128357000D01*
X180824000Y-126476000D02*
X179284000Y-126476000D01*
X183469000Y-128517000D02*
X180259000Y-128517000D01*
X184088000Y-127797000D02*
X182904000Y-127797000D01*
X183929000Y-128037000D02*
X182904000Y-128037000D01*
X183899000Y-128077000D02*
X182904000Y-128077000D01*
X184013000Y-127917000D02*
X182904000Y-127917000D01*
X183801000Y-128197000D02*
X182904000Y-128197000D01*
X180824000Y-128277000D02*
X180000000Y-128277000D01*
X184407000Y-126916000D02*
X182904000Y-126916000D01*
X183517000Y-128477000D02*
X182904000Y-128477000D01*
X180824000Y-128477000D02*
X180211000Y-128477000D01*
X182541000Y-128997000D02*
X181187000Y-128997000D01*
X180824000Y-127917000D02*
X179715000Y-127917000D01*
X180824000Y-126916000D02*
X179321000Y-126916000D01*
X184414000Y-126876000D02*
X182904000Y-126876000D01*
X180824000Y-127717000D02*
X179596000Y-127717000D01*
X184355000Y-127156000D02*
X182904000Y-127156000D01*
X184433000Y-126716000D02*
X182904000Y-126716000D01*
X183868000Y-128117000D02*
X182904000Y-128117000D01*
X183690000Y-128317000D02*
X182904000Y-128317000D01*
X182669000Y-128957000D02*
X181059000Y-128957000D01*
X180824000Y-127637000D02*
X179554000Y-127637000D01*
X184392000Y-126996000D02*
X182904000Y-126996000D01*
X183563000Y-128437000D02*
X182904000Y-128437000D01*
X184262000Y-127437000D02*
X182904000Y-127437000D01*
X180824000Y-127237000D02*
X179396000Y-127237000D01*
X180824000Y-126556000D02*
X179285000Y-126556000D01*
X184444000Y-126476000D02*
X182904000Y-126476000D01*
X184154000Y-127677000D02*
X182904000Y-127677000D01*
X180824000Y-127036000D02*
X179344000Y-127036000D01*
X183183000Y-128717000D02*
X180545000Y-128717000D01*
X183728000Y-128277000D02*
X182904000Y-128277000D01*
X180824000Y-127877000D02*
X179689000Y-127877000D01*
X180824000Y-128397000D02*
X180121000Y-128397000D01*
X180824000Y-127997000D02*
X179769000Y-127997000D01*
X184375000Y-127076000D02*
X182904000Y-127076000D01*
X180824000Y-126676000D02*
X179291000Y-126676000D01*
X184400000Y-126956000D02*
X182904000Y-126956000D01*
X180824000Y-126636000D02*
X179288000Y-126636000D01*
X184132000Y-127717000D02*
X182904000Y-127717000D01*
X183607000Y-128397000D02*
X182904000Y-128397000D01*
X184384000Y-127036000D02*
X182904000Y-127036000D01*
X184425000Y-126796000D02*
X182904000Y-126796000D01*
X183986000Y-127957000D02*
X182904000Y-127957000D01*
X183959000Y-127997000D02*
X182904000Y-127997000D01*
X180824000Y-128117000D02*
X179860000Y-128117000D01*
X184039000Y-127877000D02*
X182904000Y-127877000D01*
X184306000Y-127317000D02*
X182904000Y-127317000D01*
X180824000Y-127116000D02*
X179363000Y-127116000D01*
X183765000Y-128237000D02*
X182904000Y-128237000D01*
X180824000Y-126836000D02*
X179308000Y-126836000D01*
X180824000Y-128197000D02*
X179927000Y-128197000D01*
X180824000Y-128157000D02*
X179893000Y-128157000D01*
X184212000Y-127557000D02*
X182904000Y-127557000D01*
X184246000Y-127477000D02*
X182904000Y-127477000D01*
X180824000Y-128037000D02*
X179799000Y-128037000D01*
X180824000Y-128437000D02*
X180165000Y-128437000D01*
X180824000Y-127437000D02*
X179466000Y-127437000D01*
X183115000Y-128757000D02*
X180613000Y-128757000D01*
X184437000Y-126676000D02*
X182904000Y-126676000D01*
X182875000Y-128877000D02*
X180853000Y-128877000D01*
X180824000Y-127156000D02*
X179373000Y-127156000D01*
X184174000Y-127637000D02*
X182904000Y-127637000D01*
X184420000Y-126836000D02*
X182904000Y-126836000D01*
X184484000Y-126476000D02*
G75*
G03*
X184484000Y-126476000I-2620000J0D01*
G01*
X194564000Y-134246000D02*
X194564000Y-131706000D01*
X199684000Y-134246000D02*
X189444000Y-134246000D01*
X189444000Y-150136000D02*
X189444000Y-134246000D01*
X192024000Y-134246000D02*
X192024000Y-131706000D01*
X199684000Y-150136000D02*
X199684000Y-134246000D01*
X197104000Y-134246000D02*
X197104000Y-131706000D01*
X199684000Y-150136000D02*
X189444000Y-150136000D01*
%LPC*%
D13*
X199644000Y-150241000D02*
X189484000Y-150241000D01*
X189484000Y-150241000D02*
X189484000Y-134366000D01*
X189484000Y-134366000D02*
X199644000Y-134366000D01*
X199644000Y-134366000D02*
X199644000Y-150241000D01*
G36*
X199644000Y-150241000D02*
G01*
X189484000Y-150241000D01*
X189484000Y-134366000D01*
X199644000Y-134366000D01*
X199644000Y-150241000D01*
G37*
X199644000Y-150241000D02*
X189484000Y-150241000D01*
X189484000Y-134366000D01*
X199644000Y-134366000D01*
X199644000Y-150241000D01*
D14*
X138684000Y-131572000D03*
X138684000Y-136572000D03*
X142494000Y-127000000D03*
X142494000Y-122000000D03*
X142494000Y-107696000D03*
X142494000Y-102696000D03*
X203454000Y-84836000D03*
X198454000Y-84836000D03*
X125984000Y-81788000D03*
X130984000Y-81788000D03*
X164084000Y-140716000D03*
X164084000Y-135716000D03*
D15*
X117348000Y-145288000D03*
D16*
X117348000Y-147828000D03*
X119888000Y-145288000D03*
X119888000Y-147828000D03*
X122428000Y-145288000D03*
X122428000Y-147828000D03*
X124968000Y-145288000D03*
X124968000Y-147828000D03*
X127508000Y-145288000D03*
X127508000Y-147828000D03*
X130048000Y-145288000D03*
X130048000Y-147828000D03*
X132588000Y-145288000D03*
X132588000Y-147828000D03*
X135128000Y-145288000D03*
X135128000Y-147828000D03*
X137668000Y-145288000D03*
X137668000Y-147828000D03*
X140208000Y-145288000D03*
X140208000Y-147828000D03*
X142748000Y-145288000D03*
X142748000Y-147828000D03*
X145288000Y-145288000D03*
X145288000Y-147828000D03*
X147828000Y-145288000D03*
X147828000Y-147828000D03*
X150368000Y-145288000D03*
X150368000Y-147828000D03*
X152908000Y-145288000D03*
X152908000Y-147828000D03*
X155448000Y-145288000D03*
X155448000Y-147828000D03*
D15*
X225044000Y-128778000D03*
D16*
X225044000Y-131318000D03*
X225044000Y-133858000D03*
X225044000Y-136398000D03*
D17*
X220114000Y-93415000D03*
X220114000Y-118415000D03*
D18*
X218694000Y-101600000D03*
D14*
X218694000Y-103890000D03*
X218694000Y-106180000D03*
X218694000Y-108470000D03*
X218694000Y-110760000D03*
X220674000Y-100455000D03*
X220674000Y-102745000D03*
X220674000Y-105035000D03*
X220674000Y-107325000D03*
X220674000Y-109615000D03*
X222654000Y-101600000D03*
X222654000Y-103890000D03*
X222654000Y-106180000D03*
X222654000Y-108470000D03*
X222654000Y-110760000D03*
D19*
X206248000Y-135636000D03*
D20*
X207518000Y-134366000D03*
X208788000Y-135636000D03*
D14*
X207264000Y-129540000D03*
D21*
X217424000Y-129540000D03*
D14*
X207264000Y-125476000D03*
D21*
X217424000Y-125476000D03*
D14*
X202184000Y-89916000D03*
D21*
X212344000Y-89916000D03*
D14*
X202184000Y-97536000D03*
D21*
X212344000Y-97536000D03*
D14*
X202184000Y-101346000D03*
D21*
X212344000Y-101346000D03*
D14*
X202184000Y-112776000D03*
D21*
X212344000Y-112776000D03*
D14*
X202184000Y-116586000D03*
D21*
X212344000Y-116586000D03*
D14*
X202184000Y-120396000D03*
D21*
X212344000Y-120396000D03*
D14*
X143256000Y-81788000D03*
D21*
X143256000Y-91948000D03*
D22*
X119634000Y-134620000D03*
D23*
X119634000Y-132080000D03*
X122174000Y-134620000D03*
X122174000Y-132080000D03*
X124714000Y-134620000D03*
X124714000Y-132080000D03*
X127254000Y-134620000D03*
X127254000Y-132080000D03*
X129794000Y-134620000D03*
X132334000Y-132080000D03*
X129794000Y-132080000D03*
X132334000Y-129540000D03*
X129794000Y-129540000D03*
X132334000Y-127000000D03*
X129794000Y-127000000D03*
X132334000Y-124460000D03*
X129794000Y-124460000D03*
X132334000Y-121920000D03*
X129794000Y-121920000D03*
X132334000Y-119380000D03*
X129794000Y-119380000D03*
X132334000Y-116840000D03*
X129794000Y-116840000D03*
X132334000Y-114300000D03*
X129794000Y-114300000D03*
X132334000Y-111760000D03*
X129794000Y-109220000D03*
X129794000Y-111760000D03*
X127254000Y-109220000D03*
X127254000Y-111760000D03*
X124714000Y-109220000D03*
X124714000Y-111760000D03*
X122174000Y-109220000D03*
X122174000Y-111760000D03*
X119634000Y-109220000D03*
X119634000Y-111760000D03*
X117094000Y-109220000D03*
X117094000Y-111760000D03*
X114554000Y-109220000D03*
X114554000Y-111760000D03*
X112014000Y-109220000D03*
X112014000Y-111760000D03*
X109474000Y-109220000D03*
X106934000Y-111760000D03*
X109474000Y-111760000D03*
X106934000Y-114300000D03*
X109474000Y-114300000D03*
X106934000Y-116840000D03*
X109474000Y-116840000D03*
X106934000Y-119380000D03*
X109474000Y-119380000D03*
X106934000Y-121920000D03*
X109474000Y-121920000D03*
X106934000Y-124460000D03*
X109474000Y-124460000D03*
X106934000Y-127000000D03*
X109474000Y-127000000D03*
X106934000Y-129540000D03*
X109474000Y-129540000D03*
X106934000Y-132080000D03*
X109474000Y-134620000D03*
X109474000Y-132080000D03*
X112014000Y-134620000D03*
X112014000Y-132080000D03*
X114554000Y-134620000D03*
X114554000Y-132080000D03*
X117094000Y-134620000D03*
X117094000Y-132080000D03*
D24*
X168402000Y-141986000D03*
D25*
X170942000Y-141986000D03*
X173482000Y-141986000D03*
X176022000Y-141986000D03*
X178562000Y-141986000D03*
X181102000Y-141986000D03*
X183642000Y-141986000D03*
X183642000Y-134366000D03*
X181102000Y-134366000D03*
X178562000Y-134366000D03*
X176022000Y-134366000D03*
X173482000Y-134366000D03*
X170942000Y-134366000D03*
X168402000Y-134366000D03*
D24*
X147574000Y-128270000D03*
D25*
X150114000Y-128270000D03*
X152654000Y-128270000D03*
X155194000Y-128270000D03*
X157734000Y-128270000D03*
X160274000Y-128270000D03*
X162814000Y-128270000D03*
X165354000Y-128270000D03*
X167894000Y-128270000D03*
X170434000Y-128270000D03*
X170434000Y-120650000D03*
X167894000Y-120650000D03*
X165354000Y-120650000D03*
X162814000Y-120650000D03*
X160274000Y-120650000D03*
X157734000Y-120650000D03*
X155194000Y-120650000D03*
X152654000Y-120650000D03*
X150114000Y-120650000D03*
X147574000Y-120650000D03*
D26*
X112014000Y-86106000D03*
D27*
X112014000Y-88646000D03*
X112014000Y-91186000D03*
X112014000Y-93726000D03*
X112014000Y-96266000D03*
X112014000Y-98806000D03*
X112014000Y-101346000D03*
X119634000Y-101346000D03*
X119634000Y-98806000D03*
X119634000Y-96266000D03*
X119634000Y-93726000D03*
X119634000Y-91186000D03*
X119634000Y-88646000D03*
X119634000Y-86106000D03*
D26*
X124968000Y-86106000D03*
D27*
X124968000Y-88646000D03*
X124968000Y-91186000D03*
X124968000Y-93726000D03*
X124968000Y-96266000D03*
X124968000Y-98806000D03*
X124968000Y-101346000D03*
X132588000Y-101346000D03*
X132588000Y-98806000D03*
X132588000Y-96266000D03*
X132588000Y-93726000D03*
X132588000Y-91186000D03*
X132588000Y-88646000D03*
X132588000Y-86106000D03*
D24*
X147574000Y-112776000D03*
D25*
X150114000Y-112776000D03*
X152654000Y-112776000D03*
X155194000Y-112776000D03*
X157734000Y-112776000D03*
X160274000Y-112776000D03*
X162814000Y-112776000D03*
X165354000Y-112776000D03*
X167894000Y-112776000D03*
X170434000Y-112776000D03*
X172974000Y-112776000D03*
X175514000Y-112776000D03*
X178054000Y-112776000D03*
X180594000Y-112776000D03*
X183134000Y-112776000D03*
X185674000Y-112776000D03*
X188214000Y-112776000D03*
X190754000Y-112776000D03*
X193294000Y-112776000D03*
X195834000Y-112776000D03*
X195834000Y-97536000D03*
X193294000Y-97536000D03*
X190754000Y-97536000D03*
X188214000Y-97536000D03*
X185674000Y-97536000D03*
X183134000Y-97536000D03*
X180594000Y-97536000D03*
X178054000Y-97536000D03*
X175514000Y-97536000D03*
X172974000Y-97536000D03*
X170434000Y-97536000D03*
X167894000Y-97536000D03*
X165354000Y-97536000D03*
X162814000Y-97536000D03*
X160274000Y-97536000D03*
X157734000Y-97536000D03*
X155194000Y-97536000D03*
X152654000Y-97536000D03*
X150114000Y-97536000D03*
X147574000Y-97536000D03*
D24*
X194564000Y-82296000D03*
D25*
X192024000Y-82296000D03*
X189484000Y-82296000D03*
X186944000Y-82296000D03*
X184404000Y-82296000D03*
X181864000Y-82296000D03*
X179324000Y-82296000D03*
X176784000Y-82296000D03*
X174244000Y-82296000D03*
X171704000Y-82296000D03*
X171704000Y-89916000D03*
X174244000Y-89916000D03*
X176784000Y-89916000D03*
X179324000Y-89916000D03*
X181864000Y-89916000D03*
X184404000Y-89916000D03*
X186944000Y-89916000D03*
X189484000Y-89916000D03*
X192024000Y-89916000D03*
X194564000Y-89916000D03*
D24*
X156464000Y-82296000D03*
D25*
X153924000Y-82296000D03*
X151384000Y-82296000D03*
X148844000Y-82296000D03*
X148844000Y-89916000D03*
X151384000Y-89916000D03*
X153924000Y-89916000D03*
X156464000Y-89916000D03*
D14*
X202184000Y-108966000D03*
D21*
X212344000Y-108966000D03*
D14*
X202184000Y-93726000D03*
D21*
X212344000Y-93726000D03*
D14*
X212344000Y-135636000D03*
X217344000Y-135636000D03*
X113284000Y-81788000D03*
X118284000Y-81788000D03*
X197104000Y-124460000D03*
X192104000Y-124460000D03*
X138684000Y-81788000D03*
D21*
X138684000Y-91948000D03*
D28*
X164084000Y-83566000D03*
X164084000Y-88446000D03*
D29*
X107361056Y-80598944D03*
X108064000Y-82296000D03*
X103264000Y-82296000D03*
X105664000Y-84696000D03*
X103966944Y-83993056D03*
X107361056Y-83993056D03*
X103966944Y-80598944D03*
D30*
X105664000Y-82296000D03*
D29*
X105664000Y-79896000D03*
X225886944Y-80598944D03*
X227584000Y-79896000D03*
X229281056Y-80598944D03*
X227584000Y-84696000D03*
X225184000Y-82296000D03*
D30*
X227584000Y-82296000D03*
D29*
X225886944Y-83993056D03*
X229984000Y-82296000D03*
X229281056Y-83993056D03*
X229984000Y-148336000D03*
X229281056Y-146638944D03*
X225886944Y-150033056D03*
X227584000Y-150736000D03*
X225886944Y-146638944D03*
D30*
X227584000Y-148336000D03*
D29*
X229281056Y-150033056D03*
X227584000Y-145936000D03*
X225184000Y-148336000D03*
D30*
X105804000Y-148336000D03*
D29*
X105804000Y-150736000D03*
X105804000Y-145936000D03*
X104106944Y-146638944D03*
X103404000Y-148336000D03*
X104106944Y-150033056D03*
X107501056Y-146638944D03*
X108204000Y-148336000D03*
X107501056Y-150033056D03*
D14*
X212344000Y-105156000D03*
D21*
X202184000Y-105156000D03*
D31*
X206121000Y-143510000D03*
X212621000Y-143510000D03*
X206121000Y-148010000D03*
X212621000Y-148010000D03*
D18*
X181864000Y-125476000D03*
D14*
X181864000Y-127476000D03*
D32*
X194564000Y-147216000D03*
D33*
X197104000Y-130556000D03*
D34*
X194564000Y-130556000D03*
X192024000Y-130556000D03*
M02*
