M48
; DRILL file {KiCad (6.0.1)} date Sat Feb 26 16:04:39 2022
; FORMAT={-:-/ absolute / metric / decimal}
; #@! TF.CreationDate,2022-02-26T16:04:39+01:00
; #@! TF.GenerationSoftware,Kicad,Pcbnew,(6.0.1)
; #@! TF.FileFunction,Plated,1,2,PTH
FMAT,2
METRIC
; #@! TA.AperFunction,Plated,PTH,ComponentDrill
T1C0.500
; #@! TA.AperFunction,Plated,PTH,ComponentDrill
T2C0.750
; #@! TA.AperFunction,Plated,PTH,ComponentDrill
T3C0.800
; #@! TA.AperFunction,Plated,PTH,ComponentDrill
T4C1.000
; #@! TA.AperFunction,Plated,PTH,ComponentDrill
T5C1.100
; #@! TA.AperFunction,Plated,PTH,ComponentDrill
T6C3.200
%
G90
G05
T1
X103.264Y-82.296
X103.404Y-148.336
X103.967Y-80.599
X103.967Y-83.993
X104.107Y-146.639
X104.107Y-150.033
X105.664Y-79.896
X105.664Y-84.696
X105.804Y-145.936
X105.804Y-150.736
X107.361Y-80.599
X107.361Y-83.993
X107.501Y-146.639
X107.501Y-150.033
X108.064Y-82.296
X108.204Y-148.336
X225.184Y-82.296
X225.184Y-148.336
X225.887Y-80.599
X225.887Y-83.993
X225.887Y-146.639
X225.887Y-150.033
X227.584Y-79.896
X227.584Y-84.696
X227.584Y-145.936
X227.584Y-150.736
X229.281Y-80.599
X229.281Y-83.993
X229.281Y-146.639
X229.281Y-150.033
X229.984Y-82.296
X229.984Y-148.336
T2
X206.248Y-135.636
X207.518Y-134.366
X208.788Y-135.636
T3
X106.934Y-111.76
X106.934Y-114.3
X106.934Y-116.84
X106.934Y-119.38
X106.934Y-121.92
X106.934Y-124.46
X106.934Y-127.0
X106.934Y-129.54
X106.934Y-132.08
X109.474Y-109.22
X109.474Y-111.76
X109.474Y-114.3
X109.474Y-116.84
X109.474Y-119.38
X109.474Y-121.92
X109.474Y-124.46
X109.474Y-127.0
X109.474Y-129.54
X109.474Y-132.08
X109.474Y-134.62
X112.014Y-86.106
X112.014Y-88.646
X112.014Y-91.186
X112.014Y-93.726
X112.014Y-96.266
X112.014Y-98.806
X112.014Y-101.346
X112.014Y-109.22
X112.014Y-111.76
X112.014Y-132.08
X112.014Y-134.62
X113.284Y-81.788
X114.554Y-109.22
X114.554Y-111.76
X114.554Y-132.08
X114.554Y-134.62
X117.094Y-109.22
X117.094Y-111.76
X117.094Y-132.08
X117.094Y-134.62
X118.284Y-81.788
X119.634Y-86.106
X119.634Y-88.646
X119.634Y-91.186
X119.634Y-93.726
X119.634Y-96.266
X119.634Y-98.806
X119.634Y-101.346
X119.634Y-109.22
X119.634Y-111.76
X119.634Y-132.08
X119.634Y-134.62
X122.174Y-109.22
X122.174Y-111.76
X122.174Y-132.08
X122.174Y-134.62
X124.714Y-109.22
X124.714Y-111.76
X124.714Y-132.08
X124.714Y-134.62
X124.968Y-86.106
X124.968Y-88.646
X124.968Y-91.186
X124.968Y-93.726
X124.968Y-96.266
X124.968Y-98.806
X124.968Y-101.346
X125.984Y-81.788
X127.254Y-109.22
X127.254Y-111.76
X127.254Y-132.08
X127.254Y-134.62
X129.794Y-109.22
X129.794Y-111.76
X129.794Y-114.3
X129.794Y-116.84
X129.794Y-119.38
X129.794Y-121.92
X129.794Y-124.46
X129.794Y-127.0
X129.794Y-129.54
X129.794Y-132.08
X129.794Y-134.62
X130.984Y-81.788
X132.334Y-111.76
X132.334Y-114.3
X132.334Y-116.84
X132.334Y-119.38
X132.334Y-121.92
X132.334Y-124.46
X132.334Y-127.0
X132.334Y-129.54
X132.334Y-132.08
X132.588Y-86.106
X132.588Y-88.646
X132.588Y-91.186
X132.588Y-93.726
X132.588Y-96.266
X132.588Y-98.806
X132.588Y-101.346
X138.684Y-81.788
X138.684Y-91.948
X138.684Y-131.572
X138.684Y-136.572
X142.494Y-102.696
X142.494Y-107.696
X142.494Y-122.0
X142.494Y-127.0
X143.256Y-81.788
X143.256Y-91.948
X147.574Y-97.536
X147.574Y-112.776
X147.574Y-120.65
X147.574Y-128.27
X148.844Y-82.296
X148.844Y-89.916
X150.114Y-97.536
X150.114Y-112.776
X150.114Y-120.65
X150.114Y-128.27
X151.384Y-82.296
X151.384Y-89.916
X152.654Y-97.536
X152.654Y-112.776
X152.654Y-120.65
X152.654Y-128.27
X153.924Y-82.296
X153.924Y-89.916
X155.194Y-97.536
X155.194Y-112.776
X155.194Y-120.65
X155.194Y-128.27
X156.464Y-82.296
X156.464Y-89.916
X157.734Y-97.536
X157.734Y-112.776
X157.734Y-120.65
X157.734Y-128.27
X160.274Y-97.536
X160.274Y-112.776
X160.274Y-120.65
X160.274Y-128.27
X162.814Y-97.536
X162.814Y-112.776
X162.814Y-120.65
X162.814Y-128.27
X164.084Y-83.566
X164.084Y-88.446
X164.084Y-135.716
X164.084Y-140.716
X165.354Y-97.536
X165.354Y-112.776
X165.354Y-120.65
X165.354Y-128.27
X167.894Y-97.536
X167.894Y-112.776
X167.894Y-120.65
X167.894Y-128.27
X168.402Y-134.366
X168.402Y-141.986
X170.434Y-97.536
X170.434Y-112.776
X170.434Y-120.65
X170.434Y-128.27
X170.942Y-134.366
X170.942Y-141.986
X171.704Y-82.296
X171.704Y-89.916
X172.974Y-97.536
X172.974Y-112.776
X173.482Y-134.366
X173.482Y-141.986
X174.244Y-82.296
X174.244Y-89.916
X175.514Y-97.536
X175.514Y-112.776
X176.022Y-134.366
X176.022Y-141.986
X176.784Y-82.296
X176.784Y-89.916
X178.054Y-97.536
X178.054Y-112.776
X178.562Y-134.366
X178.562Y-141.986
X179.324Y-82.296
X179.324Y-89.916
X180.594Y-97.536
X180.594Y-112.776
X181.102Y-134.366
X181.102Y-141.986
X181.864Y-82.296
X181.864Y-89.916
X181.864Y-125.476
X181.864Y-127.476
X183.134Y-97.536
X183.134Y-112.776
X183.642Y-134.366
X183.642Y-141.986
X184.404Y-82.296
X184.404Y-89.916
X185.674Y-97.536
X185.674Y-112.776
X186.944Y-82.296
X186.944Y-89.916
X188.214Y-97.536
X188.214Y-112.776
X189.484Y-82.296
X189.484Y-89.916
X190.754Y-97.536
X190.754Y-112.776
X192.024Y-82.296
X192.024Y-89.916
X192.104Y-124.46
X193.294Y-97.536
X193.294Y-112.776
X194.564Y-82.296
X194.564Y-89.916
X195.834Y-97.536
X195.834Y-112.776
X197.104Y-124.46
X198.454Y-84.836
X202.184Y-89.916
X202.184Y-93.726
X202.184Y-97.536
X202.184Y-101.346
X202.184Y-105.156
X202.184Y-108.966
X202.184Y-112.776
X202.184Y-116.586
X202.184Y-120.396
X203.454Y-84.836
X207.264Y-125.476
X207.264Y-129.54
X212.344Y-89.916
X212.344Y-93.726
X212.344Y-97.536
X212.344Y-101.346
X212.344Y-105.156
X212.344Y-108.966
X212.344Y-112.776
X212.344Y-116.586
X212.344Y-120.396
X212.344Y-135.636
X217.344Y-135.636
X217.424Y-125.476
X217.424Y-129.54
T4
X117.348Y-145.288
X117.348Y-147.828
X119.888Y-145.288
X119.888Y-147.828
X122.428Y-145.288
X122.428Y-147.828
X124.968Y-145.288
X124.968Y-147.828
X127.508Y-145.288
X127.508Y-147.828
X130.048Y-145.288
X130.048Y-147.828
X132.588Y-145.288
X132.588Y-147.828
X135.128Y-145.288
X135.128Y-147.828
X137.668Y-145.288
X137.668Y-147.828
X140.208Y-145.288
X140.208Y-147.828
X142.748Y-145.288
X142.748Y-147.828
X145.288Y-145.288
X145.288Y-147.828
X147.828Y-145.288
X147.828Y-147.828
X150.368Y-145.288
X150.368Y-147.828
X152.908Y-145.288
X152.908Y-147.828
X155.448Y-145.288
X155.448Y-147.828
X218.694Y-101.6
X218.694Y-103.89
X218.694Y-106.18
X218.694Y-108.47
X218.694Y-110.76
X220.674Y-100.455
X220.674Y-102.745
X220.674Y-105.035
X220.674Y-107.325
X220.674Y-109.615
X222.654Y-101.6
X222.654Y-103.89
X222.654Y-106.18
X222.654Y-108.47
X222.654Y-110.76
X225.044Y-128.778
X225.044Y-131.318
X225.044Y-133.858
X225.044Y-136.398
T5
X192.024Y-130.556
X194.564Y-130.556
X197.104Y-130.556
X206.121Y-143.51
X206.121Y-148.01
X212.621Y-143.51
X212.621Y-148.01
T6
X105.664Y-82.296
X105.804Y-148.336
X220.114Y-93.415
X220.114Y-118.415
X227.584Y-82.296
X227.584Y-148.336
T0
M30
